{
classes = (
{
automatic = 1;
code = "A B C D E F G H I J K L M N O P Q R S T U V W X Y Z Agrave Aacute Acircumflex Atilde Adieresis Aring AE Ccedilla Egrave Eacute Ecircumflex Edieresis Igrave Iacute Icircumflex Idieresis Eth Ntilde Ograve Oacute Ocircumflex Otilde Odieresis Oslash Ugrave Uacute Ucircumflex Udieresis Yacute Thorn Cacute Ccaron Gbreve Idotaccent Lslash OE Scedilla Scaron Ydieresis Zcaron Omega Delta";
name = Uppercase;
}
);
copyright = "Original Fonts are \U00A9 Bitstream. OpenDyslexic changes and additional glyphs by Abelardo Gonzalez are licensed under a Creative Commons Attribution 3.0 Unported License.\012Based on a work at http://dyslexicfonts.com. \U26612012 by Abelardo Gonzalez. Copying is an act of love. Please copy.\012Bitstream license available here: http://opendyslexic.org/legal/";
customParameters = (
{
name = glyphOrder;
value = (
    ".notdef",
    uni0000,
    uni000D,
    NULL,
    space,
    exclam,
    quotedbl,
    numbersign,
    dollar,
    percent,
    ampersand,
    quotesingle,
    parenleft,
    parenright,
    asterisk,
    plus,
    comma,
    hyphen,
    period,
    slash,
    zero,
    one,
    two,
    three,
    four,
    five,
    six,
    seven,
    eight,
    nine,
    colon,
    semicolon,
    less,
    equal,
    greater,
    question,
    at,
    A,
    B,
    C,
    D,
    E,
    F,
    G,
    H,
    I,
    J,
    K,
    L,
    M,
    N,
    O,
    P,
    Q,
    R,
    S,
    T,
    U,
    V,
    W,
    X,
    Y,
    Z,
    bracketleft,
    backslash,
    bracketright,
    asciicircum,
    underscore,
    grave,
    a,
    b,
    c,
    d,
    e,
    f,
    g,
    h,
    i,
    j,
    k,
    l,
    m,
    n,
    o,
    p,
    q,
    r,
    s,
    t,
    u,
    v,
    w,
    x,
    y,
    z,
    braceleft,
    bar,
    braceright,
    asciitilde,
    uni00A0,
    exclamdown,
    cent,
    sterling,
    currency,
    yen,
    brokenbar,
    section,
    dieresis,
    copyright,
    ordfeminine,

glyphs = (
{
glyphname = .notdef;
lastChange = "2014-11-05 03:31:07 -0500";
layers = (
{
layerId = "013FA67F-D7C9-4F04-AAC6-32032829ED9A";
name = "Bold Italic";
paths = (
{
closed = 1;
nodes = (
"91 -156 LINE",
"136 125 OFFCURVE",
"160 412 OFFCURVE",
"165 703 CURVE",
"250 689 OFFCURVE",
"329 683 OFFCURVE",
"407 683 CURVE SMOOTH",
"487 683 OFFCURVE",
"572 689 OFFCURVE",
"664 703 CURVE",
"617 412 OFFCURVE",
"590 123 OFFCURVE",
"587 -169 CURVE",
"502 -157 OFFCURVE",
"420 -151 OFFCURVE",
"340 -151 CURVE SMOOTH",
"262 -151 OFFCURVE",
"182 -156 OFFCURVE",
"102 -167 CURVE"
);
},
{
closed = 1;
nodes = (
"163 -14 LINE",
"167 -13 OFFCURVE",
"170 -13 OFFCURVE",
"174 -13 CURVE",
"173 -25 LINE"
);
},
{
closed = 1;
nodes = (
"218 414 OFFCURVE",
"201 202 OFFCURVE",
"174 -13 CURVE",
"233 -9 OFFCURVE",
"294 -7 OFFCURVE",
"353 -7 CURVE SMOOTH",
"384 -7 OFFCURVE",
"413 -7 OFFCURVE",
"441 -8 CURVE SMOOTH",
"469 -9 OFFCURVE",
"497 -11 OFFCURVE",
"528 -13 CURVE",
"539 204 OFFCURVE",
"558 415 OFFCURVE",
"589 629 CURVE",
"526 624 OFFCURVE",
"466 621 OFFCURVE",
"403 621 CURVE SMOOTH",
"344 621 OFFCURVE",
"285 624 OFFCURVE",
"227 629 CURVE"
);
}
);
width = 754;
}
);
},
{
glyphname = exclam;
lastChange = "2014-11-05 03:31:07 -0500";
layers = (
{
layerId = "013FA67F-D7C9-4F04-AAC6-32032829ED9A";
name = "Bold Italic";
paths = (
{
closed = 1;
nodes = (
"120 139 LINE",
"135 143 OFFCURVE",
"150 145 OFFCURVE",
"167 145 CURVE SMOOTH",
"182 145 OFFCURVE",
"200 142 OFFCURVE",
"221 137 CURVE",
"221 114 LINE SMOOTH",
"221 92 OFFCURVE",
"221 71 OFFCURVE",
"222 49 CURVE SMOOTH",
"222 47 OFFCURVE",
"222 43 OFFCURVE",
"222 39 CURVE SMOOTH",
"222 35 OFFCURVE",
"222 30 OFFCURVE",
"222 25 CURVE",
"222 21 OFFCURVE",
"222 17 OFFCURVE",
"222 12 CURVE SMOOTH",
"222 8 OFFCURVE",
"222 4 OFFCURVE",
"222 1 CURVE",
"197 13 OFFCURVE",
"176 18 OFFCURVE",
"158 18 CURVE SMOOTH",
"140 18 OFFCURVE",
"117 12 OFFCURVE",
"88 0 CURVE",
"102 75 LINE",
"102 74 LINE",
"104 83 OFFCURVE",
"105 93 OFFCURVE",
"107 103 CURVE SMOOTH",
"108 113 OFFCURVE",
"110 123 OFFCURVE",
"112 132 CURVE"
);
},
{
closed = 1;
nodes = (
"178 715 LINE",
"190 712 OFFCURVE",
"202 710 OFFCURVE",
"214 710 CURVE SMOOTH",
"229 710 OFFCURVE",
"247 714 OFFCURVE",
"270 721 CURVE",
"262 636 OFFCURVE",
"254 539 OFFCURVE",
"248 454 CURVE SMOOTH",
"248 447 OFFCURVE",
"247 439 OFFCURVE",
"246 431 CURVE SMOOTH",
"246 422 OFFCURVE",
"245 415 OFFCURVE",
"244 407 CURVE",
"244 395 OFFCURVE",
"244 383 OFFCURVE",
"244 372 CURVE SMOOTH",
"244 360 OFFCURVE",
"244 348 OFFCURVE",
"244 336 CURVE",
"244 332 OFFCURVE",
"244 327 OFFCURVE",
"244 321 CURVE SMOOTH",
"244 314 OFFCURVE",
"244 308 OFFCURVE",
"244 302 CURVE",
"243 295 OFFCURVE",
"243 289 OFFCURVE",
"243 282 CURVE SMOOTH",
"243 276 OFFCURVE",
"243 271 OFFCURVE",
"243 267 CURVE SMOOTH",
"243 232 LINE",
"216 236 OFFCURVE",
"196 238 OFFCURVE",
"178 238 CURVE SMOOTH",
"160 238 OFFCURVE",
"138 236 OFFCURVE",
"109 232 CURVE",
"132 387 OFFCURVE",
"150 552 OFFCURVE",
"166 708 CURVE"
);
}
);
width = 353;
}
);
unicode = 0021;
},
{
glyphname = quotedbl;
lastChange = "2014-11-05 03:31:07 -0500";
layers = (
{
layerId = "013FA67F-D7C9-4F04-AAC6-32032829ED9A";
name = "Bold Italic";
paths = (
{
closed = 1;
nodes = (
"264 710 LINE",
"262 623 OFFCURVE",
"257 534 OFFCURVE",
"246 441 CURVE",
"239 440 OFFCURVE",
"230 440 OFFCURVE",
"221 440 CURVE SMOOTH",
"212 439 OFFCURVE",
"202 439 OFFCURVE",
"192 438 CURVE SMOOTH",
"173 438 OFFCURVE",
"153 436 OFFCURVE",
"139 435 CURVE",
"160 524 OFFCURVE",
"170 611 OFFCURVE",
"170 697 CURVE SMOOTH",
"170 725 LINE",
"182 724 OFFCURVE",
"197 723 OFFCURVE",
"212 722 CURVE SMOOTH",
"220 722 OFFCURVE",
"228 721 OFFCURVE",
"235 721 CURVE SMOOTH",
"242 720 OFFCURVE",
"249 720 OFFCURVE",
"255 720 CURVE"
);
},
{
closed = 1;
nodes = (
"456 713 LINE",
"442 646 OFFCURVE",
"435 579 OFFCURVE",
"435 512 CURVE SMOOTH",
"435 490 OFFCURVE",
"435 466 OFFCURVE",
"438 435 CURVE",
"424 436 OFFCURVE",
"405 438 OFFCURVE",
"385 438 CURVE SMOOTH",
"375 439 OFFCURVE",
"366 439 OFFCURVE",
"357 440 CURVE SMOOTH",
"348 440 OFFCURVE",
"339 440 OFFCURVE",
"333 441 CURVE",
"336 535 OFFCURVE",
"347 627 OFFCURVE",
"362 720 CURVE",
"380 720 OFFCURVE",
"405 721 OFFCURVE",
"423 723 CURVE SMOOTH",
"445 724 LINE"
);
}
);
width = 477;
}
);
unicode = 0022;
},
{
glyphname = numbersign;
lastChange = "2014-11-05 03:31:07 -0500";
layers = (
{
layerId = "013FA67F-D7C9-4F04-AAC6-32032829ED9A";
name = "Bold Italic";
paths = (
{
closed = 1;
nodes = (
"498 429 LINE",
"484 429 LINE",
"488 442 LINE"
);
},
{
closed = 1;
nodes = (
"437 287 LINE",
"442 302 OFFCURVE",
"447 318 OFFCURVE",
"453 334 CURVE SMOOTH",
"458 350 OFFCURVE",
"463 366 OFFCURVE",
"469 381 CURVE SMOOTH",
"484 429 LINE",
"464 429 OFFCURVE",
"444 429 OFFCURVE",
"425 429 CURVE SMOOTH",
"406 429 OFFCURVE",
"386 429 OFFCURVE",
"364 429 CURVE",
"364 426 OFFCURVE",
"363 424 OFFCURVE",
"362 422 CURVE",
"361 420 OFFCURVE",
"360 418 OFFCURVE",
"360 416 CURVE",
"356 404 OFFCURVE",
"353 393 OFFCURVE",
"349 382 CURVE SMOOTH",
"342 361 OFFCURVE",
"335 341 OFFCURVE",
"328 320 CURVE SMOOTH",
"325 309 OFFCURVE",
"321 298 OFFCURVE",
"317 286 CURVE",
"360 286 LINE SMOOTH",
"369 286 OFFCURVE",
"379 286 OFFCURVE",
"388 287 CURVE",
"397 287 OFFCURVE",
"407 287 OFFCURVE",
"416 287 CURVE SMOOTH"
);
},
{
closed = 1;
nodes = (
"456 699 LINE",
"444 667 OFFCURVE",
"434 636 OFFCURVE",
"422 604 CURVE SMOOTH",
"411 573 OFFCURVE",
"400 541 OFFCURVE",
"390 509 CURVE",
"401 509 OFFCURVE",
"412 509 OFFCURVE",
"421 509 CURVE SMOOTH",
"431 509 OFFCURVE",
"441 509 OFFCURVE",
"451 509 CURVE SMOOTH",
"460 509 OFFCURVE",
"470 509 OFFCURVE",
"480 510 CURVE",
"490 510 OFFCURVE",
"500 510 OFFCURVE",
"511 510 CURVE",
"534 573 OFFCURVE",
"560 641 OFFCURVE",
"585 702 CURVE",
"595 702 OFFCURVE",
"607 703 OFFCURVE",
"619 704 CURVE SMOOTH",
"631 704 OFFCURVE",
"643 705 OFFCURVE",
"653 706 CURVE",
"672 706 LINE",
"645 641 OFFCURVE",
"619 577 OFFCURVE",
"596 511 CURVE",
"640 512 OFFCURVE",
"693 514 OFFCURVE",
"736 516 CURVE",
"733 501 OFFCURVE",
"730 477 OFFCURVE",
"728 462 CURVE SMOOTH",
"724 433 LINE",
"698 432 OFFCURVE",
"672 432 OFFCURVE",
"646 431 CURVE SMOOTH",
"619 431 OFFCURVE",
"592 431 OFFCURVE",
"566 430 CURVE",
"562 417 OFFCURVE",
"558 405 OFFCURVE",
"554 394 CURVE SMOOTH",
"546 370 OFFCURVE",
"539 347 OFFCURVE",
"532 324 CURVE SMOOTH",
"528 312 OFFCURVE",
"524 300 OFFCURVE",
"520 287 CURVE",
"530 287 OFFCURVE",
"540 287 OFFCURVE",
"549 286 CURVE SMOOTH",
"569 286 OFFCURVE",
"588 285 OFFCURVE",
"619 285 CURVE SMOOTH",
"634 285 OFFCURVE",
"648 285 OFFCURVE",
"660 285 CURVE",
"660 279 OFFCURVE",
"659 273 OFFCURVE",
"659 265 CURVE SMOOTH",
"658 256 OFFCURVE",
"658 250 OFFCURVE",
"657 244 CURVE SMOOTH",
"655 204 LINE",
"637 204 OFFCURVE",
"618 205 OFFCURVE",
"598 205 CURVE SMOOTH",
"577 206 OFFCURVE",
"558 206 OFFCURVE",
"541 206 CURVE SMOOTH",
"532 206 OFFCURVE",
"524 206 OFFCURVE",
"518 207 CURVE SMOOTH",
"511 207 OFFCURVE",
"503 207 OFFCURVE",
"494 207 CURVE",
"487 183 OFFCURVE",
"479 158 OFFCURVE",
"471 135 CURVE SMOOTH",
"468 126 OFFCURVE",
"465 117 OFFCURVE",
"462 106 CURVE SMOOTH",
"456 86 OFFCURVE",
"449 65 OFFCURVE",
"443 45 CURVE",
"440 35 OFFCURVE",
"437 25 OFFCURVE",
"435 17 CURVE",
"423 17 OFFCURVE",
"406 18 OFFCURVE",
"395 18 CURVE SMOOTH",
"349 18 LINE",
"383 125 LINE SMOOTH",
"386 132 OFFCURVE",
"388 140 OFFCURVE",
"391 146 CURVE SMOOTH",
"393 153 OFFCURVE",
"395 160 OFFCURVE",
"397 166 CURVE SMOOTH",
"399 172 OFFCURVE",
"401 179 OFFCURVE",
"403 186 CURVE SMOOTH",
"406 192 OFFCURVE",
"408 200 OFFCURVE",
"411 208 CURVE",
"390 208 OFFCURVE",
"370 208 OFFCURVE",
"351 208 CURVE SMOOTH",
"332 208 OFFCURVE",
"311 207 OFFCURVE",
"289 207 CURVE",
"269 147 OFFCURVE",
"247 89 OFFCURVE",
"224 31 CURVE",
"224 32 LINE",
"218 15 LINE",
"178 13 LINE",
"130 11 LINE",
"157 75 OFFCURVE",
"183 140 OFFCURVE",
"206 206 CURVE",
"183 206 OFFCURVE",
"160 205 OFFCURVE",
"135 204 CURVE SMOOTH",
"110 203 OFFCURVE",
"87 202 OFFCURVE",
"65 202 CURVE",
"66 205 OFFCURVE",
"66 208 OFFCURVE",
"67 212 CURVE SMOOTH",
"67 216 OFFCURVE",
"68 221 OFFCURVE",
"69 225 CURVE SMOOTH",
"69 229 OFFCURVE",
"70 233 OFFCURVE",
"70 238 CURVE SMOOTH",
"71 242 OFFCURVE",
"71 245 OFFCURVE",
"71 248 CURVE SMOOTH",
"72 250 OFFCURVE",
"72 253 OFFCURVE",
"72 256 CURVE",
"73 263 OFFCURVE",
"74 270 OFFCURVE",
"75 276 CURVE SMOOTH",
"76 279 OFFCURVE",
"76 282 OFFCURVE",
"76 284 CURVE",
"162 285 LINE SMOOTH",
"189 285 OFFCURVE",
"207 285 OFFCURVE",
"234 286 CURVE",
"251 336 OFFCURVE",
"265 378 OFFCURVE",
"282 430 CURVE",
"236 430 OFFCURVE",
"183 431 OFFCURVE",
"140 432 CURVE",
"142 467 LINE",
"143 480 OFFCURVE",
"144 500 OFFCURVE",
"144 514 CURVE",
"198 511 OFFCURVE",
"253 510 OFFCURVE",
"307 510 CURVE",
"326 572 OFFCURVE",
"348 638 OFFCURVE",
"368 699 CURVE"
);
}
);
width = 763;
}
);
unicode = 0023;
},
{
glyphname = dollar;
lastChange = "2014-11-05 03:31:07 -0500";
layers = (
{
layerId = "013FA67F-D7C9-4F04-AAC6-32032829ED9A";
name = "Bold Italic";
paths = (
{
closed = 1;
nodes = (
"316 -119 LINE",
"304 -118 OFFCURVE",
"288 -118 OFFCURVE",
"273 -118 CURVE SMOOTH",
"265 -118 OFFCURVE",
"257 -118 OFFCURVE",
"250 -118 CURVE SMOOTH",
"243 -118 OFFCURVE",
"236 -118 OFFCURVE",
"229 -118 CURVE",
"235 -88 LINE SMOOTH",
"237 -78 OFFCURVE",
"239 -69 OFFCURVE",
"240 -60 CURVE SMOOTH",
"243 -42 OFFCURVE",
"246 -25 OFFCURVE",
"249 -7 CURVE SMOOTH",
"250 1 OFFCURVE",
"252 11 OFFCURVE",
"254 21 CURVE",
"193 24 OFFCURVE",
"133 34 OFFCURVE",
"72 59 CURVE",
"78 100 LINE",
"79 105 OFFCURVE",
"80 112 OFFCURVE",
"81 120 CURVE",
"81 127 OFFCURVE",
"82 134 OFFCURVE",
"83 142 CURVE SMOOTH",
"84 149 OFFCURVE",
"85 157 OFFCURVE",
"86 165 CURVE",
"86 172 OFFCURVE",
"87 178 OFFCURVE",
"88 184 CURVE",
"145 145 OFFCURVE",
"205 125 OFFCURVE",
"266 123 CURVE",
"275 208 LINE",
"284 293 LINE",
"237 303 OFFCURVE",
"190 318 OFFCURVE",
"155 354 CURVE SMOOTH",
"126 385 OFFCURVE",
"117 428 OFFCURVE",
"117 471 CURVE",
"119 496 OFFCURVE",
"128 523 OFFCURVE",
"143 546 CURVE SMOOTH",
"158 570 OFFCURVE",
"178 590 OFFCURVE",
"203 603 CURVE",
"245 622 OFFCURVE",
"286 629 OFFCURVE",
"323 632 CURVE",
"326 659 LINE",
"327 665 OFFCURVE",
"328 671 OFFCURVE",
"329 679 CURVE",
"329 686 OFFCURVE",
"330 692 OFFCURVE",
"331 700 CURVE",
"332 714 OFFCURVE",
"333 729 OFFCURVE",
"334 741 CURVE",
"338 741 OFFCURVE",
"342 741 OFFCURVE",
"349 741 CURVE",
"355 741 OFFCURVE",
"359 741 OFFCURVE",
"363 741 CURVE",
"366 740 OFFCURVE",
"371 740 OFFCURVE",
"377 740 CURVE SMOOTH",
"384 740 OFFCURVE",
"388 740 OFFCURVE",
"392 740 CURVE",
"380 633 LINE",
"429 630 OFFCURVE",
"482 625 OFFCURVE",
"538 609 CURVE",
"532 570 LINE",
"526 525 LINE",
"474 553 OFFCURVE",
"422 563 OFFCURVE",
"372 566 CURVE",
"365 501 OFFCURVE",
"358 437 OFFCURVE",
"352 372 CURVE SMOOTH",
"351 362 LINE",
"375 358 OFFCURVE",
"400 352 OFFCURVE",
"424 344 CURVE SMOOTH",
"448 335 OFFCURVE",
"470 324 OFFCURVE",
"489 307 CURVE SMOOTH",
"519 280 OFFCURVE",
"530 237 OFFCURVE",
"530 196 CURVE SMOOTH",
"530 173 OFFCURVE",
"524 148 OFFCURVE",
"513 125 CURVE SMOOTH",
"502 102 OFFCURVE",
"486 81 OFFCURVE",
"467 65 CURVE",
"425 36 OFFCURVE",
"376 24 OFFCURVE",
"329 21 CURVE",
"328 -26 LINE SMOOTH",
"328 -41 OFFCURVE",
"327 -54 OFFCURVE",
"327 -68 CURVE",
"327 -82 OFFCURVE",
"327 -95 OFFCURVE",
"326 -109 CURVE"
);
},
{
closed = 1;
nodes = (
"289 368 LINE",
"289 369 LINE",
"290 369 LINE"
);
},
{
closed = 1;
nodes = (
"190 431 OFFCURVE",
"203 411 OFFCURVE",
"222 396 CURVE SMOOTH",
"240 380 OFFCURVE",
"265 371 OFFCURVE",
"289 369 CURVE",
"291 389 OFFCURVE",
"293 410 OFFCURVE",
"295 430 CURVE SMOOTH",
"297 450 OFFCURVE",
"299 471 OFFCURVE",
"301 492 CURVE SMOOTH",
"303 504 OFFCURVE",
"304 516 OFFCURVE",
"305 526 CURVE SMOOTH",
"306 537 OFFCURVE",
"307 549 OFFCURVE",
"309 562 CURVE",
"278 558 OFFCURVE",
"250 551 OFFCURVE",
"226 531 CURVE SMOOTH",
"202 512 OFFCURVE",
"190 486 OFFCURVE",
"190 457 CURVE SMOOTH"
);
},
{
closed = 1;
nodes = (
"340 284 LINE",
"339 283 OFFCURVE",
"339 281 OFFCURVE",
"339 279 CURVE",
"339 279 OFFCURVE",
"338 279 OFFCURVE",
"338 279 CURVE",
"336 277 LINE"
);
},
{
closed = 1;
nodes = (
"432 220 OFFCURVE",
"420 238 OFFCURVE",
"402 252 CURVE SMOOTH",
"385 266 OFFCURVE",
"361 275 OFFCURVE",
"339 279 CURVE",
"337 247 OFFCURVE",
"335 215 OFFCURVE",
"334 184 CURVE SMOOTH",
"331 120 LINE",
"354 124 OFFCURVE",
"378 129 OFFCURVE",
"401 138 CURVE",
"413 142 OFFCURVE",
"421 151 OFFCURVE",
"426 162 CURVE SMOOTH",
"431 173 OFFCURVE",
"432 186 OFFCURVE",
"432 197 CURVE SMOOTH"
);
}
);
width = 623;
}
);
unicode = 0024;
},
{
glyphname = percent;
lastChange = "2014-11-05 03:31:07 -0500";
layers = (
{
layerId = "013FA67F-D7C9-4F04-AAC6-32032829ED9A";
name = "Bold Italic";
paths = (
{
closed = 1;
nodes = (
"707 318 OFFCURVE",
"685 299 OFFCURVE",
"671 272 CURVE SMOOTH",
"658 246 OFFCURVE",
"653 213 OFFCURVE",
"653 187 CURVE SMOOTH",
"653 161 OFFCURVE",
"659 136 OFFCURVE",
"673 118 CURVE SMOOTH",
"687 99 OFFCURVE",
"707 87 OFFCURVE",
"734 87 CURVE SMOOTH",
"766 87 OFFCURVE",
"785 107 OFFCURVE",
"796 134 CURVE SMOOTH",
"808 161 OFFCURVE",
"811 193 OFFCURVE",
"811 216 CURVE SMOOTH",
"811 240 OFFCURVE",
"806 265 OFFCURVE",
"795 285 CURVE SMOOTH",
"784 304 OFFCURVE",
"767 318 OFFCURVE",
"741 318 CURVE SMOOTH"
);
},
{
closed = 1;
nodes = (
"790 387 OFFCURVE",
"832 371 OFFCURVE",
"857 333 CURVE",
"856 334 LINE",
"884 295 OFFCURVE",
"892 247 OFFCURVE",
"892 199 CURVE SMOOTH",
"892 174 OFFCURVE",
"890 146 OFFCURVE",
"883 121 CURVE SMOOTH",
"877 95 OFFCURVE",
"866 69 OFFCURVE",
"848 47 CURVE",
"849 48 LINE",
"835 30 OFFCURVE",
"818 18 OFFCURVE",
"798 10 CURVE SMOOTH",
"779 2 OFFCURVE",
"758 0 OFFCURVE",
"738 0 CURVE SMOOTH",
"689 0 OFFCURVE",
"639 16 OFFCURVE",
"607 56 CURVE",
"608 56 LINE",
"580 88 OFFCURVE",
"570 132 OFFCURVE",
"570 175 CURVE SMOOTH",
"570 202 OFFCURVE",
"574 231 OFFCURVE",
"583 259 CURVE SMOOTH",
"591 287 OFFCURVE",
"604 313 OFFCURVE",
"625 335 CURVE",
"625 334 LINE",
"656 370 OFFCURVE",
"701 387 OFFCURVE",
"745 387 CURVE SMOOTH"
);
},
{
closed = 1;
nodes = (
"294 659 LINE SMOOTH",
"267 659 OFFCURVE",
"247 642 OFFCURVE",
"235 619 CURVE SMOOTH",
"223 596 OFFCURVE",
"217 568 OFFCURVE",
"217 544 CURVE SMOOTH",
"217 538 LINE",
"216 536 OFFCURVE",
"216 534 OFFCURVE",
"216 532 CURVE SMOOTH",
"216 530 OFFCURVE",
"216 528 OFFCURVE",
"216 526 CURVE SMOOTH",
"216 500 OFFCURVE",
"220 473 OFFCURVE",
"231 452 CURVE SMOOTH",
"243 430 OFFCURVE",
"260 415 OFFCURVE",
"289 415 CURVE SMOOTH",
"323 415 OFFCURVE",
"344 438 OFFCURVE",
"357 466 CURVE SMOOTH",
"371 495 OFFCURVE",
"375 529 OFFCURVE",
"375 553 CURVE SMOOTH",
"375 577 OFFCURVE",
"369 603 OFFCURVE",
"356 623 CURVE SMOOTH",
"343 642 OFFCURVE",
"324 657 OFFCURVE",
"299 659 CURVE"
);
},
{
closed = 1;
nodes = (
"770 727 LINE",
"772 727 OFFCURVE",
"776 727 OFFCURVE",
"781 728 CURVE SMOOTH",
"786 728 OFFCURVE",
"792 728 OFFCURVE",
"797 729 CURVE",
"808 729 OFFCURVE",
"818 730 OFFCURVE",
"824 730 CURVE",
"776 670 OFFCURVE",
"728 604 OFFCURVE",
"680 538 CURVE SMOOTH",
"633 472 OFFCURVE",
"586 404 OFFCURVE",
"543 341 CURVE SMOOTH",
"465 228 OFFCURVE",
"386 111 OFFCURVE",
"302 2 CURVE",
"292 1 OFFCURVE",
"280 1 OFFCURVE",
"269 1 CURVE SMOOTH",
"258 0 OFFCURVE",
"247 0 OFFCURVE",
"236 0 CURVE",
"212 0 LINE",
"257 58 OFFCURVE",
"304 121 OFFCURVE",
"349 185 CURVE SMOOTH",
"395 248 OFFCURVE",
"439 312 OFFCURVE",
"481 373 CURVE SMOOTH",
"563 492 OFFCURVE",
"645 612 OFFCURVE",
"733 726 CURVE"
);
},
{
closed = 1;
nodes = (
"300 728 LINE SMOOTH",
"348 726 OFFCURVE",
"391 707 OFFCURVE",
"420 671 CURVE SMOOTH",
"448 638 OFFCURVE",
"458 595 OFFCURVE",
"458 551 CURVE SMOOTH",
"458 524 OFFCURVE",
"454 495 OFFCURVE",
"445 468 CURVE SMOOTH",
"437 440 OFFCURVE",
"423 414 OFFCURVE",
"403 392 CURVE SMOOTH",
"372 358 OFFCURVE",
"330 341 OFFCURVE",
"287 341 CURVE SMOOTH",
"264 341 OFFCURVE",
"241 345 OFFCURVE",
"221 353 CURVE SMOOTH",
"201 361 OFFCURVE",
"183 375 OFFCURVE",
"170 395 CURVE",
"144 434 OFFCURVE",
"137 482 OFFCURVE",
"137 530 CURVE SMOOTH",
"137 555 OFFCURVE",
"139 582 OFFCURVE",
"145 608 CURVE SMOOTH",
"151 634 OFFCURVE",
"162 659 OFFCURVE",
"179 680 CURVE SMOOTH",
"207 713 OFFCURVE",
"248 728 OFFCURVE",
"289 728 CURVE SMOOTH",
"290 728 OFFCURVE",
"291 728 OFFCURVE",
"292 728 CURVE",
"292 728 OFFCURVE",
"293 728 OFFCURVE",
"294 728 CURVE SMOOTH"
);
}
);
width = 988;
}
);
unicode = 0025;
},
{
glyphname = ampersand;
lastChange = "2014-11-05 03:31:07 -0500";
layers = (
{
layerId = "013FA67F-D7C9-4F04-AAC6-32032829ED9A";
name = "Bold Italic";
paths = (
{
closed = 1;
nodes = (
"237 408 LINE",
"230 401 LINE",
"224 408 LINE"
);
},
{
closed = 1;
nodes = (
"230 401 LINE",
"205 378 OFFCURVE",
"182 354 OFFCURVE",
"167 325 CURVE SMOOTH",
"150 296 OFFCURVE",
"141 265 OFFCURVE",
"141 231 CURVE SMOOTH",
"141 188 OFFCURVE",
"158 156 OFFCURVE",
"186 135 CURVE SMOOTH",
"213 114 OFFCURVE",
"250 104 OFFCURVE",
"289 104 CURVE SMOOTH",
"342 104 OFFCURVE",
"397 124 OFFCURVE",
"442 158 CURVE",
"417 186 OFFCURVE",
"394 213 OFFCURVE",
"370 241 CURVE SMOOTH",
"346 269 OFFCURVE",
"322 296 OFFCURVE",
"297 324 CURVE SMOOTH"
);
},
{
closed = 1;
nodes = (
"292 462 LINE",
"334 417 OFFCURVE",
"376 372 OFFCURVE",
"417 325 CURVE SMOOTH",
"512 220 LINE",
"545 271 OFFCURVE",
"558 331 OFFCURVE",
"567 395 CURVE",
"574 395 OFFCURVE",
"581 395 OFFCURVE",
"589 395 CURVE SMOOTH",
"597 395 OFFCURVE",
"605 395 OFFCURVE",
"614 395 CURVE SMOOTH",
"623 395 OFFCURVE",
"631 395 OFFCURVE",
"640 395 CURVE",
"648 395 OFFCURVE",
"655 395 OFFCURVE",
"661 395 CURVE",
"659 385 OFFCURVE",
"657 375 OFFCURVE",
"655 364 CURVE SMOOTH",
"651 342 OFFCURVE",
"646 319 OFFCURVE",
"642 298 CURVE SMOOTH",
"639 287 OFFCURVE",
"637 276 OFFCURVE",
"634 267 CURVE SMOOTH",
"623 225 OFFCURVE",
"604 186 OFFCURVE",
"579 151 CURVE",
"634 89 LINE",
"712 2 LINE",
"703 3 OFFCURVE",
"693 4 OFFCURVE",
"682 5 CURVE",
"670 6 OFFCURVE",
"658 7 OFFCURVE",
"646 8 CURVE SMOOTH",
"633 9 OFFCURVE",
"621 10 OFFCURVE",
"609 10 CURVE SMOOTH",
"598 11 OFFCURVE",
"587 12 OFFCURVE",
"579 12 CURVE",
"515 82 LINE",
"447 29 OFFCURVE",
"367 4 OFFCURVE",
"284 4 CURVE SMOOTH",
"252 4 OFFCURVE",
"221 8 OFFCURVE",
"191 17 CURVE SMOOTH",
"162 26 OFFCURVE",
"134 40 OFFCURVE",
"113 63 CURVE SMOOTH",
"78 98 OFFCURVE",
"63 147 OFFCURVE",
"63 196 CURVE SMOOTH",
"63 247 OFFCURVE",
"78 294 OFFCURVE",
"103 335 CURVE SMOOTH",
"127 377 OFFCURVE",
"162 413 OFFCURVE",
"203 442 CURVE",
"183 476 OFFCURVE",
"167 511 OFFCURVE",
"167 552 CURVE SMOOTH",
"167 574 OFFCURVE",
"171 599 OFFCURVE",
"181 622 CURVE SMOOTH",
"191 644 OFFCURVE",
"205 665 OFFCURVE",
"225 680 CURVE",
"224 679 LINE",
"245 697 OFFCURVE",
"269 708 OFFCURVE",
"293 714 CURVE SMOOTH",
"318 721 OFFCURVE",
"344 723 OFFCURVE",
"369 723 CURVE SMOOTH",
"423 723 OFFCURVE",
"478 708 OFFCURVE",
"531 688 CURVE",
"525 678 OFFCURVE",
"517 664 OFFCURVE",
"508 650 CURVE SMOOTH",
"504 644 OFFCURVE",
"500 637 OFFCURVE",
"496 630 CURVE SMOOTH",
"492 624 OFFCURVE",
"488 618 OFFCURVE",
"485 613 CURVE",
"438 638 OFFCURVE",
"389 659 OFFCURVE",
"336 659 CURVE SMOOTH",
"309 659 OFFCURVE",
"283 651 OFFCURVE",
"264 636 CURVE SMOOTH",
"245 620 OFFCURVE",
"232 598 OFFCURVE",
"232 569 CURVE SMOOTH",
"232 549 OFFCURVE",
"241 529 OFFCURVE",
"252 512 CURVE SMOOTH",
"264 494 OFFCURVE",
"278 478 OFFCURVE",
"292 462 CURVE"
);
}
);
width = 842;
}
);
unicode = 0026;
},
{
glyphname = quotesingle;
lastChange = "2014-11-05 03:31:07 -0500";
layers = (
{
layerId = "013FA67F-D7C9-4F04-AAC6-32032829ED9A";
name = "Bold Italic";
paths = (
{
closed = 1;
nodes = (
"260 714 LINE",
"250 628 OFFCURVE",
"242 533 OFFCURVE",
"237 447 CURVE",
"219 453 OFFCURVE",
"206 456 OFFCURVE",
"195 456 CURVE SMOOTH",
"182 456 OFFCURVE",
"165 453 OFFCURVE",
"146 448 CURVE",
"151 491 OFFCURVE",
"156 540 OFFCURVE",
"161 588 CURVE SMOOTH",
"165 637 OFFCURVE",
"168 686 OFFCURVE",
"170 729 CURVE",
"189 721 OFFCURVE",
"203 719 OFFCURVE",
"214 719 CURVE SMOOTH",
"226 719 OFFCURVE",
"237 721 OFFCURVE",
"249 724 CURVE"
);
}
);
width = 273;
}
);
unicode = 0027;
},
{
glyphname = parenleft;
lastChange = "2014-11-05 03:31:07 -0500";
layers = (
{
layerId = "013FA67F-D7C9-4F04-AAC6-32032829ED9A";
name = "Bold Italic";
paths = (
{
closed = 1;
nodes = (
"375 735 LINE",
"330 672 OFFCURVE",
"288 607 OFFCURVE",
"254 538 CURVE SMOOTH",
"220 469 OFFCURVE",
"195 397 OFFCURVE",
"187 322 CURVE",
"187 323 LINE",
"186 290 OFFCURVE",
"185 257 OFFCURVE",
"185 224 CURVE SMOOTH",
"185 186 OFFCURVE",
"187 150 OFFCURVE",
"189 113 CURVE SMOOTH",
"195 42 OFFCURVE",
"216 -37 OFFCURVE",
"244 -113 CURVE",
"203 -105 OFFCURVE",
"168 -102 OFFCURVE",
"133 -102 CURVE",
"97 4 OFFCURVE",
"83 113 OFFCURVE",
"83 223 CURVE SMOOTH",
"83 259 OFFCURVE",
"84 296 OFFCURVE",
"87 333 CURVE",
"99 409 OFFCURVE",
"126 481 OFFCURVE",
"164 549 CURVE SMOOTH",
"200 618 OFFCURVE",
"247 683 OFFCURVE",
"297 743 CURVE",
"322 743 OFFCURVE",
"344 747 OFFCURVE",
"365 750 CURVE"
);
}
);
width = 398;
}
);
unicode = 0028;
},
{
glyphname = parenright;
lastChange = "2014-11-05 03:31:07 -0500";
layers = (
{
layerId = "013FA67F-D7C9-4F04-AAC6-32032829ED9A";
name = "Bold Italic";
paths = (
{
closed = 1;
nodes = (
"228 555 OFFCURVE",
"212 651 OFFCURVE",
"175 748 CURVE",
"182 747 LINE",
"180 754 LINE",
"206 750 OFFCURVE",
"232 747 OFFCURVE",
"258 745 CURVE",
"281 693 OFFCURVE",
"298 640 OFFCURVE",
"308 586 CURVE SMOOTH",
"318 531 OFFCURVE",
"323 475 OFFCURVE",
"323 416 CURVE SMOOTH",
"323 309 OFFCURVE",
"308 204 OFFCURVE",
"260 106 CURVE SMOOTH",
"226 39 OFFCURVE",
"186 -30 OFFCURVE",
"142 -96 CURVE",
"107 -96 OFFCURVE",
"67 -99 OFFCURVE",
"17 -110 CURVE",
"65 -42 OFFCURVE",
"111 29 OFFCURVE",
"147 102 CURVE SMOOTH",
"184 174 OFFCURVE",
"211 248 OFFCURVE",
"223 322 CURVE",
"223 322 LINE",
"227 363 OFFCURVE",
"228 404 OFFCURVE",
"228 445 CURVE SMOOTH"
);
}
);
width = 386;
}
);
unicode = 0029;
},
{
glyphname = asterisk;
lastChange = "2014-11-05 03:31:07 -0500";
layers = (
{
layerId = "013FA67F-D7C9-4F04-AAC6-32032829ED9A";
name = "Bold Italic";
paths = (
{
closed = 1;
nodes = (
"555 596 LINE",
"504 568 OFFCURVE",
"455 541 OFFCURVE",
"404 514 CURVE",
"396 509 LINE",
"420 495 OFFCURVE",
"446 480 OFFCURVE",
"472 465 CURVE SMOOTH",
"498 449 OFFCURVE",
"523 434 OFFCURVE",
"546 419 CURVE",
"544 416 OFFCURVE",
"542 412 OFFCURVE",
"539 407 CURVE SMOOTH",
"533 397 OFFCURVE",
"526 387 OFFCURVE",
"521 377 CURVE",
"517 373 OFFCURVE",
"515 369 OFFCURVE",
"513 366 CURVE",
"489 382 OFFCURVE",
"465 398 OFFCURVE",
"443 413 CURVE SMOOTH",
"420 428 OFFCURVE",
"396 444 OFFCURVE",
"372 460 CURVE",
"369 426 LINE SMOOTH",
"365 384 OFFCURVE",
"361 334 OFFCURVE",
"359 292 CURVE",
"295 292 LINE",
"296 315 OFFCURVE",
"300 348 OFFCURVE",
"302 372 CURVE SMOOTH",
"303 380 OFFCURVE",
"304 388 OFFCURVE",
"305 395 CURVE SMOOTH",
"305 402 OFFCURVE",
"306 409 OFFCURVE",
"307 416 CURVE",
"308 429 OFFCURVE",
"309 443 OFFCURVE",
"311 460 CURVE",
"297 452 OFFCURVE",
"284 444 OFFCURVE",
"271 436 CURVE SMOOTH",
"257 428 OFFCURVE",
"244 420 OFFCURVE",
"230 412 CURVE SMOOTH",
"151 365 LINE",
"141 390 LINE",
"140 394 OFFCURVE",
"138 398 OFFCURVE",
"135 405 CURVE SMOOTH",
"133 411 OFFCURVE",
"130 416 OFFCURVE",
"129 419 CURVE",
"155 435 OFFCURVE",
"182 450 OFFCURVE",
"211 465 CURVE SMOOTH",
"240 480 OFFCURVE",
"268 496 OFFCURVE",
"294 510 CURVE",
"244 538 OFFCURVE",
"190 570 OFFCURVE",
"144 601 CURVE",
"145 603 OFFCURVE",
"146 604 OFFCURVE",
"147 606 CURVE SMOOTH",
"149 609 OFFCURVE",
"150 611 OFFCURVE",
"152 614 CURVE SMOOTH",
"153 616 OFFCURVE",
"155 618 OFFCURVE",
"156 621 CURVE",
"158 623 OFFCURVE",
"159 624 OFFCURVE",
"160 625 CURVE SMOOTH",
"161 627 OFFCURVE",
"161 628 OFFCURVE",
"161 629 CURVE SMOOTH",
"161 629 OFFCURVE",
"162 631 OFFCURVE",
"163 632 CURVE",
"163 634 OFFCURVE",
"165 636 OFFCURVE",
"167 639 CURVE",
"169 643 OFFCURVE",
"172 647 OFFCURVE",
"178 654 CURVE",
"215 628 OFFCURVE",
"259 599 OFFCURVE",
"297 574 CURVE",
"303 571 OFFCURVE",
"306 569 OFFCURVE",
"308 567 CURVE SMOOTH",
"311 565 OFFCURVE",
"313 563 OFFCURVE",
"319 560 CURVE",
"325 632 LINE",
"333 729 LINE",
"397 729 LINE",
"391 670 OFFCURVE",
"385 618 OFFCURVE",
"380 560 CURVE",
"406 575 OFFCURVE",
"433 590 OFFCURVE",
"460 607 CURVE SMOOTH",
"488 624 OFFCURVE",
"514 640 OFFCURVE",
"539 655 CURVE",
"542 649 OFFCURVE",
"545 641 OFFCURVE",
"549 632 CURVE",
"552 622 OFFCURVE",
"556 614 OFFCURVE",
"559 607 CURVE"
);
}
);
width = 588;
}
);
unicode = 002A;
},
{
glyphname = plus;
lastChange = "2014-11-05 03:31:07 -0500";
layers = (
{
layerId = "013FA67F-D7C9-4F04-AAC6-32032829ED9A";
name = "Bold Italic";
paths = (
{
closed = 1;
nodes = (
"451 612 LINE",
"441 527 OFFCURVE",
"433 443 OFFCURVE",
"426 357 CURVE",
"506 357 OFFCURVE",
"593 358 OFFCURVE",
"673 359 CURVE",
"666 270 LINE",
"624 270 OFFCURVE",
"583 271 OFFCURVE",
"542 271 CURVE SMOOTH",
"500 271 OFFCURVE",
"459 271 OFFCURVE",
"417 271 CURVE",
"410 188 OFFCURVE",
"404 99 OFFCURVE",
"398 16 CURVE",
"309 16 LINE",
"315 87 LINE SMOOTH",
"317 100 OFFCURVE",
"318 114 OFFCURVE",
"320 130 CURVE SMOOTH",
"321 146 OFFCURVE",
"323 162 OFFCURVE",
"324 178 CURVE SMOOTH",
"328 210 OFFCURVE",
"331 243 OFFCURVE",
"333 271 CURVE",
"313 271 OFFCURVE",
"294 271 OFFCURVE",
"276 271 CURVE SMOOTH",
"257 270 OFFCURVE",
"238 270 OFFCURVE",
"219 270 CURVE SMOOTH",
"209 270 OFFCURVE",
"198 270 OFFCURVE",
"187 270 CURVE",
"175 270 OFFCURVE",
"163 270 OFFCURVE",
"151 270 CURVE SMOOTH",
"139 270 OFFCURVE",
"127 270 OFFCURVE",
"116 270 CURVE SMOOTH",
"104 270 OFFCURVE",
"94 270 OFFCURVE",
"84 270 CURVE",
"92 360 LINE",
"176 358 OFFCURVE",
"257 358 OFFCURVE",
"340 358 CURVE",
"352 500 LINE",
"361 612 LINE"
);
}
);
width = 739;
}
);
unicode = 002B;
},
{
glyphname = comma;
lastChange = "2014-11-05 03:31:07 -0500";
layers = (
{
layerId = "013FA67F-D7C9-4F04-AAC6-32032829ED9A";
name = "Bold Italic";
paths = (
{
closed = 1;
nodes = (
"70 126 LINE",
"75 125 OFFCURVE",
"80 125 OFFCURVE",
"84 125 CURVE SMOOTH",
"88 125 OFFCURVE",
"93 125 OFFCURVE",
"99 125 CURVE SMOOTH",
"126 125 OFFCURVE",
"157 127 OFFCURVE",
"192 132 CURVE",
"189 116 OFFCURVE",
"187 97 OFFCURVE",
"184 77 CURVE SMOOTH",
"181 58 OFFCURVE",
"178 39 OFFCURVE",
"176 23 CURVE",
"155 -6 LINE SMOOTH",
"140 -26 OFFCURVE",
"124 -46 OFFCURVE",
"108 -67 CURVE SMOOTH",
"92 -88 OFFCURVE",
"75 -109 OFFCURVE",
"59 -128 CURVE",
"55 -128 OFFCURVE",
"50 -128 OFFCURVE",
"43 -129 CURVE SMOOTH",
"31 -130 OFFCURVE",
"17 -131 OFFCURVE",
"3 -133 CURVE SMOOTH",
"-3 -133 OFFCURVE",
"-8 -134 OFFCURVE",
"-13 -135 CURVE",
"-4 -116 OFFCURVE",
"6 -93 OFFCURVE",
"16 -70 CURVE SMOOTH",
"25 -47 OFFCURVE",
"35 -24 OFFCURVE",
"42 -4 CURVE SMOOTH",
"54 25 LINE",
"56 56 OFFCURVE",
"58 86 OFFCURVE",
"60 117 CURVE"
);
}
);
width = 302;
}
);
unicode = 002C;
},
{
glyphname = hyphen;
lastChange = "2014-11-05 03:31:07 -0500";
layers = (
{
layerId = "013FA67F-D7C9-4F04-AAC6-32032829ED9A";
name = "Bold Italic";
paths = (
{
closed = 1;
nodes = (
"93 320 LINE",
"96 320 OFFCURVE",
"99 320 OFFCURVE",
"102 320 CURVE",
"104 319 OFFCURVE",
"107 319 OFFCURVE",
"110 319 CURVE SMOOTH",
"126 319 LINE SMOOTH",
"157 319 OFFCURVE",
"187 320 OFFCURVE",
"216 321 CURVE SMOOTH",
"246 322 OFFCURVE",
"275 323 OFFCURVE",
"306 324 CURVE SMOOTH",
"355 325 LINE",
"342 303 OFFCURVE",
"334 282 OFFCURVE",
"334 267 CURVE SMOOTH",
"334 260 OFFCURVE",
"336 250 OFFCURVE",
"340 237 CURVE",
"299 237 OFFCURVE",
"251 237 OFFCURVE",
"203 236 CURVE SMOOTH",
"154 235 OFFCURVE",
"106 234 OFFCURVE",
"65 232 CURVE",
"79 256 OFFCURVE",
"86 276 OFFCURVE",
"86 291 CURVE SMOOTH",
"86 298 OFFCURVE",
"85 304 OFFCURVE",
"84 309 CURVE"
);
}
);
width = 420;
}
);
unicode = 002D;
},
{
glyphname = period;
lastChange = "2014-11-05 03:31:07 -0500";
layers = (
{
layerId = "013FA67F-D7C9-4F04-AAC6-32032829ED9A";
name = "Bold Italic";
paths = (
{
closed = 1;
nodes = (
"60 168 LINE",
"81 167 OFFCURVE",
"101 166 OFFCURVE",
"121 166 CURVE SMOOTH",
"132 166 OFFCURVE",
"147 166 OFFCURVE",
"163 167 CURVE SMOOTH",
"170 167 OFFCURVE",
"178 167 OFFCURVE",
"185 168 CURVE SMOOTH",
"192 168 OFFCURVE",
"199 169 OFFCURVE",
"205 169 CURVE",
"193 119 OFFCURVE",
"188 74 OFFCURVE",
"188 34 CURVE SMOOTH",
"188 32 OFFCURVE",
"188 30 OFFCURVE",
"189 27 CURVE",
"189 24 OFFCURVE",
"189 21 OFFCURVE",
"189 19 CURVE SMOOTH",
"189 16 OFFCURVE",
"189 13 OFFCURVE",
"189 10 CURVE",
"189 7 OFFCURVE",
"189 5 OFFCURVE",
"189 4 CURVE",
"160 6 OFFCURVE",
"135 8 OFFCURVE",
"113 8 CURVE SMOOTH",
"90 8 OFFCURVE",
"64 6 OFFCURVE",
"34 4 CURVE",
"44 53 OFFCURVE",
"49 99 OFFCURVE",
"49 141 CURVE SMOOTH",
"49 159 LINE"
);
}
);
width = 319;
}
);
unicode = 002E;
},
{
glyphname = slash;
lastChange = "2014-11-05 03:31:07 -0500";
layers = (
{
layerId = "013FA67F-D7C9-4F04-AAC6-32032829ED9A";
name = "Bold Italic";
paths = (
{
closed = 1;
nodes = (
"352 705 LINE",
"357 706 OFFCURVE",
"363 706 OFFCURVE",
"370 707 CURVE SMOOTH",
"376 708 OFFCURVE",
"383 709 OFFCURVE",
"391 710 CURVE SMOOTH",
"398 711 OFFCURVE",
"405 712 OFFCURVE",
"412 713 CURVE SMOOTH",
"418 714 OFFCURVE",
"424 715 OFFCURVE",
"430 715 CURVE",
"372 579 OFFCURVE",
"314 427 OFFCURVE",
"261 289 CURVE SMOOTH",
"215 167 OFFCURVE",
"167 43 OFFCURVE",
"118 -77 CURVE",
"84 -78 OFFCURVE",
"49 -81 OFFCURVE",
"-3 -88 CURVE",
"26 -25 OFFCURVE",
"56 42 OFFCURVE",
"85 109 CURVE SMOOTH",
"115 177 OFFCURVE",
"144 244 OFFCURVE",
"171 308 CURVE SMOOTH",
"185 339 OFFCURVE",
"199 371 OFFCURVE",
"213 404 CURVE SMOOTH",
"241 471 OFFCURVE",
"271 538 OFFCURVE",
"300 604 CURVE SMOOTH",
"315 637 OFFCURVE",
"330 668 OFFCURVE",
"344 699 CURVE"
);
}
);
width = 408;
}
);
unicode = 002F;
},
{
glyphname = zero;
lastChange = "2014-11-05 03:31:07 -0500";
layers = (
{
layerId = "013FA67F-D7C9-4F04-AAC6-32032829ED9A";
name = "Bold Italic";
paths = (
{
closed = 1;
nodes = (
"358 676 LINE SMOOTH",
"333 676 OFFCURVE",
"308 667 OFFCURVE",
"287 651 CURVE SMOOTH",
"266 635 OFFCURVE",
"249 613 OFFCURVE",
"240 588 CURVE",
"224 548 OFFCURVE",
"215 507 OFFCURVE",
"210 467 CURVE SMOOTH",
"205 427 OFFCURVE",
"204 387 OFFCURVE",
"204 350 CURVE SMOOTH",
"204 311 OFFCURVE",
"207 274 OFFCURVE",
"220 239 CURVE SMOOTH",
"233 204 OFFCURVE",
"268 184 OFFCURVE",
"306 184 CURVE SMOOTH",
"311 184 LINE SMOOTH",
"311 184 OFFCURVE",
"312 184 OFFCURVE",
"312 184 CURVE",
"313 184 OFFCURVE",
"313 184 OFFCURVE",
"313 184 CURVE SMOOTH",
"317 184 LINE SMOOTH",
"355 184 OFFCURVE",
"385 201 OFFCURVE",
"407 229 CURVE SMOOTH",
"430 255 OFFCURVE",
"445 292 OFFCURVE",
"457 330 CURVE SMOOTH",
"468 368 OFFCURVE",
"474 407 OFFCURVE",
"478 439 CURVE SMOOTH",
"481 472 OFFCURVE",
"481 497 OFFCURVE",
"481 507 CURVE SMOOTH",
"481 532 OFFCURVE",
"480 556 OFFCURVE",
"475 581 CURVE",
"471 608 OFFCURVE",
"458 632 OFFCURVE",
"441 649 CURVE SMOOTH",
"423 667 OFFCURVE",
"399 676 OFFCURVE",
"374 676 CURVE SMOOTH",
"374 676 OFFCURVE",
"373 676 OFFCURVE",
"372 676 CURVE",
"371 676 OFFCURVE",
"370 676 OFFCURVE",
"370 676 CURVE SMOOTH"
);
},
{
closed = 1;
nodes = (
"375 723 LINE SMOOTH",
"407 723 OFFCURVE",
"440 715 OFFCURVE",
"469 701 CURVE SMOOTH",
"497 687 OFFCURVE",
"521 666 OFFCURVE",
"535 636 CURVE SMOOTH",
"563 577 OFFCURVE",
"570 513 OFFCURVE",
"570 450 CURVE SMOOTH",
"570 421 OFFCURVE",
"569 391 OFFCURVE",
"567 363 CURVE",
"561 319 OFFCURVE",
"554 274 OFFCURVE",
"543 229 CURVE SMOOTH",
"531 185 OFFCURVE",
"515 142 OFFCURVE",
"489 102 CURVE SMOOTH",
"466 69 OFFCURVE",
"438 45 OFFCURVE",
"405 29 CURVE SMOOTH",
"373 13 OFFCURVE",
"338 5 OFFCURVE",
"304 5 CURVE SMOOTH",
"289 5 LINE SMOOTH",
"256 5 OFFCURVE",
"225 12 OFFCURVE",
"196 26 CURVE SMOOTH",
"168 41 OFFCURVE",
"145 62 OFFCURVE",
"129 91 CURVE SMOOTH",
"101 149 OFFCURVE",
"94 210 OFFCURVE",
"94 272 CURVE SMOOTH",
"94 304 OFFCURVE",
"95 335 OFFCURVE",
"97 365 CURVE",
"103 407 OFFCURVE",
"111 453 OFFCURVE",
"123 498 CURVE SMOOTH",
"134 542 OFFCURVE",
"151 586 OFFCURVE",
"176 625 CURVE SMOOTH",
"198 657 OFFCURVE",
"228 681 OFFCURVE",
"261 698 CURVE SMOOTH",
"293 714 OFFCURVE",
"329 723 OFFCURVE",
"362 723 CURVE SMOOTH"
);
},
{
closed = 1;
nodes = (
"367 324 OFFCURVE",
"382 373 OFFCURVE",
"386 410 CURVE SMOOTH",
"393 480 OFFCURVE",
"388 523 OFFCURVE",
"346 523 CURVE SMOOTH",
"300 523 OFFCURVE",
"289 467 OFFCURVE",
"283 410 CURVE SMOOTH",
"279 373 OFFCURVE",
"284 324 OFFCURVE",
"326 324 CURVE SMOOTH"
);
}
);
width = 625;
}
);
unicode = 0030;
},
{
glyphname = one;
lastChange = "2014-11-05 03:31:07 -0500";
layers = (
{
layerId = "013FA67F-D7C9-4F04-AAC6-32032829ED9A";
name = "Bold Italic";
paths = (
{
closed = 1;
nodes = (
"143 149 LINE",
"193 153 OFFCURVE",
"236 155 OFFCURVE",
"287 156 CURVE",
"291 195 OFFCURVE",
"294 234 OFFCURVE",
"297 272 CURVE SMOOTH",
"301 310 OFFCURVE",
"304 348 OFFCURVE",
"307 385 CURVE SMOOTH",
"313 460 OFFCURVE",
"320 536 OFFCURVE",
"326 614 CURVE",
"276 605 OFFCURVE",
"217 598 OFFCURVE",
"161 593 CURVE",
"161 606 OFFCURVE",
"162 624 OFFCURVE",
"162 642 CURVE SMOOTH",
"162 650 OFFCURVE",
"162 659 OFFCURVE",
"163 668 CURVE",
"163 676 OFFCURVE",
"163 684 OFFCURVE",
"163 690 CURVE",
"221 694 OFFCURVE",
"272 701 OFFCURVE",
"324 709 CURVE SMOOTH",
"337 711 LINE",
"345 710 OFFCURVE",
"353 710 OFFCURVE",
"360 710 CURVE SMOOTH",
"368 710 OFFCURVE",
"375 710 OFFCURVE",
"383 710 CURVE SMOOTH",
"387 710 OFFCURVE",
"391 710 OFFCURVE",
"396 710 CURVE SMOOTH",
"406 710 OFFCURVE",
"417 711 OFFCURVE",
"426 711 CURVE",
"431 711 OFFCURVE",
"436 711 OFFCURVE",
"439 712 CURVE",
"418 526 OFFCURVE",
"401 342 OFFCURVE",
"388 156 CURVE",
"436 154 OFFCURVE",
"491 151 OFFCURVE",
"538 147 CURVE",
"536 111 OFFCURVE",
"535 66 OFFCURVE",
"535 31 CURVE SMOOTH",
"535 3 LINE",
"461 13 OFFCURVE",
"391 19 OFFCURVE",
"323 19 CURVE SMOOTH",
"257 19 OFFCURVE",
"188 14 OFFCURVE",
"114 5 CURVE",
"118 25 OFFCURVE",
"121 49 OFFCURVE",
"125 73 CURVE SMOOTH",
"128 96 OFFCURVE",
"131 120 OFFCURVE",
"134 141 CURVE"
);
}
);
width = 665;
}
);
unicode = 0031;
},
{
glyphname = two;
lastChange = "2014-11-05 03:31:07 -0500";
layers = (
{
layerId = "013FA67F-D7C9-4F04-AAC6-32032829ED9A";
name = "Bold Italic";
paths = (
{
closed = 1;
nodes = (
"417 274 LINE",
"383 241 OFFCURVE",
"351 204 OFFCURVE",
"335 161 CURVE",
"406 161 OFFCURVE",
"479 159 OFFCURVE",
"558 152 CURVE",
"558 141 OFFCURVE",
"557 129 OFFCURVE",
"557 117 CURVE",
"557 104 OFFCURVE",
"557 91 OFFCURVE",
"556 78 CURVE SMOOTH",
"556 64 OFFCURVE",
"556 51 OFFCURVE",
"556 39 CURVE SMOOTH",
"556 26 OFFCURVE",
"556 14 OFFCURVE",
"556 3 CURVE",
"477 13 OFFCURVE",
"402 18 OFFCURVE",
"330 18 CURVE SMOOTH",
"255 18 OFFCURVE",
"177 13 OFFCURVE",
"94 3 CURVE",
"96 14 OFFCURVE",
"98 26 OFFCURVE",
"100 39 CURVE SMOOTH",
"102 51 OFFCURVE",
"104 63 OFFCURVE",
"106 77 CURVE SMOOTH",
"110 103 OFFCURVE",
"114 128 OFFCURVE",
"117 150 CURVE",
"169 195 OFFCURVE",
"227 240 OFFCURVE",
"282 281 CURVE SMOOTH",
"321 308 OFFCURVE",
"359 335 OFFCURVE",
"392 369 CURVE",
"417 396 OFFCURVE",
"442 422 OFFCURVE",
"459 452 CURVE SMOOTH",
"474 477 OFFCURVE",
"483 505 OFFCURVE",
"483 533 CURVE SMOOTH",
"483 567 OFFCURVE",
"469 593 OFFCURVE",
"447 610 CURVE SMOOTH",
"425 626 OFFCURVE",
"394 634 OFFCURVE",
"363 634 CURVE SMOOTH",
"298 634 OFFCURVE",
"228 612 OFFCURVE",
"159 581 CURVE",
"159 588 OFFCURVE",
"160 596 OFFCURVE",
"160 605 CURVE SMOOTH",
"161 624 OFFCURVE",
"162 645 OFFCURVE",
"162 663 CURVE SMOOTH",
"162 672 OFFCURVE",
"162 680 OFFCURVE",
"162 688 CURVE",
"232 705 OFFCURVE",
"301 723 OFFCURVE",
"367 723 CURVE SMOOTH",
"397 723 OFFCURVE",
"429 720 OFFCURVE",
"458 712 CURVE SMOOTH",
"488 704 OFFCURVE",
"516 692 OFFCURVE",
"539 673 CURVE",
"572 644 OFFCURVE",
"587 601 OFFCURVE",
"587 558 CURVE SMOOTH",
"587 518 OFFCURVE",
"577 482 OFFCURVE",
"561 448 CURVE SMOOTH",
"545 414 OFFCURVE",
"521 382 OFFCURVE",
"496 351 CURVE",
"480 335 LINE SMOOTH",
"470 325 OFFCURVE",
"459 315 OFFCURVE",
"449 305 CURVE SMOOTH",
"439 294 OFFCURVE",
"428 284 OFFCURVE",
"417 273 CURVE"
);
}
);
width = 686;
}
);
unicode = 0032;
},
{
glyphname = three;
lastChange = "2014-11-05 03:31:07 -0500";
layers = (
{
layerId = "013FA67F-D7C9-4F04-AAC6-32032829ED9A";
name = "Bold Italic";
paths = (
{
closed = 1;
nodes = (
"581 533 OFFCURVE",
"569 495 OFFCURVE",
"548 463 CURVE SMOOTH",
"527 431 OFFCURVE",
"496 406 OFFCURVE",
"459 393 CURVE",
"490 386 OFFCURVE",
"518 371 OFFCURVE",
"536 344 CURVE SMOOTH",
"555 314 OFFCURVE",
"564 280 OFFCURVE",
"564 243 CURVE SMOOTH",
"564 211 OFFCURVE",
"561 177 OFFCURVE",
"549 144 CURVE SMOOTH",
"538 111 OFFCURVE",
"519 82 OFFCURVE",
"490 60 CURVE SMOOTH",
"455 34 OFFCURVE",
"415 21 OFFCURVE",
"376 13 CURVE SMOOTH",
"336 5 OFFCURVE",
"297 4 OFFCURVE",
"260 4 CURVE SMOOTH",
"203 4 OFFCURVE",
"145 12 OFFCURVE",
"85 27 CURVE",
"89 51 OFFCURVE",
"94 80 OFFCURVE",
"98 108 CURVE SMOOTH",
"100 122 OFFCURVE",
"102 136 OFFCURVE",
"104 150 CURVE SMOOTH",
"105 164 OFFCURVE",
"107 176 OFFCURVE",
"108 188 CURVE",
"165 157 OFFCURVE",
"221 147 OFFCURVE",
"276 147 CURVE SMOOTH",
"300 147 OFFCURVE",
"326 148 OFFCURVE",
"350 154 CURVE SMOOTH",
"375 160 OFFCURVE",
"397 169 OFFCURVE",
"417 185 CURVE",
"428 193 OFFCURVE",
"440 203 OFFCURVE",
"450 214 CURVE SMOOTH",
"459 225 OFFCURVE",
"466 237 OFFCURVE",
"466 251 CURVE SMOOTH",
"466 280 OFFCURVE",
"452 304 OFFCURVE",
"433 321 CURVE",
"416 335 OFFCURVE",
"396 344 OFFCURVE",
"374 349 CURVE SMOOTH",
"352 353 OFFCURVE",
"328 354 OFFCURVE",
"306 354 CURVE SMOOTH",
"241 354 LINE",
"243 386 LINE SMOOTH",
"244 394 OFFCURVE",
"245 403 OFFCURVE",
"246 413 CURVE",
"246 423 OFFCURVE",
"247 433 OFFCURVE",
"248 440 CURVE",
"251 440 OFFCURVE",
"255 440 OFFCURVE",
"260 440 CURVE SMOOTH",
"265 440 OFFCURVE",
"270 440 OFFCURVE",
"274 440 CURVE",
"279 439 OFFCURVE",
"284 439 OFFCURVE",
"289 439 CURVE SMOOTH",
"293 439 OFFCURVE",
"297 439 OFFCURVE",
"301 439 CURVE",
"309 439 OFFCURVE",
"316 439 OFFCURVE",
"324 439 CURVE SMOOTH",
"331 439 OFFCURVE",
"339 439 OFFCURVE",
"346 439 CURVE SMOOTH",
"381 439 OFFCURVE",
"414 450 OFFCURVE",
"438 470 CURVE SMOOTH",
"463 490 OFFCURVE",
"479 520 OFFCURVE",
"479 558 CURVE SMOOTH",
"479 594 OFFCURVE",
"458 616 OFFCURVE",
"432 628 CURVE SMOOTH",
"406 640 OFFCURVE",
"373 644 OFFCURVE",
"349 644 CURVE SMOOTH",
"290 644 OFFCURVE",
"227 633 OFFCURVE",
"163 618 CURVE",
"163 623 OFFCURVE",
"163 630 OFFCURVE",
"164 637 CURVE",
"164 645 OFFCURVE",
"164 652 OFFCURVE",
"164 660 CURVE SMOOTH",
"165 676 OFFCURVE",
"165 691 OFFCURVE",
"165 703 CURVE",
"233 714 OFFCURVE",
"299 723 OFFCURVE",
"362 723 CURVE SMOOTH",
"395 723 OFFCURVE",
"430 720 OFFCURVE",
"462 711 CURVE SMOOTH",
"495 702 OFFCURVE",
"524 688 OFFCURVE",
"546 666 CURVE SMOOTH",
"567 643 OFFCURVE",
"581 612 OFFCURVE",
"581 571 CURVE SMOOTH"
);
}
);
width = 651;
}
);
unicode = 0033;
},
{
glyphname = four;
lastChange = "2014-11-05 03:31:07 -0500";
layers = (
{
layerId = "013FA67F-D7C9-4F04-AAC6-32032829ED9A";
name = "Bold Italic";
paths = (
{
closed = 1;
nodes = (
"431 667 LINE",
"409 638 LINE",
"410 650 OFFCURVE",
"412 661 OFFCURVE",
"414 674 CURVE"
);
},
{
closed = 1;
nodes = (
"384 411 OFFCURVE",
"395 523 OFFCURVE",
"409 638 CURVE",
"366 580 OFFCURVE",
"326 525 OFFCURVE",
"286 469 CURVE SMOOTH",
"246 413 OFFCURVE",
"205 356 OFFCURVE",
"164 296 CURVE",
"199 297 OFFCURVE",
"234 297 OFFCURVE",
"268 297 CURVE SMOOTH",
"302 298 OFFCURVE",
"336 298 OFFCURVE",
"373 298 CURVE"
);
},
{
closed = 1;
nodes = (
"399 711 LINE",
"418 711 OFFCURVE",
"439 712 OFFCURVE",
"461 713 CURVE SMOOTH",
"483 714 OFFCURVE",
"504 715 OFFCURVE",
"524 715 CURVE",
"504 575 OFFCURVE",
"491 437 OFFCURVE",
"481 297 CURVE",
"497 297 OFFCURVE",
"515 296 OFFCURVE",
"531 296 CURVE SMOOTH",
"533 296 OFFCURVE",
"537 296 OFFCURVE",
"541 296 CURVE SMOOTH",
"544 296 OFFCURVE",
"548 296 OFFCURVE",
"552 296 CURVE",
"556 295 OFFCURVE",
"560 295 OFFCURVE",
"563 295 CURVE SMOOTH",
"567 295 OFFCURVE",
"569 295 OFFCURVE",
"571 295 CURVE",
"570 283 OFFCURVE",
"568 262 OFFCURVE",
"568 250 CURVE",
"567 244 OFFCURVE",
"567 236 OFFCURVE",
"567 228 CURVE",
"566 218 OFFCURVE",
"566 211 OFFCURVE",
"566 206 CURVE",
"551 206 OFFCURVE",
"536 207 OFFCURVE",
"521 208 CURVE SMOOTH",
"505 208 OFFCURVE",
"490 208 OFFCURVE",
"475 209 CURVE",
"475 200 OFFCURVE",
"475 190 OFFCURVE",
"475 181 CURVE SMOOTH",
"475 172 OFFCURVE",
"475 163 OFFCURVE",
"475 153 CURVE SMOOTH",
"475 109 OFFCURVE",
"476 56 OFFCURVE",
"477 12 CURVE",
"458 13 OFFCURVE",
"433 15 OFFCURVE",
"408 16 CURVE SMOOTH",
"396 16 OFFCURVE",
"383 17 OFFCURVE",
"371 17 CURVE SMOOTH",
"359 18 OFFCURVE",
"348 18 OFFCURVE",
"338 18 CURVE",
"348 104 LINE SMOOTH",
"352 143 OFFCURVE",
"354 172 OFFCURVE",
"360 211 CURVE",
"321 211 LINE SMOOTH",
"240 211 OFFCURVE",
"148 209 OFFCURVE",
"65 206 CURVE",
"67 215 OFFCURVE",
"68 227 OFFCURVE",
"70 239 CURVE SMOOTH",
"71 251 OFFCURVE",
"72 263 OFFCURVE",
"74 272 CURVE",
"177 419 OFFCURVE",
"282 564 OFFCURVE",
"391 707 CURVE"
);
}
);
width = 653;
}
);
unicode = 0034;
},
{
glyphname = five;
lastChange = "2014-11-05 03:31:07 -0500";
layers = (
{
layerId = "013FA67F-D7C9-4F04-AAC6-32032829ED9A";
name = "Bold Italic";
paths = (
{
closed = 1;
nodes = (
"178 720 LINE",
"240 713 OFFCURVE",
"303 709 OFFCURVE",
"367 709 CURVE SMOOTH",
"424 709 OFFCURVE",
"486 713 OFFCURVE",
"556 719 CURVE",
"543 638 LINE",
"482 632 OFFCURVE",
"424 630 OFFCURVE",
"365 630 CURVE SMOOTH",
"324 630 OFFCURVE",
"292 631 OFFCURVE",
"251 633 CURVE",
"250 604 OFFCURVE",
"249 577 OFFCURVE",
"247 550 CURVE SMOOTH",
"246 536 OFFCURVE",
"245 522 OFFCURVE",
"245 509 CURVE SMOOTH",
"244 495 OFFCURVE",
"243 480 OFFCURVE",
"241 466 CURVE",
"269 472 OFFCURVE",
"296 478 OFFCURVE",
"324 478 CURVE SMOOTH",
"356 478 OFFCURVE",
"389 474 OFFCURVE",
"419 464 CURVE SMOOTH",
"450 454 OFFCURVE",
"477 438 OFFCURVE",
"500 415 CURVE SMOOTH",
"538 374 OFFCURVE",
"553 318 OFFCURVE",
"553 261 CURVE SMOOTH",
"553 228 OFFCURVE",
"548 189 OFFCURVE",
"536 154 CURVE SMOOTH",
"524 119 OFFCURVE",
"504 85 OFFCURVE",
"473 62 CURVE SMOOTH",
"442 38 OFFCURVE",
"407 23 OFFCURVE",
"370 15 CURVE SMOOTH",
"333 6 OFFCURVE",
"295 4 OFFCURVE",
"259 4 CURVE SMOOTH",
"201 4 OFFCURVE",
"142 8 OFFCURVE",
"79 23 CURVE",
"83 46 OFFCURVE",
"88 75 OFFCURVE",
"92 103 CURVE SMOOTH",
"96 131 OFFCURVE",
"100 159 OFFCURVE",
"103 182 CURVE",
"158 153 OFFCURVE",
"215 142 OFFCURVE",
"270 142 CURVE SMOOTH",
"292 142 OFFCURVE",
"316 144 OFFCURVE",
"339 150 CURVE SMOOTH",
"361 156 OFFCURVE",
"383 167 OFFCURVE",
"401 182 CURVE SMOOTH",
"415 194 OFFCURVE",
"427 207 OFFCURVE",
"435 221 CURVE SMOOTH",
"443 235 OFFCURVE",
"449 252 OFFCURVE",
"449 271 CURVE SMOOTH",
"449 305 OFFCURVE",
"437 340 OFFCURVE",
"412 361 CURVE",
"378 385 OFFCURVE",
"339 391 OFFCURVE",
"303 391 CURVE SMOOTH",
"255 391 OFFCURVE",
"203 378 OFFCURVE",
"148 354 CURVE",
"153 411 OFFCURVE",
"157 472 OFFCURVE",
"161 533 CURVE SMOOTH",
"164 593 OFFCURVE",
"167 654 OFFCURVE",
"167 710 CURVE"
);
}
);
width = 636;
}
);
unicode = 0035;
},
{
glyphname = six;
lastChange = "2014-11-05 03:31:07 -0500";
layers = (
{
layerId = "013FA67F-D7C9-4F04-AAC6-32032829ED9A";
name = "Bold Italic";
paths = (
{
closed = 1;
nodes = (
"308 396 OFFCURVE",
"272 382 OFFCURVE",
"247 354 CURVE SMOOTH",
"231 337 OFFCURVE",
"220 316 OFFCURVE",
"212 294 CURVE SMOOTH",
"205 272 OFFCURVE",
"200 249 OFFCURVE",
"200 228 CURVE SMOOTH",
"200 197 OFFCURVE",
"217 176 OFFCURVE",
"241 164 CURVE SMOOTH",
"265 152 OFFCURVE",
"295 147 OFFCURVE",
"324 147 CURVE SMOOTH",
"353 147 OFFCURVE",
"384 155 OFFCURVE",
"410 171 CURVE SMOOTH",
"435 187 OFFCURVE",
"453 210 OFFCURVE",
"456 241 CURVE",
"456 251 LINE SMOOTH",
"456 253 OFFCURVE",
"456 255 OFFCURVE",
"457 257 CURVE",
"457 259 OFFCURVE",
"457 261 OFFCURVE",
"457 263 CURVE SMOOTH",
"457 296 OFFCURVE",
"451 329 OFFCURVE",
"431 355 CURVE",
"412 383 OFFCURVE",
"378 396 OFFCURVE",
"343 396 CURVE SMOOTH"
);
},
{
closed = 1;
nodes = (
"555 696 LINE",
"564 697 LINE",
"560 670 OFFCURVE",
"554 633 OFFCURVE",
"551 606 CURVE",
"504 625 OFFCURVE",
"459 635 OFFCURVE",
"417 635 CURVE SMOOTH",
"391 635 OFFCURVE",
"363 631 OFFCURVE",
"337 622 CURVE SMOOTH",
"312 613 OFFCURVE",
"288 599 OFFCURVE",
"270 576 CURVE SMOOTH",
"249 550 OFFCURVE",
"235 523 OFFCURVE",
"225 495 CURVE SMOOTH",
"214 467 OFFCURVE",
"208 438 OFFCURVE",
"202 409 CURVE",
"244 452 OFFCURVE",
"300 479 OFFCURVE",
"359 479 CURVE SMOOTH",
"388 479 OFFCURVE",
"417 474 OFFCURVE",
"444 464 CURVE SMOOTH",
"470 454 OFFCURVE",
"494 438 OFFCURVE",
"512 415 CURVE",
"511 416 LINE",
"529 395 OFFCURVE",
"541 371 OFFCURVE",
"548 345 CURVE SMOOTH",
"556 319 OFFCURVE",
"558 292 OFFCURVE",
"558 265 CURVE SMOOTH",
"558 231 OFFCURVE",
"554 194 OFFCURVE",
"543 159 CURVE SMOOTH",
"532 124 OFFCURVE",
"514 90 OFFCURVE",
"486 63 CURVE SMOOTH",
"460 40 OFFCURVE",
"431 25 OFFCURVE",
"399 17 CURVE SMOOTH",
"367 8 OFFCURVE",
"334 5 OFFCURVE",
"303 5 CURVE SMOOTH",
"268 5 OFFCURVE",
"233 12 OFFCURVE",
"203 26 CURVE SMOOTH",
"172 40 OFFCURVE",
"146 63 OFFCURVE",
"129 94 CURVE SMOOTH",
"101 147 OFFCURVE",
"93 207 OFFCURVE",
"93 269 CURVE SMOOTH",
"93 322 OFFCURVE",
"97 387 OFFCURVE",
"111 451 CURVE SMOOTH",
"125 515 OFFCURVE",
"149 578 OFFCURVE",
"190 628 CURVE",
"220 662 OFFCURVE",
"259 686 OFFCURVE",
"300 701 CURVE SMOOTH",
"341 716 OFFCURVE",
"385 723 OFFCURVE",
"426 723 CURVE SMOOTH",
"472 723 OFFCURVE",
"517 715 OFFCURVE",
"560 704 CURVE"
);
}
);
width = 642;
}
);
unicode = 0036;
},
{
glyphname = seven;
lastChange = "2014-11-05 03:31:07 -0500";
layers = (
{
layerId = "013FA67F-D7C9-4F04-AAC6-32032829ED9A";
name = "Bold Italic";
paths = (
{
closed = 1;
nodes = (
"179 725 LINE",
"250 715 OFFCURVE",
"321 710 OFFCURVE",
"392 710 CURVE SMOOTH",
"468 710 OFFCURVE",
"547 715 OFFCURVE",
"631 726 CURVE",
"631 725 OFFCURVE",
"631 724 OFFCURVE",
"630 721 CURVE SMOOTH",
"630 719 OFFCURVE",
"630 716 OFFCURVE",
"629 713 CURVE",
"629 708 OFFCURVE",
"628 703 OFFCURVE",
"627 701 CURVE",
"624 678 LINE",
"555 514 OFFCURVE",
"499 345 OFFCURVE",
"444 177 CURVE SMOOTH",
"428 126 OFFCURVE",
"408 67 OFFCURVE",
"391 18 CURVE",
"382 18 OFFCURVE",
"374 18 OFFCURVE",
"363 18 CURVE SMOOTH",
"353 18 OFFCURVE",
"344 18 OFFCURVE",
"335 18 CURVE SMOOTH",
"316 18 OFFCURVE",
"294 18 OFFCURVE",
"271 17 CURVE SMOOTH",
"248 16 OFFCURVE",
"225 15 OFFCURVE",
"206 14 CURVE",
"235 68 OFFCURVE",
"266 128 OFFCURVE",
"296 188 CURVE SMOOTH",
"326 247 OFFCURVE",
"355 307 OFFCURVE",
"382 363 CURVE SMOOTH",
"406 411 OFFCURVE",
"428 455 OFFCURVE",
"450 500 CURVE SMOOTH",
"472 544 OFFCURVE",
"494 588 OFFCURVE",
"519 635 CURVE",
"474 632 OFFCURVE",
"428 631 OFFCURVE",
"382 631 CURVE SMOOTH",
"312 631 OFFCURVE",
"240 635 OFFCURVE",
"167 644 CURVE",
"168 654 OFFCURVE",
"168 667 OFFCURVE",
"168 680 CURVE SMOOTH",
"168 693 OFFCURVE",
"168 705 OFFCURVE",
"168 715 CURVE"
);
}
);
width = 610;
}
);
unicode = 0037;
},
{
glyphname = eight;
lastChange = "2014-11-05 03:31:07 -0500";
layers = (
{
layerId = "013FA67F-D7C9-4F04-AAC6-32032829ED9A";
name = "Bold Italic";
paths = (
{
closed = 1;
nodes = (
"294 351 OFFCURVE",
"257 339 OFFCURVE",
"228 316 CURVE",
"214 303 OFFCURVE",
"203 287 OFFCURVE",
"195 269 CURVE SMOOTH",
"188 251 OFFCURVE",
"184 231 OFFCURVE",
"184 213 CURVE SMOOTH",
"184 192 OFFCURVE",
"196 173 OFFCURVE",
"211 158 CURVE SMOOTH",
"236 135 OFFCURVE",
"273 129 OFFCURVE",
"309 129 CURVE SMOOTH",
"344 129 OFFCURVE",
"383 136 OFFCURVE",
"412 159 CURVE SMOOTH",
"436 178 OFFCURVE",
"452 204 OFFCURVE",
"453 235 CURVE SMOOTH",
"453 266 OFFCURVE",
"444 295 OFFCURVE",
"423 317 CURVE SMOOTH",
"400 342 OFFCURVE",
"366 352 OFFCURVE",
"330 351 CURVE SMOOTH"
);
},
{
closed = 1;
nodes = (
"126 328 LINE",
"152 355 OFFCURVE",
"186 375 OFFCURVE",
"221 386 CURVE",
"193 396 OFFCURVE",
"171 417 OFFCURVE",
"156 441 CURVE SMOOTH",
"141 466 OFFCURVE",
"132 496 OFFCURVE",
"132 526 CURVE SMOOTH",
"132 578 OFFCURVE",
"152 633 OFFCURVE",
"195 668 CURVE",
"219 686 OFFCURVE",
"246 698 OFFCURVE",
"275 705 CURVE SMOOTH",
"304 711 OFFCURVE",
"333 714 OFFCURVE",
"360 714 CURVE SMOOTH",
"388 714 OFFCURVE",
"417 712 OFFCURVE",
"444 705 CURVE SMOOTH",
"471 698 OFFCURVE",
"497 687 OFFCURVE",
"519 669 CURVE",
"546 643 OFFCURVE",
"560 606 OFFCURVE",
"560 568 CURVE SMOOTH",
"560 531 OFFCURVE",
"549 491 OFFCURVE",
"528 458 CURVE SMOOTH",
"506 424 OFFCURVE",
"476 398 OFFCURVE",
"436 388 CURVE",
"473 376 OFFCURVE",
"504 356 OFFCURVE",
"526 328 CURVE SMOOTH",
"548 300 OFFCURVE",
"561 265 OFFCURVE",
"561 224 CURVE SMOOTH",
"561 194 OFFCURVE",
"557 161 OFFCURVE",
"545 131 CURVE SMOOTH",
"534 101 OFFCURVE",
"516 73 OFFCURVE",
"488 53 CURVE SMOOTH",
"460 33 OFFCURVE",
"429 21 OFFCURVE",
"397 14 CURVE SMOOTH",
"365 6 OFFCURVE",
"332 4 OFFCURVE",
"300 4 CURVE SMOOTH",
"267 4 OFFCURVE",
"235 6 OFFCURVE",
"204 14 CURVE SMOOTH",
"172 21 OFFCURVE",
"143 33 OFFCURVE",
"118 53 CURVE SMOOTH",
"82 82 OFFCURVE",
"70 127 OFFCURVE",
"70 174 CURVE SMOOTH",
"70 200 OFFCURVE",
"73 228 OFFCURVE",
"83 255 CURVE SMOOTH",
"92 282 OFFCURVE",
"105 307 OFFCURVE",
"126 328 CURVE"
);
},
{
closed = 1;
nodes = (
"227 559 LINE",
"226 553 OFFCURVE",
"225 548 OFFCURVE",
"225 544 CURVE SMOOTH",
"225 517 OFFCURVE",
"237 494 OFFCURVE",
"256 478 CURVE SMOOTH",
"275 461 OFFCURVE",
"300 451 OFFCURVE",
"327 451 CURVE SMOOTH",
"328 451 OFFCURVE",
"330 451 OFFCURVE",
"332 451 CURVE SMOOTH",
"333 451 OFFCURVE",
"335 451 OFFCURVE",
"337 451 CURVE",
"339 451 OFFCURVE",
"341 451 OFFCURVE",
"343 451 CURVE SMOOTH",
"344 451 OFFCURVE",
"346 451 OFFCURVE",
"348 451 CURVE SMOOTH",
"380 451 OFFCURVE",
"411 464 OFFCURVE",
"433 486 CURVE SMOOTH",
"455 508 OFFCURVE",
"469 539 OFFCURVE",
"469 572 CURVE SMOOTH",
"469 604 OFFCURVE",
"454 625 OFFCURVE",
"433 639 CURVE SMOOTH",
"411 652 OFFCURVE",
"382 658 OFFCURVE",
"354 658 CURVE SMOOTH",
"325 658 OFFCURVE",
"294 649 OFFCURVE",
"270 633 CURVE SMOOTH",
"245 617 OFFCURVE",
"228 593 OFFCURVE",
"227 560 CURVE"
);
}
);
width = 651;
}
);
unicode = 0038;
},
{
glyphname = nine;
lastChange = "2014-11-05 03:31:07 -0500";
layers = (
{
layerId = "013FA67F-D7C9-4F04-AAC6-32032829ED9A";
name = "Bold Italic";
paths = (
{
closed = 1;
nodes = (
"211 4 OFFCURVE",
"166 11 OFFCURVE",
"122 24 CURVE",
"129 29 LINE",
"117 30 LINE",
"121 53 OFFCURVE",
"125 78 OFFCURVE",
"128 104 CURVE SMOOTH",
"130 117 OFFCURVE",
"132 129 OFFCURVE",
"133 142 CURVE SMOOTH",
"135 154 OFFCURVE",
"136 167 OFFCURVE",
"138 178 CURVE",
"184 158 OFFCURVE",
"229 147 OFFCURVE",
"271 147 CURVE SMOOTH",
"320 147 OFFCURVE",
"373 152 OFFCURVE",
"417 180 CURVE",
"417 179 LINE",
"438 196 OFFCURVE",
"451 218 OFFCURVE",
"459 242 CURVE SMOOTH",
"468 266 OFFCURVE",
"473 293 OFFCURVE",
"478 318 CURVE",
"437 275 OFFCURVE",
"381 249 OFFCURVE",
"322 249 CURVE SMOOTH",
"292 249 OFFCURVE",
"264 253 OFFCURVE",
"237 264 CURVE SMOOTH",
"211 273 OFFCURVE",
"187 290 OFFCURVE",
"169 313 CURVE",
"169 312 LINE",
"134 354 OFFCURVE",
"124 410 OFFCURVE",
"124 465 CURVE SMOOTH",
"124 499 OFFCURVE",
"127 535 OFFCURVE",
"138 570 CURVE SMOOTH",
"149 605 OFFCURVE",
"166 637 OFFCURVE",
"195 663 CURVE SMOOTH",
"221 687 OFFCURVE",
"250 702 OFFCURVE",
"282 711 CURVE SMOOTH",
"313 720 OFFCURVE",
"346 723 OFFCURVE",
"378 723 CURVE SMOOTH",
"411 723 OFFCURVE",
"446 716 OFFCURVE",
"476 703 CURVE SMOOTH",
"505 689 OFFCURVE",
"532 667 OFFCURVE",
"549 638 CURVE",
"580 579 OFFCURVE",
"587 516 OFFCURVE",
"587 453 CURVE SMOOTH",
"587 400 OFFCURVE",
"583 335 OFFCURVE",
"568 273 CURVE SMOOTH",
"554 210 OFFCURVE",
"529 148 OFFCURVE",
"490 99 CURVE SMOOTH",
"460 64 OFFCURVE",
"423 41 OFFCURVE",
"382 25 CURVE SMOOTH",
"342 10 OFFCURVE",
"299 4 OFFCURVE",
"257 4 CURVE SMOOTH"
);
},
{
closed = 1;
nodes = (
"375 396 OFFCURVE",
"416 399 OFFCURVE",
"453 414 CURVE SMOOTH",
"475 422 OFFCURVE",
"487 443 OFFCURVE",
"495 465 CURVE SMOOTH",
"502 487 OFFCURVE",
"503 512 OFFCURVE",
"503 529 CURVE SMOOTH",
"503 562 OFFCURVE",
"496 593 OFFCURVE",
"474 614 CURVE SMOOTH",
"444 645 OFFCURVE",
"399 654 OFFCURVE",
"354 654 CURVE SMOOTH",
"313 654 OFFCURVE",
"271 642 OFFCURVE",
"238 614 CURVE SMOOTH",
"220 599 OFFCURVE",
"208 578 OFFCURVE",
"200 557 CURVE SMOOTH",
"192 535 OFFCURVE",
"188 511 OFFCURVE",
"188 489 CURVE SMOOTH",
"188 474 OFFCURVE",
"190 458 OFFCURVE",
"195 444 CURVE SMOOTH",
"200 431 OFFCURVE",
"208 419 OFFCURVE",
"222 413 CURVE SMOOTH",
"257 399 OFFCURVE",
"296 396 OFFCURVE",
"336 396 CURVE SMOOTH"
);
}
);
width = 641;
}
);
unicode = 0039;
},
{
glyphname = colon;
lastChange = "2014-11-05 03:31:07 -0500";
layers = (
{
layerId = "013FA67F-D7C9-4F04-AAC6-32032829ED9A";
name = "Bold Italic";
paths = (
{
closed = 1;
nodes = (
"106 160 LINE",
"125 163 OFFCURVE",
"144 165 OFFCURVE",
"164 165 CURVE SMOOTH",
"183 165 OFFCURVE",
"204 163 OFFCURVE",
"227 159 CURVE",
"226 147 OFFCURVE",
"225 135 OFFCURVE",
"224 121 CURVE",
"223 107 OFFCURVE",
"222 94 OFFCURVE",
"221 80 CURVE SMOOTH",
"219 52 OFFCURVE",
"218 23 OFFCURVE",
"216 0 CURVE",
"191 10 OFFCURVE",
"170 14 OFFCURVE",
"152 14 CURVE SMOOTH",
"133 14 OFFCURVE",
"108 9 OFFCURVE",
"81 1 CURVE",
"83 12 OFFCURVE",
"84 24 OFFCURVE",
"85 38 CURVE SMOOTH",
"89 63 OFFCURVE",
"92 90 OFFCURVE",
"94 116 CURVE SMOOTH",
"96 128 OFFCURVE",
"97 141 OFFCURVE",
"98 152 CURVE"
);
},
{
closed = 1;
nodes = (
"142 537 LINE",
"158 531 OFFCURVE",
"175 527 OFFCURVE",
"193 527 CURVE SMOOTH",
"211 527 OFFCURVE",
"235 533 OFFCURVE",
"264 543 CURVE",
"262 522 OFFCURVE",
"259 496 OFFCURVE",
"256 469 CURVE SMOOTH",
"253 441 OFFCURVE",
"250 415 OFFCURVE",
"248 394 CURVE",
"224 389 OFFCURVE",
"203 387 OFFCURVE",
"183 387 CURVE SMOOTH",
"164 387 OFFCURVE",
"143 390 OFFCURVE",
"119 395 CURVE",
"121 410 OFFCURVE",
"122 425 OFFCURVE",
"123 442 CURVE SMOOTH",
"124 458 OFFCURVE",
"125 473 OFFCURVE",
"125 487 CURVE SMOOTH",
"128 529 LINE"
);
}
);
width = 347;
}
);
unicode = 003A;
},
{
glyphname = semicolon;
lastChange = "2014-11-05 03:31:07 -0500";
layers = (
{
layerId = "013FA67F-D7C9-4F04-AAC6-32032829ED9A";
name = "Bold Italic";
paths = (
{
closed = 1;
nodes = (
"136 524 LINE",
"146 522 OFFCURVE",
"157 522 OFFCURVE",
"167 522 CURVE SMOOTH",
"191 522 OFFCURVE",
"219 527 OFFCURVE",
"252 540 CURVE",
"251 518 LINE",
"246 477 OFFCURVE",
"241 429 OFFCURVE",
"237 388 CURVE",
"206 380 OFFCURVE",
"180 377 OFFCURVE",
"156 377 CURVE SMOOTH",
"145 377 OFFCURVE",
"135 377 OFFCURVE",
"115 379 CURVE",
"116 393 OFFCURVE",
"118 408 OFFCURVE",
"119 424 CURVE SMOOTH",
"120 440 OFFCURVE",
"121 455 OFFCURVE",
"122 468 CURVE SMOOTH",
"123 475 OFFCURVE",
"124 483 OFFCURVE",
"124 492 CURVE SMOOTH",
"125 500 OFFCURVE",
"125 508 OFFCURVE",
"125 516 CURVE"
);
},
{
closed = 1;
nodes = (
"122 120 LINE SMOOTH",
"125 120 OFFCURVE",
"128 120 OFFCURVE",
"131 121 CURVE",
"134 121 OFFCURVE",
"137 121 OFFCURVE",
"140 121 CURVE SMOOTH",
"160 121 OFFCURVE",
"181 120 OFFCURVE",
"209 118 CURVE",
"208 109 OFFCURVE",
"208 100 OFFCURVE",
"207 89 CURVE",
"206 78 OFFCURVE",
"205 68 OFFCURVE",
"205 60 CURVE SMOOTH",
"202 22 LINE",
"160 -47 LINE SMOOTH",
"150 -62 OFFCURVE",
"141 -77 OFFCURVE",
"131 -93 CURVE SMOOTH",
"121 -109 OFFCURVE",
"112 -125 OFFCURVE",
"103 -139 CURVE",
"81 -141 OFFCURVE",
"54 -146 OFFCURVE",
"23 -158 CURVE",
"26 -147 OFFCURVE",
"30 -137 OFFCURVE",
"34 -125 CURVE SMOOTH",
"38 -113 OFFCURVE",
"42 -101 OFFCURVE",
"46 -88 CURVE SMOOTH",
"55 -63 OFFCURVE",
"63 -39 OFFCURVE",
"70 -19 CURVE SMOOTH",
"87 29 LINE",
"88 43 OFFCURVE",
"89 57 OFFCURVE",
"91 70 CURVE",
"91 77 OFFCURVE",
"92 85 OFFCURVE",
"93 95 CURVE SMOOTH",
"93 104 OFFCURVE",
"94 113 OFFCURVE",
"95 120 CURVE"
);
}
);
width = 328;
}
);
unicode = 003B;
},
{
glyphname = less;
lastChange = "2014-11-05 03:31:07 -0500";
layers = (
{
layerId = "013FA67F-D7C9-4F04-AAC6-32032829ED9A";
name = "Bold Italic";
paths = (
{
closed = 1;
nodes = (
"704 472 LINE",
"620 447 OFFCURVE",
"542 426 OFFCURVE",
"465 405 CURVE SMOOTH",
"387 385 OFFCURVE",
"309 365 OFFCURVE",
"225 344 CURVE",
"384 267 LINE SMOOTH",
"470 226 OFFCURVE",
"563 180 OFFCURVE",
"647 137 CURVE",
"644 99 OFFCURVE",
"642 59 OFFCURVE",
"642 12 CURVE",
"601 33 OFFCURVE",
"556 56 OFFCURVE",
"511 78 CURVE SMOOTH",
"465 100 OFFCURVE",
"420 122 OFFCURVE",
"378 142 CURVE SMOOTH",
"282 189 OFFCURVE",
"179 239 OFFCURVE",
"85 288 CURVE",
"86 296 OFFCURVE",
"88 305 OFFCURVE",
"89 315 CURVE SMOOTH",
"93 334 OFFCURVE",
"96 354 OFFCURVE",
"98 374 CURVE SMOOTH",
"100 383 OFFCURVE",
"101 393 OFFCURVE",
"101 401 CURVE",
"192 423 LINE SMOOTH",
"278 444 OFFCURVE",
"373 468 OFFCURVE",
"467 494 CURVE SMOOTH",
"562 519 OFFCURVE",
"655 545 OFFCURVE",
"740 573 CURVE",
"738 566 OFFCURVE",
"735 560 OFFCURVE",
"733 551 CURVE",
"727 535 OFFCURVE",
"722 518 OFFCURVE",
"716 501 CURVE SMOOTH",
"714 493 OFFCURVE",
"711 485 OFFCURVE",
"710 479 CURVE"
);
}
);
width = 771;
}
);
unicode = 003C;
},
{
glyphname = equal;
lastChange = "2014-11-05 03:31:07 -0500";
layers = (
{
layerId = "013FA67F-D7C9-4F04-AAC6-32032829ED9A";
name = "Bold Italic";
paths = (
{
closed = 1;
nodes = (
"121 457 LINE",
"217 453 OFFCURVE",
"313 451 OFFCURVE",
"410 451 CURVE SMOOTH",
"514 451 OFFCURVE",
"631 454 OFFCURVE",
"735 457 CURVE",
"722 426 OFFCURVE",
"712 396 OFFCURVE",
"706 367 CURVE",
"606 365 OFFCURVE",
"502 364 OFFCURVE",
"403 364 CURVE SMOOTH",
"311 364 OFFCURVE",
"211 365 OFFCURVE",
"120 367 CURVE",
"118 395 OFFCURVE",
"116 421 OFFCURVE",
"110 445 CURVE"
);
},
{
closed = 1;
nodes = (
"121 277 LINE",
"225 278 OFFCURVE",
"327 279 OFFCURVE",
"431 279 CURVE SMOOTH",
"517 279 OFFCURVE",
"610 278 OFFCURVE",
"696 277 CURVE",
"696 242 OFFCURVE",
"700 207 OFFCURVE",
"709 172 CURVE",
"611 175 OFFCURVE",
"501 177 OFFCURVE",
"402 177 CURVE SMOOTH",
"352 177 OFFCURVE",
"297 177 OFFCURVE",
"243 176 CURVE SMOOTH",
"188 175 OFFCURVE",
"133 173 OFFCURVE",
"83 172 CURVE",
"98 208 OFFCURVE",
"106 240 OFFCURVE",
"111 269 CURVE"
);
}
);
width = 803;
}
);
unicode = 003D;
},
{
glyphname = greater;
lastChange = "2014-11-05 03:31:07 -0500";
layers = (
{
layerId = "013FA67F-D7C9-4F04-AAC6-32032829ED9A";
name = "Bold Italic";
paths = (
{
closed = 1;
nodes = (
"144 537 LINE",
"145 542 OFFCURVE",
"145 547 OFFCURVE",
"145 552 CURVE",
"145 557 OFFCURVE",
"146 562 OFFCURVE",
"146 566 CURVE",
"146 574 OFFCURVE",
"147 586 OFFCURVE",
"148 598 CURVE",
"148 603 OFFCURVE",
"148 609 OFFCURVE",
"149 614 CURVE SMOOTH",
"149 620 OFFCURVE",
"149 624 OFFCURVE",
"149 628 CURVE",
"198 603 OFFCURVE",
"250 577 OFFCURVE",
"301 552 CURVE SMOOTH",
"353 526 OFFCURVE",
"405 500 OFFCURVE",
"454 477 CURVE SMOOTH",
"536 436 OFFCURVE",
"624 393 OFFCURVE",
"706 352 CURVE",
"698 314 OFFCURVE",
"692 277 OFFCURVE",
"688 238 CURVE",
"586 212 LINE SMOOTH",
"500 191 OFFCURVE",
"409 168 OFFCURVE",
"318 144 CURVE SMOOTH",
"227 119 OFFCURVE",
"137 93 OFFCURVE",
"51 66 CURVE",
"61 94 OFFCURVE",
"67 117 OFFCURVE",
"73 137 CURVE SMOOTH",
"79 158 OFFCURVE",
"84 175 OFFCURVE",
"88 193 CURVE",
"209 229 OFFCURVE",
"332 261 OFFCURVE",
"453 292 CURVE SMOOTH",
"569 321 LINE",
"542 335 OFFCURVE",
"516 348 OFFCURVE",
"489 361 CURVE SMOOTH",
"436 387 OFFCURVE",
"364 421 OFFCURVE",
"278 463 CURVE SMOOTH",
"235 484 OFFCURVE",
"192 506 OFFCURVE",
"149 528 CURVE"
);
}
);
width = 769;
}
);
unicode = 003E;
},
{
glyphname = question;
lastChange = "2014-11-05 03:31:07 -0500";
layers = (
{
layerId = "013FA67F-D7C9-4F04-AAC6-32032829ED9A";
name = "Bold Italic";
paths = (
{
closed = 1;
nodes = (
"210 151 LINE",
"241 153 OFFCURVE",
"272 154 OFFCURVE",
"304 154 CURVE SMOOTH",
"333 154 LINE",
"327 82 LINE SMOOTH",
"326 72 OFFCURVE",
"325 61 OFFCURVE",
"325 48 CURVE",
"324 35 OFFCURVE",
"323 23 OFFCURVE",
"322 13 CURVE",
"294 13 LINE SMOOTH",
"261 13 OFFCURVE",
"218 11 OFFCURVE",
"185 9 CURVE",
"188 29 OFFCURVE",
"191 53 OFFCURVE",
"194 76 CURVE SMOOTH",
"197 99 OFFCURVE",
"199 122 OFFCURVE",
"201 143 CURVE"
);
},
{
closed = 1;
nodes = (
"330 202 LINE",
"293 202 OFFCURVE",
"247 201 OFFCURVE",
"210 199 CURVE",
"214 240 LINE SMOOTH",
"217 279 OFFCURVE",
"220 317 OFFCURVE",
"237 356 CURVE",
"252 386 OFFCURVE",
"275 408 OFFCURVE",
"298 429 CURVE",
"302 433 OFFCURVE",
"306 436 OFFCURVE",
"310 439 CURVE",
"313 442 OFFCURVE",
"317 445 OFFCURVE",
"322 449 CURVE",
"346 469 LINE",
"353 475 LINE SMOOTH",
"368 487 OFFCURVE",
"386 500 OFFCURVE",
"400 516 CURVE SMOOTH",
"414 531 OFFCURVE",
"424 547 OFFCURVE",
"424 563 CURVE SMOOTH",
"424 590 OFFCURVE",
"414 612 OFFCURVE",
"396 627 CURVE SMOOTH",
"378 643 OFFCURVE",
"354 650 OFFCURVE",
"329 650 CURVE SMOOTH",
"302 650 OFFCURVE",
"274 644 OFFCURVE",
"245 634 CURVE SMOOTH",
"215 624 OFFCURVE",
"186 610 OFFCURVE",
"157 595 CURVE",
"157 601 OFFCURVE",
"158 613 OFFCURVE",
"159 625 CURVE",
"159 630 OFFCURVE",
"159 636 OFFCURVE",
"159 641 CURVE SMOOTH",
"160 646 OFFCURVE",
"160 651 OFFCURVE",
"160 654 CURVE SMOOTH",
"160 658 OFFCURVE",
"160 663 OFFCURVE",
"160 668 CURVE SMOOTH",
"161 673 OFFCURVE",
"161 678 OFFCURVE",
"161 681 CURVE",
"224 708 OFFCURVE",
"288 722 OFFCURVE",
"351 722 CURVE SMOOTH",
"375 722 OFFCURVE",
"399 721 OFFCURVE",
"423 715 CURVE SMOOTH",
"446 709 OFFCURVE",
"468 699 OFFCURVE",
"486 683 CURVE SMOOTH",
"513 660 OFFCURVE",
"524 625 OFFCURVE",
"524 589 CURVE SMOOTH",
"524 553 OFFCURVE",
"512 522 OFFCURVE",
"495 494 CURVE SMOOTH",
"477 466 OFFCURVE",
"453 441 OFFCURVE",
"430 417 CURVE SMOOTH",
"391 377 LINE",
"386 370 LINE SMOOTH",
"384 366 OFFCURVE",
"381 362 OFFCURVE",
"379 359 CURVE",
"376 355 OFFCURVE",
"374 352 OFFCURVE",
"371 348 CURVE SMOOTH",
"366 341 LINE",
"361 335 OFFCURVE",
"357 329 OFFCURVE",
"354 321 CURVE",
"345 295 OFFCURVE",
"343 267 OFFCURVE",
"342 239 CURVE",
"341 234 OFFCURVE",
"341 229 OFFCURVE",
"341 225 CURVE",
"341 220 OFFCURVE",
"340 215 OFFCURVE",
"340 210 CURVE"
);
}
);
width = 533;
}
);
unicode = 003F;
},
{
glyphname = at;
lastChange = "2014-11-05 03:31:07 -0500";
layers = (
{
layerId = "013FA67F-D7C9-4F04-AAC6-32032829ED9A";
name = "Bold Italic";
paths = (
{
closed = 1;
nodes = (
"354 295 OFFCURVE",
"354 290 OFFCURVE",
"354 284 CURVE SMOOTH",
"354 251 OFFCURVE",
"365 226 OFFCURVE",
"384 208 CURVE SMOOTH",
"402 190 OFFCURVE",
"428 182 OFFCURVE",
"459 182 CURVE SMOOTH",
"489 182 OFFCURVE",
"521 190 OFFCURVE",
"543 213 CURVE SMOOTH",
"572 242 OFFCURVE",
"582 281 OFFCURVE",
"582 320 CURVE SMOOTH",
"582 352 OFFCURVE",
"571 377 OFFCURVE",
"552 395 CURVE SMOOTH",
"533 412 OFFCURVE",
"507 421 OFFCURVE",
"477 421 CURVE SMOOTH",
"446 421 OFFCURVE",
"416 411 OFFCURVE",
"393 389 CURVE SMOOTH",
"368 366 OFFCURVE",
"358 333 OFFCURVE",
"355 301 CURVE SMOOTH"
);
},
{
closed = 1;
nodes = (
"585 102 LINE",
"586 114 LINE",
"549 78 OFFCURVE",
"500 55 OFFCURVE",
"449 55 CURVE SMOOTH",
"398 55 OFFCURVE",
"349 73 OFFCURVE",
"319 113 CURVE SMOOTH",
"293 147 OFFCURVE",
"282 192 OFFCURVE",
"282 236 CURVE SMOOTH",
"282 267 OFFCURVE",
"286 300 OFFCURVE",
"296 331 CURVE SMOOTH",
"306 362 OFFCURVE",
"321 392 OFFCURVE",
"345 416 CURVE",
"382 457 OFFCURVE",
"432 474 OFFCURVE",
"484 474 CURVE SMOOTH",
"536 474 OFFCURVE",
"582 450 OFFCURVE",
"613 413 CURVE",
"613 417 LINE",
"614 423 OFFCURVE",
"615 432 OFFCURVE",
"616 441 CURVE",
"616 451 OFFCURVE",
"617 459 OFFCURVE",
"618 466 CURVE",
"622 466 OFFCURVE",
"628 466 OFFCURVE",
"635 466 CURVE",
"641 466 OFFCURVE",
"648 466 OFFCURVE",
"655 467 CURVE",
"663 467 OFFCURVE",
"669 467 OFFCURVE",
"676 467 CURVE",
"683 467 OFFCURVE",
"688 467 OFFCURVE",
"693 467 CURVE",
"680 354 OFFCURVE",
"668 243 OFFCURVE",
"661 129 CURVE",
"699 137 OFFCURVE",
"733 156 OFFCURVE",
"758 187 CURVE SMOOTH",
"776 211 OFFCURVE",
"789 239 OFFCURVE",
"797 268 CURVE SMOOTH",
"805 296 OFFCURVE",
"808 326 OFFCURVE",
"808 353 CURVE SMOOTH",
"808 402 OFFCURVE",
"796 449 OFFCURVE",
"771 490 CURVE",
"771 490 LINE",
"744 528 OFFCURVE",
"706 558 OFFCURVE",
"663 577 CURVE SMOOTH",
"620 597 OFFCURVE",
"572 606 OFFCURVE",
"523 606 CURVE SMOOTH",
"451 606 OFFCURVE",
"378 589 OFFCURVE",
"314 550 CURVE SMOOTH",
"257 515 OFFCURVE",
"215 465 OFFCURVE",
"188 408 CURVE SMOOTH",
"160 351 OFFCURVE",
"147 287 OFFCURVE",
"147 225 CURVE SMOOTH",
"147 198 OFFCURVE",
"150 171 OFFCURVE",
"161 148 CURVE",
"161 148 LINE",
"179 109 OFFCURVE",
"205 75 OFFCURVE",
"232 42 CURVE",
"232 42 LINE",
"259 11 OFFCURVE",
"294 -9 OFFCURVE",
"333 -21 CURVE SMOOTH",
"372 -32 OFFCURVE",
"414 -36 OFFCURVE",
"457 -37 CURVE SMOOTH",
"532 -36 OFFCURVE",
"613 -15 OFFCURVE",
"686 36 CURVE",
"691 23 OFFCURVE",
"698 6 OFFCURVE",
"706 -11 CURVE",
"709 -20 OFFCURVE",
"713 -28 OFFCURVE",
"717 -37 CURVE SMOOTH",
"721 -45 OFFCURVE",
"725 -52 OFFCURVE",
"728 -58 CURVE",
"641 -119 OFFCURVE",
"542 -149 OFFCURVE",
"447 -149 CURVE SMOOTH",
"393 -149 OFFCURVE",
"339 -141 OFFCURVE",
"289 -122 CURVE SMOOTH",
"239 -103 OFFCURVE",
"194 -75 OFFCURVE",
"160 -34 CURVE",
"160 -35 LINE",
"128 -1 OFFCURVE",
"107 39 OFFCURVE",
"94 82 CURVE SMOOTH",
"80 125 OFFCURVE",
"74 171 OFFCURVE",
"74 217 CURVE SMOOTH",
"74 278 OFFCURVE",
"84 342 OFFCURVE",
"106 403 CURVE SMOOTH",
"128 463 OFFCURVE",
"163 520 OFFCURVE",
"211 566 CURVE",
"256 605 OFFCURVE",
"310 634 OFFCURVE",
"365 654 CURVE SMOOTH",
"419 673 OFFCURVE",
"478 683 OFFCURVE",
"535 683 CURVE SMOOTH",
"596 683 OFFCURVE",
"655 671 OFFCURVE",
"706 647 CURVE SMOOTH",
"757 624 OFFCURVE",
"801 587 OFFCURVE",
"833 540 CURVE SMOOTH",
"863 493 OFFCURVE",
"882 433 OFFCURVE",
"882 361 CURVE SMOOTH",
"882 322 OFFCURVE",
"875 278 OFFCURVE",
"861 236 CURVE SMOOTH",
"846 194 OFFCURVE",
"824 154 OFFCURVE",
"793 123 CURVE",
"766 99 OFFCURVE",
"731 81 OFFCURVE",
"695 70 CURVE SMOOTH",
"658 58 OFFCURVE",
"619 52 OFFCURVE",
"582 52 CURVE"
);
}
);
width = 944;
}
);
unicode = 0040;
},
{
glyphname = A;
lastChange = "2014-11-05 03:31:07 -0500";
layers = (
{
anchors = (
{
name = bottom;
position = "{352, 7}";
},
{
name = ogonek;
position = "{658, 5}";
},
{
name = top;
position = "{410, 710}";
}
);
layerId = "013FA67F-D7C9-4F04-AAC6-32032829ED9A";
name = "Bold Italic";
paths = (
{
closed = 1;
nodes = (
"434 474 OFFCURVE",
"428 500 OFFCURVE",
"422 526 CURVE SMOOTH",
"416 552 OFFCURVE",
"410 579 OFFCURVE",
"403 605 CURVE",
"345 460 LINE SMOOTH",
"315 388 OFFCURVE",
"287 320 OFFCURVE",
"256 248 CURVE",
"276 248 OFFCURVE",
"295 248 OFFCURVE",
"314 248 CURVE SMOOTH",
"333 248 OFFCURVE",
"352 248 OFFCURVE",
"371 248 CURVE SMOOTH",
"382 248 OFFCURVE",
"393 248 OFFCURVE",
"404 248 CURVE",
"415 248 OFFCURVE",
"425 248 OFFCURVE",
"436 248 CURVE SMOOTH",
"488 248 LINE",
"480 281 OFFCURVE",
"472 314 OFFCURVE",
"464 348 CURVE SMOOTH",
"457 381 OFFCURVE",
"449 414 OFFCURVE",
"440 448 CURVE SMOOTH"
);
},
{
closed = 1;
nodes = (
"461 710 LINE",
"479 650 OFFCURVE",
"498 583 OFFCURVE",
"515 522 CURVE SMOOTH",
"539 437 OFFCURVE",
"563 352 OFFCURVE",
"590 266 CURVE SMOOTH",
"618 179 OFFCURVE",
"648 92 OFFCURVE",
"686 3 CURVE",
"665 5 OFFCURVE",
"638 7 OFFCURVE",
"612 9 CURVE SMOOTH",
"585 11 OFFCURVE",
"559 13 OFFCURVE",
"537 14 CURVE",
"528 52 OFFCURVE",
"520 89 OFFCURVE",
"512 128 CURVE",
"462 129 OFFCURVE",
"413 129 OFFCURVE",
"363 129 CURVE SMOOTH",
"310 129 OFFCURVE",
"265 129 OFFCURVE",
"212 128 CURVE",
"205 109 OFFCURVE",
"196 90 OFFCURVE",
"187 70 CURVE SMOOTH",
"177 50 OFFCURVE",
"167 32 OFFCURVE",
"159 14 CURVE",
"149 13 OFFCURVE",
"138 12 OFFCURVE",
"126 12 CURVE",
"114 11 OFFCURVE",
"101 10 OFFCURVE",
"88 9 CURVE SMOOTH",
"75 8 OFFCURVE",
"63 7 OFFCURVE",
"50 6 CURVE",
"38 5 OFFCURVE",
"27 4 OFFCURVE",
"17 3 CURVE",
"113 168 OFFCURVE",
"190 334 OFFCURVE",
"263 492 CURVE SMOOTH",
"295 563 OFFCURVE",
"332 642 OFFCURVE",
"365 710 CURVE"
);
}
);
width = 815;
}
);
unicode = 0041;
},
{
glyphname = B;
lastChange = "2014-11-05 03:31:07 -0500";
layers = (
{
layerId = "013FA67F-D7C9-4F04-AAC6-32032829ED9A";
name = "Bold Italic";
paths = (
{
closed = 1;
nodes = (
"250 344 LINE",
"249 323 LINE SMOOTH",
"243 268 OFFCURVE",
"239 217 OFFCURVE",
"231 161 CURVE",
"278 162 OFFCURVE",
"327 164 OFFCURVE",
"374 164 CURVE SMOOTH",
"410 164 OFFCURVE",
"449 166 OFFCURVE",
"483 183 CURVE",
"482 183 LINE",
"496 190 OFFCURVE",
"506 204 OFFCURVE",
"513 219 CURVE SMOOTH",
"519 234 OFFCURVE",
"521 250 OFFCURVE",
"521 265 CURVE SMOOTH",
"521 285 OFFCURVE",
"506 302 OFFCURVE",
"493 315 CURVE",
"493 315 LINE",
"479 327 OFFCURVE",
"463 334 OFFCURVE",
"446 338 CURVE SMOOTH",
"428 342 OFFCURVE",
"409 344 OFFCURVE",
"391 344 CURVE SMOOTH"
);
},
{
closed = 1;
nodes = (
"271 651 LINE",
"271 650 OFFCURVE",
"271 648 OFFCURVE",
"271 646 CURVE",
"270 645 OFFCURVE",
"270 643 OFFCURVE",
"270 642 CURVE",
"260 643 LINE"
);
},
{
closed = 1;
nodes = (
"360 638 OFFCURVE",
"315 639 OFFCURVE",
"270 642 CURVE",
"268 569 OFFCURVE",
"264 503 OFFCURVE",
"258 429 CURVE",
"279 428 OFFCURVE",
"301 428 OFFCURVE",
"322 428 CURVE SMOOTH",
"343 428 OFFCURVE",
"365 428 OFFCURVE",
"386 428 CURVE SMOOTH",
"417 428 OFFCURVE",
"453 433 OFFCURVE",
"480 451 CURVE",
"495 462 OFFCURVE",
"506 479 OFFCURVE",
"513 496 CURVE SMOOTH",
"521 513 OFFCURVE",
"524 530 OFFCURVE",
"524 544 CURVE SMOOTH",
"524 580 OFFCURVE",
"509 604 OFFCURVE",
"487 618 CURVE SMOOTH",
"464 633 OFFCURVE",
"434 638 OFFCURVE",
"405 638 CURVE SMOOTH"
);
},
{
closed = 1;
nodes = (
"179 725 LINE",
"250 715 OFFCURVE",
"321 712 OFFCURVE",
"393 710 CURVE SMOOTH",
"438 710 OFFCURVE",
"480 706 OFFCURVE",
"520 691 CURVE SMOOTH",
"548 680 OFFCURVE",
"570 662 OFFCURVE",
"584 640 CURVE SMOOTH",
"598 618 OFFCURVE",
"605 592 OFFCURVE",
"605 566 CURVE SMOOTH",
"605 531 OFFCURVE",
"596 494 OFFCURVE",
"579 462 CURVE SMOOTH",
"561 430 OFFCURVE",
"534 403 OFFCURVE",
"498 392 CURVE",
"536 382 OFFCURVE",
"570 362 OFFCURVE",
"594 334 CURVE SMOOTH",
"619 307 OFFCURVE",
"634 270 OFFCURVE",
"634 230 CURVE SMOOTH",
"634 200 OFFCURVE",
"630 167 OFFCURVE",
"619 138 CURVE SMOOTH",
"607 109 OFFCURVE",
"588 83 OFFCURVE",
"559 63 CURVE SMOOTH",
"530 44 OFFCURVE",
"498 33 OFFCURVE",
"466 26 CURVE SMOOTH",
"434 20 OFFCURVE",
"399 18 OFFCURVE",
"368 18 CURVE SMOOTH",
"284 18 OFFCURVE",
"198 14 OFFCURVE",
"104 3 CURVE",
"147 245 OFFCURVE",
"168 483 OFFCURVE",
"168 715 CURVE"
);
}
);
width = 723;
}
);
unicode = 0042;
},
{
glyphname = C;
lastChange = "2014-11-05 03:31:07 -0500";
layers = (
{
anchors = (
{
name = bottom;
position = "{411, 0}";
},
{
name = top;
position = "{411, 710}";
}
);
layerId = "013FA67F-D7C9-4F04-AAC6-32032829ED9A";
name = "Bold Italic";
paths = (
{
closed = 1;
nodes = (
"670 663 LINE",
"682 662 LINE",
"681 655 OFFCURVE",
"679 646 OFFCURVE",
"678 637 CURVE SMOOTH",
"676 627 OFFCURVE",
"674 618 OFFCURVE",
"673 608 CURVE SMOOTH",
"669 588 OFFCURVE",
"667 568 OFFCURVE",
"665 553 CURVE",
"610 608 OFFCURVE",
"540 637 OFFCURVE",
"471 637 CURVE SMOOTH",
"438 637 OFFCURVE",
"404 633 OFFCURVE",
"371 624 CURVE SMOOTH",
"338 614 OFFCURVE",
"307 598 OFFCURVE",
"281 572 CURVE",
"282 572 LINE",
"249 537 OFFCURVE",
"229 497 OFFCURVE",
"217 454 CURVE SMOOTH",
"205 411 OFFCURVE",
"201 367 OFFCURVE",
"201 328 CURVE SMOOTH",
"201 303 OFFCURVE",
"203 279 OFFCURVE",
"210 257 CURVE SMOOTH",
"217 235 OFFCURVE",
"228 215 OFFCURVE",
"245 199 CURVE",
"245 200 LINE",
"269 180 OFFCURVE",
"298 169 OFFCURVE",
"329 163 CURVE SMOOTH",
"360 156 OFFCURVE",
"393 154 OFFCURVE",
"423 154 CURVE SMOOTH",
"457 154 OFFCURVE",
"494 162 OFFCURVE",
"530 177 CURVE SMOOTH",
"565 192 OFFCURVE",
"601 214 OFFCURVE",
"634 243 CURVE",
"632 220 OFFCURVE",
"632 191 OFFCURVE",
"631 163 CURVE SMOOTH",
"630 134 OFFCURVE",
"629 105 OFFCURVE",
"629 83 CURVE SMOOTH",
"629 62 LINE",
"560 19 OFFCURVE",
"484 4 OFFCURVE",
"411 4 CURVE SMOOTH",
"364 4 OFFCURVE",
"316 10 OFFCURVE",
"272 24 CURVE SMOOTH",
"228 39 OFFCURVE",
"188 62 OFFCURVE",
"156 97 CURVE",
"133 126 OFFCURVE",
"118 160 OFFCURVE",
"108 196 CURVE SMOOTH",
"99 231 OFFCURVE",
"95 270 OFFCURVE",
"95 308 CURVE SMOOTH",
"95 358 OFFCURVE",
"102 417 OFFCURVE",
"118 475 CURVE SMOOTH",
"135 531 OFFCURVE",
"161 587 OFFCURVE",
"202 629 CURVE",
"239 665 OFFCURVE",
"284 689 OFFCURVE",
"332 704 CURVE SMOOTH",
"379 718 OFFCURVE",
"429 723 OFFCURVE",
"476 723 CURVE SMOOTH",
"548 723 OFFCURVE",
"621 709 OFFCURVE",
"679 668 CURVE"
);
}
);
width = 747;
}
);
unicode = 0043;
},
{
glyphname = D;
lastChange = "2014-11-05 03:31:07 -0500";
layers = (
{
anchors = (
{
name = bottom;
position = "{360, -10}";
},
{
name = center;
position = "{395, 355}";
},
{
name = top;
position = "{395, 710}";
}
);
layerId = "013FA67F-D7C9-4F04-AAC6-32032829ED9A";
name = "Bold Italic";
paths = (
{
closed = 1;
nodes = (
"275 638 LINE",
"275 636 OFFCURVE",
"275 634 OFFCURVE",
"275 633 CURVE",
"275 631 OFFCURVE",
"275 629 OFFCURVE",
"275 628 CURVE",
"273 628 OFFCURVE",
"271 628 OFFCURVE",
"270 628 CURVE SMOOTH",
"269 628 OFFCURVE",
"267 628 OFFCURVE",
"265 628 CURVE"
);
},
{
closed = 1;
nodes = (
"347 625 OFFCURVE",
"311 626 OFFCURVE",
"275 628 CURVE",
"270 482 OFFCURVE",
"260 342 OFFCURVE",
"242 197 CURVE",
"277 199 OFFCURVE",
"312 199 OFFCURVE",
"347 200 CURVE SMOOTH",
"350 200 OFFCURVE",
"352 200 OFFCURVE",
"354 200 CURVE",
"357 200 OFFCURVE",
"359 200 OFFCURVE",
"362 200 CURVE SMOOTH",
"393 201 OFFCURVE",
"424 203 OFFCURVE",
"454 207 CURVE SMOOTH",
"484 211 OFFCURVE",
"514 220 OFFCURVE",
"541 236 CURVE",
"541 236 LINE",
"564 251 OFFCURVE",
"581 274 OFFCURVE",
"594 298 CURVE SMOOTH",
"607 323 OFFCURVE",
"617 350 OFFCURVE",
"625 375 CURVE",
"627 390 OFFCURVE",
"627 406 OFFCURVE",
"627 421 CURVE SMOOTH",
"627 470 OFFCURVE",
"616 522 OFFCURVE",
"586 560 CURVE",
"561 585 OFFCURVE",
"527 601 OFFCURVE",
"492 610 CURVE SMOOTH",
"456 620 OFFCURVE",
"418 624 OFFCURVE",
"383 625 CURVE"
);
},
{
closed = 1;
nodes = (
"178 725 LINE",
"243 717 OFFCURVE",
"305 713 OFFCURVE",
"369 712 CURVE SMOOTH",
"419 709 OFFCURVE",
"474 707 OFFCURVE",
"525 695 CURVE SMOOTH",
"576 684 OFFCURVE",
"624 665 OFFCURVE",
"663 630 CURVE",
"688 604 OFFCURVE",
"705 573 OFFCURVE",
"714 539 CURVE SMOOTH",
"724 505 OFFCURVE",
"728 469 OFFCURVE",
"728 433 CURVE SMOOTH",
"728 383 OFFCURVE",
"724 320 OFFCURVE",
"708 259 CURVE SMOOTH",
"692 198 OFFCURVE",
"664 139 OFFCURVE",
"615 98 CURVE SMOOTH",
"570 63 OFFCURVE",
"520 44 OFFCURVE",
"468 33 CURVE SMOOTH",
"415 21 OFFCURVE",
"361 19 OFFCURVE",
"310 17 CURVE SMOOTH",
"277 15 OFFCURVE",
"243 14 OFFCURVE",
"208 12 CURVE SMOOTH",
"172 9 OFFCURVE",
"137 7 OFFCURVE",
"104 3 CURVE",
"147 225 OFFCURVE",
"168 441 OFFCURVE",
"168 654 CURVE SMOOTH",
"168 664 OFFCURVE",
"168 674 OFFCURVE",
"168 685 CURVE SMOOTH",
"168 695 OFFCURVE",
"168 705 OFFCURVE",
"168 715 CURVE"
);
}
);
width = 784;
}
);
unicode = 0044;
},
{
glyphname = E;
lastChange = "2014-11-05 03:31:07 -0500";
layers = (
{
anchors = (
{
name = bottom;
position = "{325, 0}";
},
{
name = ogonek;
position = "{599, 5}";
},
{
name = top;
position = "{325, 710}";
}
);
layerId = "013FA67F-D7C9-4F04-AAC6-32032829ED9A";
name = "Bold Italic";
paths = (
{
closed = 1;
nodes = (
"179 725 LINE",
"250 715 OFFCURVE",
"322 710 OFFCURVE",
"395 710 CURVE SMOOTH",
"469 710 OFFCURVE",
"546 715 OFFCURVE",
"628 725 CURVE",
"622 685 LINE SMOOTH",
"619 669 OFFCURVE",
"616 648 OFFCURVE",
"614 633 CURVE",
"538 625 OFFCURVE",
"467 622 OFFCURVE",
"398 622 CURVE SMOOTH",
"352 622 OFFCURVE",
"315 623 OFFCURVE",
"270 625 CURVE",
"268 592 OFFCURVE",
"266 560 OFFCURVE",
"264 529 CURVE SMOOTH",
"261 498 OFFCURVE",
"259 465 OFFCURVE",
"257 431 CURVE",
"294 431 OFFCURVE",
"328 430 OFFCURVE",
"365 430 CURVE SMOOTH",
"432 430 OFFCURVE",
"509 432 OFFCURVE",
"576 433 CURVE",
"572 414 OFFCURVE",
"569 387 OFFCURVE",
"568 368 CURVE",
"568 365 OFFCURVE",
"568 361 OFFCURVE",
"567 355 CURVE SMOOTH",
"567 350 OFFCURVE",
"567 346 OFFCURVE",
"567 343 CURVE",
"541 343 OFFCURVE",
"513 343 OFFCURVE",
"483 343 CURVE SMOOTH",
"453 343 OFFCURVE",
"425 343 OFFCURVE",
"399 343 CURVE SMOOTH",
"249 343 LINE",
"247 312 OFFCURVE",
"244 284 OFFCURVE",
"241 255 CURVE SMOOTH",
"240 241 OFFCURVE",
"238 227 OFFCURVE",
"236 212 CURVE SMOOTH",
"235 198 OFFCURVE",
"233 183 OFFCURVE",
"231 168 CURVE",
"273 169 OFFCURVE",
"313 170 OFFCURVE",
"354 170 CURVE SMOOTH",
"425 170 OFFCURVE",
"498 167 OFFCURVE",
"577 161 CURVE",
"575 138 OFFCURVE",
"575 110 OFFCURVE",
"574 83 CURVE SMOOTH",
"574 68 OFFCURVE",
"574 55 OFFCURVE",
"574 41 CURVE SMOOTH",
"574 27 OFFCURVE",
"574 15 OFFCURVE",
"574 3 CURVE",
"493 13 OFFCURVE",
"416 18 OFFCURVE",
"343 18 CURVE SMOOTH",
"269 18 OFFCURVE",
"189 13 OFFCURVE",
"105 3 CURVE",
"146 246 OFFCURVE",
"166 481 OFFCURVE",
"168 715 CURVE"
);
}
);
width = 704;
}
);
unicode = 0045;
},
{
glyphname = F;
lastChange = "2014-11-05 03:31:07 -0500";
layers = (
{
layerId = "013FA67F-D7C9-4F04-AAC6-32032829ED9A";
name = "Bold Italic";
paths = (
{
closed = 1;
nodes = (
"179 722 LINE",
"236 714 OFFCURVE",
"293 710 OFFCURVE",
"352 710 CURVE SMOOTH",
"418 710 OFFCURVE",
"490 715 OFFCURVE",
"568 727 CURVE",
"567 720 OFFCURVE",
"566 712 OFFCURVE",
"565 704 CURVE SMOOTH",
"563 696 OFFCURVE",
"563 687 OFFCURVE",
"561 678 CURVE SMOOTH",
"560 669 OFFCURVE",
"559 660 OFFCURVE",
"557 652 CURVE SMOOTH",
"556 644 OFFCURVE",
"555 636 OFFCURVE",
"554 629 CURVE",
"481 621 OFFCURVE",
"413 617 OFFCURVE",
"345 617 CURVE SMOOTH",
"316 617 OFFCURVE",
"295 617 OFFCURVE",
"267 619 CURVE",
"265 603 OFFCURVE",
"263 586 OFFCURVE",
"262 571 CURVE SMOOTH",
"258 541 OFFCURVE",
"255 511 OFFCURVE",
"251 480 CURVE SMOOTH",
"249 464 OFFCURVE",
"247 448 OFFCURVE",
"245 432 CURVE",
"250 432 OFFCURVE",
"255 432 OFFCURVE",
"261 432 CURVE",
"268 431 OFFCURVE",
"273 431 OFFCURVE",
"277 431 CURVE SMOOTH",
"321 431 LINE SMOOTH",
"379 431 OFFCURVE",
"447 432 OFFCURVE",
"506 434 CURVE",
"504 424 OFFCURVE",
"503 412 OFFCURVE",
"502 399 CURVE",
"501 393 OFFCURVE",
"500 386 OFFCURVE",
"500 380 CURVE SMOOTH",
"500 374 OFFCURVE",
"499 369 OFFCURVE",
"499 364 CURVE SMOOTH",
"495 325 LINE",
"480 326 OFFCURVE",
"465 326 OFFCURVE",
"448 326 CURVE SMOOTH",
"431 326 OFFCURVE",
"416 326 OFFCURVE",
"401 326 CURVE SMOOTH",
"387 326 OFFCURVE",
"373 326 OFFCURVE",
"359 326 CURVE SMOOTH",
"345 325 OFFCURVE",
"331 325 OFFCURVE",
"316 325 CURVE SMOOTH",
"240 325 LINE",
"234 224 OFFCURVE",
"226 117 OFFCURVE",
"216 16 CURVE",
"175 13 OFFCURVE",
"132 10 OFFCURVE",
"85 3 CURVE",
"131 244 OFFCURVE",
"156 480 OFFCURVE",
"167 713 CURVE"
);
}
);
width = 556;
}
);
unicode = 0046;
},
{
glyphname = G;
lastChange = "2014-11-05 03:31:07 -0500";
layers = (
{
anchors = (
{
name = bottom;
position = "{432, 0}";
},
{
name = top;
position = "{432, 710}";
}
);
layerId = "013FA67F-D7C9-4F04-AAC6-32032829ED9A";
name = "Bold Italic";
paths = (
{
closed = 1;
nodes = (
"564 191 LINE",
"563 190 LINE",
"564 190 OFFCURVE",
"564 191 OFFCURVE",
"564 191 CURVE"
);
},
{
closed = 1;
nodes = (
"425 164 LINE",
"437 164 OFFCURVE",
"449 164 OFFCURVE",
"462 165 CURVE",
"488 165 OFFCURVE",
"514 168 OFFCURVE",
"536 176 CURVE SMOOTH",
"546 179 OFFCURVE",
"556 185 OFFCURVE",
"563 192 CURVE SMOOTH",
"564 193 LINE",
"565 205 OFFCURVE",
"566 216 OFFCURVE",
"566 228 CURVE SMOOTH",
"567 239 OFFCURVE",
"568 250 OFFCURVE",
"568 261 CURVE",
"545 262 OFFCURVE",
"521 262 OFFCURVE",
"497 262 CURVE SMOOTH",
"472 262 OFFCURVE",
"448 262 OFFCURVE",
"425 262 CURVE",
"435 371 LINE",
"562 371 LINE SMOOTH",
"582 371 OFFCURVE",
"603 371 OFFCURVE",
"626 372 CURVE SMOOTH",
"649 372 OFFCURVE",
"670 372 OFFCURVE",
"690 372 CURVE",
"681 270 OFFCURVE",
"676 171 OFFCURVE",
"676 73 CURVE",
"595 22 OFFCURVE",
"505 5 OFFCURVE",
"418 5 CURVE SMOOTH",
"372 5 OFFCURVE",
"322 10 OFFCURVE",
"276 23 CURVE SMOOTH",
"231 37 OFFCURVE",
"189 60 OFFCURVE",
"157 96 CURVE",
"134 124 OFFCURVE",
"120 157 OFFCURVE",
"110 192 CURVE SMOOTH",
"100 228 OFFCURVE",
"96 265 OFFCURVE",
"96 301 CURVE SMOOTH",
"96 353 OFFCURVE",
"101 414 OFFCURVE",
"117 473 CURVE SMOOTH",
"133 531 OFFCURVE",
"159 588 OFFCURVE",
"204 631 CURVE SMOOTH",
"239 664 OFFCURVE",
"285 688 OFFCURVE",
"332 702 CURVE SMOOTH",
"379 717 OFFCURVE",
"429 723 OFFCURVE",
"474 723 CURVE SMOOTH",
"515 723 OFFCURVE",
"556 720 OFFCURVE",
"596 711 CURVE SMOOTH",
"637 703 OFFCURVE",
"675 688 OFFCURVE",
"711 665 CURVE",
"707 639 LINE SMOOTH",
"706 634 OFFCURVE",
"705 628 OFFCURVE",
"704 622 CURVE SMOOTH",
"703 614 OFFCURVE",
"702 607 OFFCURVE",
"701 600 CURVE",
"698 586 OFFCURVE",
"696 571 OFFCURVE",
"695 561 CURVE",
"632 619 OFFCURVE",
"553 646 OFFCURVE",
"477 646 CURVE SMOOTH",
"444 646 OFFCURVE",
"409 642 OFFCURVE",
"375 632 CURVE SMOOTH",
"341 623 OFFCURVE",
"309 607 OFFCURVE",
"283 583 CURVE",
"252 550 OFFCURVE",
"232 509 OFFCURVE",
"220 467 CURVE SMOOTH",
"208 425 OFFCURVE",
"204 382 OFFCURVE",
"204 343 CURVE SMOOTH",
"204 318 OFFCURVE",
"205 291 OFFCURVE",
"211 267 CURVE SMOOTH",
"218 243 OFFCURVE",
"229 221 OFFCURVE",
"248 205 CURVE",
"248 206 LINE",
"271 188 OFFCURVE",
"301 178 OFFCURVE",
"332 172 CURVE SMOOTH",
"362 166 OFFCURVE",
"394 164 OFFCURVE",
"425 164 CURVE SMOOTH",
"426 164 LINE"
);
}
);
width = 791;
}
);
unicode = 0047;
},
{
glyphname = H;
lastChange = "2014-11-05 03:31:07 -0500";
layers = (
{
anchors = (
{
name = bottom;
position = "{373, 7}";
},
{
name = center;
position = "{387, 355}";
},
{
name = top;
position = "{387, 710}";
}
);
layerId = "013FA67F-D7C9-4F04-AAC6-32032829ED9A";
name = "Bold Italic";
paths = (
{
closed = 1;
nodes = (
"179 724 LINE",
"208 719 OFFCURVE",
"241 716 OFFCURVE",
"277 715 CURVE",
"273 604 OFFCURVE",
"268 497 OFFCURVE",
"258 385 CURVE",
"265 385 OFFCURVE",
"271 385 OFFCURVE",
"276 385 CURVE",
"282 385 OFFCURVE",
"288 385 OFFCURVE",
"294 385 CURVE SMOOTH",
"341 385 LINE SMOOTH",
"417 385 OFFCURVE",
"483 385 OFFCURVE",
"559 386 CURVE",
"568 493 OFFCURVE",
"582 608 OFFCURVE",
"599 715 CURVE",
"644 719 LINE SMOOTH",
"653 719 OFFCURVE",
"665 720 OFFCURVE",
"677 722 CURVE",
"684 722 OFFCURVE",
"689 723 OFFCURVE",
"695 724 CURVE SMOOTH",
"701 724 OFFCURVE",
"707 725 OFFCURVE",
"711 725 CURVE",
"674 516 OFFCURVE",
"655 314 OFFCURVE",
"655 117 CURVE SMOOTH",
"655 82 OFFCURVE",
"656 38 OFFCURVE",
"657 3 CURVE",
"641 5 OFFCURVE",
"620 7 OFFCURVE",
"598 9 CURVE",
"587 10 OFFCURVE",
"577 11 OFFCURVE",
"566 12 CURVE",
"556 12 OFFCURVE",
"546 13 OFFCURVE",
"538 14 CURVE",
"539 92 OFFCURVE",
"541 168 OFFCURVE",
"546 246 CURVE",
"521 247 OFFCURVE",
"497 247 OFFCURVE",
"472 247 CURVE SMOOTH",
"447 247 OFFCURVE",
"422 247 OFFCURVE",
"397 247 CURVE SMOOTH",
"370 247 OFFCURVE",
"345 247 OFFCURVE",
"321 247 CURVE SMOOTH",
"297 247 OFFCURVE",
"272 247 OFFCURVE",
"246 246 CURVE",
"237 171 OFFCURVE",
"227 88 OFFCURVE",
"216 14 CURVE",
"199 12 OFFCURVE",
"177 11 OFFCURVE",
"155 9 CURVE SMOOTH",
"144 8 OFFCURVE",
"133 7 OFFCURVE",
"123 6 CURVE",
"112 5 OFFCURVE",
"103 4 OFFCURVE",
"94 3 CURVE",
"144 246 OFFCURVE",
"165 480 OFFCURVE",
"167 714 CURVE"
);
}
);
width = 787;
}
);
unicode = 0048;
},
{
glyphname = I;
lastChange = "2014-11-05 03:31:07 -0500";
layers = (
{
anchors = (
{
name = bottom;
position = "{147, -32}";
},
{
name = ogonek;
position = "{261, 21}";
},
{
name = top;
position = "{227, 710}";
}
);
layerId = "013FA67F-D7C9-4F04-AAC6-32032829ED9A";
name = "Bold Italic";
paths = (
{
closed = 1;
nodes = (
"179 716 LINE",
"190 713 OFFCURVE",
"202 710 OFFCURVE",
"213 710 CURVE SMOOTH",
"227 710 OFFCURVE",
"246 716 OFFCURVE",
"269 726 CURVE",
"258 610 OFFCURVE",
"248 486 OFFCURVE",
"239 362 CURVE SMOOTH",
"229 238 OFFCURVE",
"221 114 OFFCURVE",
"215 -2 CURVE",
"192 11 OFFCURVE",
"172 18 OFFCURVE",
"155 18 CURVE SMOOTH",
"138 18 OFFCURVE",
"116 11 OFFCURVE",
"89 -2 CURVE",
"118 230 OFFCURVE",
"145 476 OFFCURVE",
"167 708 CURVE"
);
}
);
width = 346;
}
);
unicode = 0049;
},
{
glyphname = J;
lastChange = "2014-11-05 03:31:07 -0500";
layers = (
{
anchors = (
{
name = top;
position = "{195, 710}";
}
);
layerId = "013FA67F-D7C9-4F04-AAC6-32032829ED9A";
name = "Bold Italic";
paths = (
{
closed = 1;
nodes = (
"274 709 LINE",
"304 711 OFFCURVE",
"334 712 OFFCURVE",
"377 722 CURVE",
"340 499 OFFCURVE",
"311 265 OFFCURVE",
"286 42 CURVE SMOOTH",
"282 12 OFFCURVE",
"279 -20 OFFCURVE",
"270 -50 CURVE SMOOTH",
"261 -80 OFFCURVE",
"246 -109 OFFCURVE",
"222 -133 CURVE",
"201 -150 OFFCURVE",
"178 -162 OFFCURVE",
"154 -169 CURVE SMOOTH",
"130 -177 OFFCURVE",
"104 -182 OFFCURVE",
"80 -186 CURVE SMOOTH",
"56 -190 LINE",
"47 -190 OFFCURVE",
"35 -191 OFFCURVE",
"23 -193 CURVE",
"18 -193 OFFCURVE",
"12 -194 OFFCURVE",
"6 -195 CURVE SMOOTH",
"0 -195 OFFCURVE",
"-4 -196 OFFCURVE",
"-9 -196 CURVE",
"-3 -159 OFFCURVE",
"1 -111 OFFCURVE",
"5 -74 CURVE SMOOTH",
"6 -68 OFFCURVE",
"7 -61 OFFCURVE",
"8 -51 CURVE",
"8 -42 OFFCURVE",
"9 -34 OFFCURVE",
"10 -28 CURVE",
"39 -31 LINE",
"59 -32 LINE",
"84 -28 OFFCURVE",
"112 -21 OFFCURVE",
"136 -7 CURVE SMOOTH",
"159 6 OFFCURVE",
"177 26 OFFCURVE",
"181 55 CURVE",
"181 55 LINE",
"208 271 OFFCURVE",
"233 484 OFFCURVE",
"265 701 CURVE"
);
}
);
width = 412;
}
);
unicode = 004A;
},
{
glyphname = K;
lastChange = "2014-11-05 03:31:07 -0500";
layers = (
{
anchors = (
{
name = bottom;
position = "{360, 0}";
},
{
name = top;
position = "{360, 710}";
}
);
layerId = "013FA67F-D7C9-4F04-AAC6-32032829ED9A";
name = "Bold Italic";
paths = (
{
closed = 1;
nodes = (
"178 722 LINE",
"207 719 OFFCURVE",
"244 716 OFFCURVE",
"273 715 CURVE",
"271 665 OFFCURVE",
"267 619 OFFCURVE",
"264 573 CURVE SMOOTH",
"260 526 OFFCURVE",
"256 481 OFFCURVE",
"250 431 CURVE",
"327 500 OFFCURVE",
"405 568 OFFCURVE",
"484 635 CURVE SMOOTH",
"499 647 OFFCURVE",
"514 661 OFFCURVE",
"530 675 CURVE SMOOTH",
"546 688 OFFCURVE",
"561 702 OFFCURVE",
"576 714 CURVE",
"605 716 OFFCURVE",
"635 717 OFFCURVE",
"665 720 CURVE SMOOTH",
"717 723 LINE",
"569 595 LINE SMOOTH",
"530 561 OFFCURVE",
"491 526 OFFCURVE",
"451 491 CURVE SMOOTH",
"412 457 OFFCURVE",
"372 422 OFFCURVE",
"333 387 CURVE",
"337 382 OFFCURVE",
"342 376 OFFCURVE",
"347 371 CURVE SMOOTH",
"352 365 OFFCURVE",
"356 359 OFFCURVE",
"361 354 CURVE",
"409 300 OFFCURVE",
"465 238 OFFCURVE",
"520 177 CURVE SMOOTH",
"575 115 OFFCURVE",
"631 54 OFFCURVE",
"679 2 CURVE",
"591 11 OFFCURVE",
"512 16 OFFCURVE",
"438 18 CURVE",
"401 73 OFFCURVE",
"369 124 OFFCURVE",
"338 175 CURVE SMOOTH",
"307 226 OFFCURVE",
"276 277 OFFCURVE",
"242 334 CURVE",
"238 229 OFFCURVE",
"230 118 OFFCURVE",
"221 14 CURVE",
"211 14 OFFCURVE",
"201 13 OFFCURVE",
"189 12 CURVE",
"177 11 OFFCURVE",
"166 10 OFFCURVE",
"153 10 CURVE",
"129 8 OFFCURVE",
"104 5 OFFCURVE",
"85 3 CURVE",
"136 246 OFFCURVE",
"163 480 OFFCURVE",
"167 713 CURVE"
);
}
);
width = 810;
}
);
unicode = 004B;
},
{
glyphname = L;
lastChange = "2014-11-05 03:31:07 -0500";
layers = (
{
anchors = (
{
name = bottom;
position = "{299, 0}";
},
{
name = dot;
position = "{315, 425}";
},
{
name = top;
position = "{271, 710}";
}
);
layerId = "013FA67F-D7C9-4F04-AAC6-32032829ED9A";
name = "Bold Italic";
paths = (
{
closed = 1;
nodes = (
"179 723 LINE",
"208 719 OFFCURVE",
"237 715 OFFCURVE",
"272 714 CURVE",
"263 531 OFFCURVE",
"249 351 OFFCURVE",
"226 168 CURVE",
"265 169 OFFCURVE",
"304 170 OFFCURVE",
"343 170 CURVE SMOOTH",
"411 170 OFFCURVE",
"480 167 OFFCURVE",
"557 161 CURVE",
"554 138 OFFCURVE",
"551 111 OFFCURVE",
"549 83 CURVE SMOOTH",
"547 56 OFFCURVE",
"545 28 OFFCURVE",
"543 5 CURVE",
"469 14 OFFCURVE",
"398 18 OFFCURVE",
"327 18 CURVE SMOOTH",
"254 18 OFFCURVE",
"176 13 OFFCURVE",
"94 3 CURVE",
"139 244 OFFCURVE",
"162 482 OFFCURVE",
"167 714 CURVE"
);
}
);
width = 673;
}
);
unicode = 004C;
},
{
glyphname = M;
lastChange = "2014-11-05 03:31:07 -0500";
layers = (
{
anchors = (
{
name = top;
position = "{508, 552}";
}
);
layerId = "013FA67F-D7C9-4F04-AAC6-32032829ED9A";
name = "Bold Italic";
paths = (
{
closed = 1;
nodes = (
"178 723 LINE",
"223 719 OFFCURVE",
"272 715 OFFCURVE",
"317 713 CURVE",
"344 645 OFFCURVE",
"368 581 OFFCURVE",
"390 515 CURVE SMOOTH",
"413 450 OFFCURVE",
"434 384 OFFCURVE",
"456 314 CURVE",
"484 367 LINE SMOOTH",
"544 482 OFFCURVE",
"607 604 OFFCURVE",
"675 714 CURVE",
"696 715 OFFCURVE",
"722 717 OFFCURVE",
"747 719 CURVE SMOOTH",
"760 720 OFFCURVE",
"772 721 OFFCURVE",
"785 722 CURVE",
"797 722 OFFCURVE",
"809 723 OFFCURVE",
"819 724 CURVE",
"784 535 OFFCURVE",
"765 353 OFFCURVE",
"765 173 CURVE SMOOTH",
"765 120 OFFCURVE",
"767 57 OFFCURVE",
"770 4 CURVE",
"751 6 OFFCURVE",
"728 7 OFFCURVE",
"705 9 CURVE",
"693 10 OFFCURVE",
"682 11 OFFCURVE",
"670 11 CURVE SMOOTH",
"659 12 OFFCURVE",
"648 13 OFFCURVE",
"639 13 CURVE",
"643 210 OFFCURVE",
"664 400 OFFCURVE",
"696 588 CURVE",
"636 460 OFFCURVE",
"583 332 OFFCURVE",
"530 201 CURVE",
"530 201 LINE",
"526 190 OFFCURVE",
"521 177 OFFCURVE",
"515 164 CURVE SMOOTH",
"509 150 OFFCURVE",
"504 138 OFFCURVE",
"500 126 CURVE",
"467 126 LINE SMOOTH",
"462 126 OFFCURVE",
"458 126 OFFCURVE",
"454 127 CURVE",
"450 127 OFFCURVE",
"445 127 OFFCURVE",
"441 127 CURVE SMOOTH",
"437 127 OFFCURVE",
"432 127 OFFCURVE",
"428 127 CURVE",
"423 126 OFFCURVE",
"418 126 OFFCURVE",
"414 126 CURVE SMOOTH",
"381 126 LINE",
"351 250 LINE SMOOTH",
"325 362 OFFCURVE",
"296 480 OFFCURVE",
"263 591 CURVE",
"263 400 OFFCURVE",
"249 208 OFFCURVE",
"223 13 CURVE",
"204 12 OFFCURVE",
"180 11 OFFCURVE",
"156 9 CURVE SMOOTH",
"132 7 OFFCURVE",
"108 6 OFFCURVE",
"89 4 CURVE",
"144 245 OFFCURVE",
"167 482 OFFCURVE",
"167 714 CURVE"
);
}
);
width = 900;
}
);
unicode = 004D;
},
{
glyphname = N;
lastChange = "2014-11-05 03:31:07 -0500";
layers = (
{
anchors = (
{
name = bottom;
position = "{378, 0}";
},
{
name = top;
position = "{378, 710}";
}
);
layerId = "013FA67F-D7C9-4F04-AAC6-32032829ED9A";
name = "Bold Italic";
paths = (
{
closed = 1;
nodes = (
"175 708 LINE",
"206 704 OFFCURVE",
"235 702 OFFCURVE",
"266 700 CURVE",
"266 700 LINE",
"269 700 OFFCURVE",
"273 700 OFFCURVE",
"278 700 CURVE SMOOTH",
"283 699 OFFCURVE",
"287 699 OFFCURVE",
"290 699 CURVE",
"343 596 OFFCURVE",
"392 485 OFFCURVE",
"438 379 CURVE SMOOTH",
"447 359 OFFCURVE",
"456 341 OFFCURVE",
"463 324 CURVE SMOOTH",
"478 290 OFFCURVE",
"492 258 OFFCURVE",
"508 225 CURVE SMOOTH",
"516 208 OFFCURVE",
"524 189 OFFCURVE",
"534 169 CURVE",
"547 351 OFFCURVE",
"570 533 OFFCURVE",
"605 717 CURVE",
"611 717 OFFCURVE",
"619 718 OFFCURVE",
"628 719 CURVE",
"636 719 OFFCURVE",
"646 720 OFFCURVE",
"655 721 CURVE",
"664 722 OFFCURVE",
"673 723 OFFCURVE",
"682 724 CURVE SMOOTH",
"690 725 OFFCURVE",
"698 726 OFFCURVE",
"704 726 CURVE",
"663 503 OFFCURVE",
"640 284 OFFCURVE",
"640 70 CURVE SMOOTH",
"640 51 OFFCURVE",
"641 23 OFFCURVE",
"641 4 CURVE",
"620 6 OFFCURVE",
"594 9 OFFCURVE",
"568 11 CURVE SMOOTH",
"542 13 OFFCURVE",
"516 14 OFFCURVE",
"495 16 CURVE",
"441 123 OFFCURVE",
"392 235 OFFCURVE",
"345 345 CURVE SMOOTH",
"328 386 OFFCURVE",
"311 425 OFFCURVE",
"295 464 CURVE SMOOTH",
"279 503 OFFCURVE",
"262 542 OFFCURVE",
"244 582 CURVE",
"242 395 OFFCURVE",
"232 209 OFFCURVE",
"214 14 CURVE",
"205 14 OFFCURVE",
"194 13 OFFCURVE",
"183 12 CURVE",
"172 11 OFFCURVE",
"160 10 OFFCURVE",
"148 10 CURVE",
"125 8 OFFCURVE",
"101 5 OFFCURVE",
"82 3 CURVE",
"132 241 OFFCURVE",
"158 471 OFFCURVE",
"164 699 CURVE"
);
}
);
width = 771;
}
);
unicode = 004E;
},
{
glyphname = O;
lastChange = "2014-11-05 03:31:07 -0500";
layers = (
{
anchors = (
{
name = bottom;
position = "{355, -21}";
},
{
name = horncomb;
position = "{688, 493}";
},
{
name = top;
position = "{440, 710}";
}
);
layerId = "013FA67F-D7C9-4F04-AAC6-32032829ED9A";
name = "Bold Italic";
paths = (
{
closed = 1;
nodes = (
"408 637 OFFCURVE",
"377 632 OFFCURVE",
"349 620 CURVE SMOOTH",
"321 608 OFFCURVE",
"295 591 OFFCURVE",
"275 565 CURVE SMOOTH",
"248 533 OFFCURVE",
"230 493 OFFCURVE",
"219 452 CURVE SMOOTH",
"208 411 OFFCURVE",
"203 368 OFFCURVE",
"203 330 CURVE SMOOTH",
"203 309 OFFCURVE",
"205 288 OFFCURVE",
"211 270 CURVE SMOOTH",
"217 251 OFFCURVE",
"228 234 OFFCURVE",
"245 224 CURVE SMOOTH",
"266 210 OFFCURVE",
"292 202 OFFCURVE",
"317 197 CURVE SMOOTH",
"343 192 OFFCURVE",
"370 190 OFFCURVE",
"396 190 CURVE SMOOTH",
"449 190 OFFCURVE",
"507 199 OFFCURVE",
"554 225 CURVE",
"584 244 OFFCURVE",
"601 277 OFFCURVE",
"611 313 CURVE SMOOTH",
"620 347 OFFCURVE",
"622 384 OFFCURVE",
"622 412 CURVE SMOOTH",
"622 468 OFFCURVE",
"613 522 OFFCURVE",
"585 567 CURVE",
"585 567 LINE",
"553 614 OFFCURVE",
"497 637 OFFCURVE",
"438 637 CURVE SMOOTH"
);
},
{
closed = 1;
nodes = (
"487 723 OFFCURVE",
"531 716 OFFCURVE",
"570 701 CURVE SMOOTH",
"610 686 OFFCURVE",
"646 663 OFFCURVE",
"671 628 CURVE SMOOTH",
"693 600 OFFCURVE",
"707 567 OFFCURVE",
"716 533 CURVE SMOOTH",
"725 498 OFFCURVE",
"728 461 OFFCURVE",
"728 425 CURVE SMOOTH",
"728 371 OFFCURVE",
"722 312 OFFCURVE",
"706 255 CURVE SMOOTH",
"690 198 OFFCURVE",
"665 144 OFFCURVE",
"625 98 CURVE",
"592 63 OFFCURVE",
"552 39 OFFCURVE",
"509 25 CURVE SMOOTH",
"466 11 OFFCURVE",
"420 5 OFFCURVE",
"375 5 CURVE SMOOTH",
"333 5 OFFCURVE",
"291 12 OFFCURVE",
"252 27 CURVE SMOOTH",
"213 42 OFFCURVE",
"179 65 OFFCURVE",
"154 99 CURVE SMOOTH",
"132 126 OFFCURVE",
"119 159 OFFCURVE",
"110 194 CURVE SMOOTH",
"101 229 OFFCURVE",
"97 265 OFFCURVE",
"97 302 CURVE SMOOTH",
"97 354 OFFCURVE",
"102 414 OFFCURVE",
"117 471 CURVE SMOOTH",
"132 529 OFFCURVE",
"157 584 OFFCURVE",
"200 629 CURVE",
"199 629 LINE",
"231 664 OFFCURVE",
"271 688 OFFCURVE",
"313 702 CURVE SMOOTH",
"355 717 OFFCURVE",
"400 723 OFFCURVE",
"444 723 CURVE SMOOTH"
);
}
);
width = 784;
}
);
unicode = 004F;
},
{
glyphname = P;
lastChange = "2014-11-05 03:31:07 -0500";
layers = (
{
layerId = "013FA67F-D7C9-4F04-AAC6-32032829ED9A";
name = "Bold Italic";
paths = (
{
closed = 1;
nodes = (
"275 672 LINE",
"274 663 LINE",
"273 663 OFFCURVE",
"272 663 OFFCURVE",
"271 663 CURVE SMOOTH",
"269 663 OFFCURVE",
"267 663 OFFCURVE",
"266 663 CURVE"
);
},
{
closed = 1;
nodes = (
"351 661 OFFCURVE",
"313 661 OFFCURVE",
"274 663 CURVE",
"267 577 OFFCURVE",
"260 500 OFFCURVE",
"250 415 CURVE",
"293 414 OFFCURVE",
"335 414 OFFCURVE",
"378 414 CURVE SMOOTH",
"412 414 OFFCURVE",
"447 428 OFFCURVE",
"472 451 CURVE SMOOTH",
"498 475 OFFCURVE",
"515 507 OFFCURVE",
"516 542 CURVE",
"517 550 OFFCURVE",
"517 557 OFFCURVE",
"517 563 CURVE SMOOTH",
"517 604 OFFCURVE",
"499 629 OFFCURVE",
"473 644 CURVE SMOOTH",
"448 657 OFFCURVE",
"416 661 OFFCURVE",
"390 661 CURVE SMOOTH"
);
},
{
closed = 1;
nodes = (
"178 721 LINE",
"246 713 OFFCURVE",
"314 710 OFFCURVE",
"383 710 CURVE SMOOTH",
"411 710 OFFCURVE",
"438 709 OFFCURVE",
"465 705 CURVE SMOOTH",
"492 700 OFFCURVE",
"517 692 OFFCURVE",
"541 678 CURVE",
"564 663 OFFCURVE",
"580 642 OFFCURVE",
"589 619 CURVE SMOOTH",
"599 596 OFFCURVE",
"603 571 OFFCURVE",
"603 545 CURVE SMOOTH",
"603 511 OFFCURVE",
"597 473 OFFCURVE",
"585 437 CURVE SMOOTH",
"573 401 OFFCURVE",
"553 366 OFFCURVE",
"525 340 CURVE SMOOTH",
"500 317 OFFCURVE",
"472 304 OFFCURVE",
"441 295 CURVE SMOOTH",
"410 286 OFFCURVE",
"378 283 OFFCURVE",
"348 283 CURVE SMOOTH",
"329 283 OFFCURVE",
"311 283 OFFCURVE",
"295 283 CURVE SMOOTH",
"279 283 OFFCURVE",
"261 283 OFFCURVE",
"242 283 CURVE",
"230 195 OFFCURVE",
"217 101 OFFCURVE",
"202 15 CURVE",
"184 13 OFFCURVE",
"162 12 OFFCURVE",
"139 10 CURVE SMOOTH",
"116 8 OFFCURVE",
"93 5 OFFCURVE",
"75 3 CURVE",
"128 244 OFFCURVE",
"155 480 OFFCURVE",
"167 712 CURVE"
);
}
);
width = 625;
}
);
unicode = 0050;
},
{
glyphname = Q;
lastChange = "2014-11-05 03:31:07 -0500";
layers = (
{
layerId = "013FA67F-D7C9-4F04-AAC6-32032829ED9A";
name = "Bold Italic";
paths = (
{
closed = 1;
nodes = (
"376 634 OFFCURVE",
"316 613 OFFCURVE",
"275 563 CURVE SMOOTH",
"248 532 OFFCURVE",
"231 493 OFFCURVE",
"220 453 CURVE SMOOTH",
"208 413 OFFCURVE",
"204 372 OFFCURVE",
"204 334 CURVE SMOOTH",
"204 313 OFFCURVE",
"206 291 OFFCURVE",
"212 271 CURVE SMOOTH",
"218 252 OFFCURVE",
"229 235 OFFCURVE",
"247 224 CURVE SMOOTH",
"287 199 OFFCURVE",
"328 190 OFFCURVE",
"378 182 CURVE",
"396 208 LINE",
"400 213 OFFCURVE",
"404 220 OFFCURVE",
"410 227 CURVE",
"415 234 OFFCURVE",
"419 241 OFFCURVE",
"422 246 CURVE",
"459 229 OFFCURVE",
"493 218 OFFCURVE",
"528 212 CURVE",
"567 232 OFFCURVE",
"591 262 OFFCURVE",
"605 298 CURVE SMOOTH",
"619 333 OFFCURVE",
"624 373 OFFCURVE",
"624 412 CURVE SMOOTH",
"624 467 OFFCURVE",
"615 519 OFFCURVE",
"586 563 CURVE SMOOTH",
"571 587 OFFCURVE",
"548 605 OFFCURVE",
"523 617 CURVE SMOOTH",
"497 628 OFFCURVE",
"467 634 OFFCURVE",
"438 634 CURVE SMOOTH"
);
},
{
closed = 1;
nodes = (
"651 128 OFFCURVE",
"626 91 OFFCURVE",
"595 58 CURVE",
"629 15 OFFCURVE",
"664 -27 OFFCURVE",
"699 -69 CURVE SMOOTH",
"702 -72 OFFCURVE",
"705 -76 OFFCURVE",
"709 -81 CURVE",
"713 -85 OFFCURVE",
"718 -90 OFFCURVE",
"722 -96 CURVE SMOOTH",
"727 -101 OFFCURVE",
"731 -106 OFFCURVE",
"735 -111 CURVE",
"739 -116 OFFCURVE",
"743 -120 OFFCURVE",
"745 -123 CURVE",
"661 -114 OFFCURVE",
"582 -109 OFFCURVE",
"506 -107 CURVE",
"484 -81 LINE",
"485 -81 LINE",
"473 -66 OFFCURVE",
"461 -52 OFFCURVE",
"450 -39 CURVE SMOOTH",
"438 -25 OFFCURVE",
"427 -11 OFFCURVE",
"415 4 CURVE",
"405 3 OFFCURVE",
"395 3 OFFCURVE",
"384 3 CURVE SMOOTH",
"340 3 OFFCURVE",
"297 9 OFFCURVE",
"258 24 CURVE SMOOTH",
"219 39 OFFCURVE",
"184 62 OFFCURVE",
"158 97 CURVE SMOOTH",
"135 128 OFFCURVE",
"121 164 OFFCURVE",
"112 201 CURVE SMOOTH",
"102 238 OFFCURVE",
"99 278 OFFCURVE",
"99 317 CURVE SMOOTH",
"99 368 OFFCURVE",
"104 424 OFFCURVE",
"119 479 CURVE SMOOTH",
"134 533 OFFCURVE",
"159 585 OFFCURVE",
"199 627 CURVE SMOOTH",
"230 660 OFFCURVE",
"269 683 OFFCURVE",
"310 698 CURVE SMOOTH",
"350 713 OFFCURVE",
"394 720 OFFCURVE",
"435 720 CURVE SMOOTH",
"479 720 OFFCURVE",
"524 713 OFFCURVE",
"566 698 CURVE SMOOTH",
"607 683 OFFCURVE",
"646 659 OFFCURVE",
"673 625 CURVE SMOOTH",
"694 598 OFFCURVE",
"708 566 OFFCURVE",
"717 532 CURVE SMOOTH",
"727 498 OFFCURVE",
"730 461 OFFCURVE",
"730 426 CURVE SMOOTH",
"730 387 OFFCURVE",
"727 342 OFFCURVE",
"719 297 CURVE SMOOTH",
"710 253 OFFCURVE",
"696 208 OFFCURVE",
"675 169 CURVE SMOOTH"
);
}
);
width = 902;
}
);
unicode = 0051;
},
{
glyphname = R;
lastChange = "2014-11-05 03:31:07 -0500";
layers = (
{
anchors = (
{
name = bottom;
position = "{357, 0}";
},
{
name = top;
position = "{357, 710}";
}
);
layerId = "013FA67F-D7C9-4F04-AAC6-32032829ED9A";
name = "Bold Italic";
paths = (
{
closed = 1;
nodes = (
"599 504 OFFCURVE",
"591 462 OFFCURVE",
"574 426 CURVE SMOOTH",
"556 389 OFFCURVE",
"528 357 OFFCURVE",
"488 342 CURVE",
"510 330 OFFCURVE",
"527 311 OFFCURVE",
"541 290 CURVE SMOOTH",
"554 269 OFFCURVE",
"564 246 OFFCURVE",
"575 224 CURVE SMOOTH",
"581 209 LINE",
"581 209 LINE",
"594 177 OFFCURVE",
"610 141 OFFCURVE",
"627 105 CURVE SMOOTH",
"644 70 OFFCURVE",
"660 34 OFFCURVE",
"675 3 CURVE",
"654 5 OFFCURVE",
"628 8 OFFCURVE",
"602 10 CURVE SMOOTH",
"576 12 OFFCURVE",
"549 14 OFFCURVE",
"528 15 CURVE",
"506 74 OFFCURVE",
"485 137 OFFCURVE",
"466 197 CURVE",
"466 196 LINE",
"452 229 OFFCURVE",
"437 263 OFFCURVE",
"411 286 CURVE",
"411 285 LINE",
"388 301 OFFCURVE",
"360 306 OFFCURVE",
"331 306 CURVE SMOOTH",
"319 306 OFFCURVE",
"309 306 OFFCURVE",
"300 306 CURVE SMOOTH",
"291 306 OFFCURVE",
"280 306 OFFCURVE",
"269 306 CURVE",
"259 210 OFFCURVE",
"247 109 OFFCURVE",
"233 14 CURVE",
"215 13 OFFCURVE",
"193 11 OFFCURVE",
"170 9 CURVE SMOOTH",
"147 7 OFFCURVE",
"124 5 OFFCURVE",
"106 3 CURVE",
"149 236 OFFCURVE",
"170 461 OFFCURVE",
"170 685 CURVE SMOOTH",
"170 726 LINE",
"249 716 OFFCURVE",
"320 712 OFFCURVE",
"391 711 CURVE SMOOTH",
"440 709 OFFCURVE",
"490 703 OFFCURVE",
"533 678 CURVE",
"558 661 OFFCURVE",
"574 640 OFFCURVE",
"584 616 CURVE SMOOTH",
"595 592 OFFCURVE",
"599 566 OFFCURVE",
"599 541 CURVE SMOOTH"
);
},
{
closed = 1;
nodes = (
"283 665 LINE",
"283 664 OFFCURVE",
"283 662 OFFCURVE",
"283 660 CURVE",
"282 659 OFFCURVE",
"282 657 OFFCURVE",
"282 655 CURVE",
"272 656 LINE"
);
},
{
closed = 1;
nodes = (
"378 652 OFFCURVE",
"359 652 OFFCURVE",
"340 653 CURVE SMOOTH",
"321 653 OFFCURVE",
"302 654 OFFCURVE",
"282 655 CURVE",
"281 613 OFFCURVE",
"279 573 OFFCURVE",
"277 533 CURVE SMOOTH",
"275 493 OFFCURVE",
"272 453 OFFCURVE",
"269 411 CURVE",
"287 410 OFFCURVE",
"306 410 OFFCURVE",
"324 410 CURVE SMOOTH",
"342 410 OFFCURVE",
"360 410 OFFCURVE",
"378 410 CURVE SMOOTH",
"406 410 OFFCURVE",
"441 420 OFFCURVE",
"469 438 CURVE SMOOTH",
"497 456 OFFCURVE",
"519 481 OFFCURVE",
"522 510 CURVE",
"522 512 OFFCURVE",
"522 513 OFFCURVE",
"523 515 CURVE",
"523 516 OFFCURVE",
"523 517 OFFCURVE",
"523 519 CURVE",
"523 526 OFFCURVE",
"524 533 OFFCURVE",
"524 540 CURVE SMOOTH",
"524 573 OFFCURVE",
"517 604 OFFCURVE",
"492 622 CURVE SMOOTH",
"464 642 OFFCURVE",
"432 651 OFFCURVE",
"397 652 CURVE SMOOTH"
);
}
);
width = 805;
}
);
unicode = 0052;
},
{
glyphname = S;
lastChange = "2014-11-05 03:31:07 -0500";
layers = (
{
anchors = (
{
name = bottom;
position = "{339, 0}";
},
{
name = top;
position = "{406, 729}";
}
);
layerId = "013FA67F-D7C9-4F04-AAC6-32032829ED9A";
name = "Bold Italic";
paths = (
{
closed = 1;
nodes = (
"594 662 LINE",
"593 657 OFFCURVE",
"592 652 OFFCURVE",
"592 646 CURVE",
"591 640 OFFCURVE",
"590 634 OFFCURVE",
"589 627 CURVE SMOOTH",
"587 615 OFFCURVE",
"585 603 OFFCURVE",
"584 593 CURVE",
"521 620 OFFCURVE",
"457 637 OFFCURVE",
"394 637 CURVE SMOOTH",
"356 637 OFFCURVE",
"317 632 OFFCURVE",
"280 613 CURVE",
"281 613 LINE",
"246 590 OFFCURVE",
"232 557 OFFCURVE",
"232 523 CURVE SMOOTH",
"232 502 OFFCURVE",
"239 480 OFFCURVE",
"252 466 CURVE",
"265 456 OFFCURVE",
"281 448 OFFCURVE",
"298 443 CURVE SMOOTH",
"315 437 OFFCURVE",
"333 433 OFFCURVE",
"349 429 CURVE",
"377 423 LINE SMOOTH",
"426 414 OFFCURVE",
"474 403 OFFCURVE",
"517 374 CURVE SMOOTH",
"542 356 OFFCURVE",
"560 333 OFFCURVE",
"571 308 CURVE SMOOTH",
"583 282 OFFCURVE",
"588 253 OFFCURVE",
"588 225 CURVE SMOOTH",
"588 195 OFFCURVE",
"584 162 OFFCURVE",
"574 132 CURVE SMOOTH",
"563 102 OFFCURVE",
"544 74 OFFCURVE",
"517 54 CURVE",
"483 32 OFFCURVE",
"448 21 OFFCURVE",
"413 14 CURVE SMOOTH",
"377 7 OFFCURVE",
"342 5 OFFCURVE",
"307 5 CURVE SMOOTH",
"232 5 OFFCURVE",
"157 15 OFFCURVE",
"83 38 CURVE",
"86 62 OFFCURVE",
"91 90 OFFCURVE",
"95 119 CURVE SMOOTH",
"99 147 OFFCURVE",
"104 176 OFFCURVE",
"106 199 CURVE",
"174 160 OFFCURVE",
"246 140 OFFCURVE",
"318 140 CURVE SMOOTH",
"359 140 OFFCURVE",
"403 147 OFFCURVE",
"439 170 CURVE SMOOTH",
"449 176 OFFCURVE",
"461 186 OFFCURVE",
"469 196 CURVE SMOOTH",
"478 206 OFFCURVE",
"484 217 OFFCURVE",
"484 229 CURVE SMOOTH",
"484 262 OFFCURVE",
"459 284 OFFCURVE",
"427 300 CURVE SMOOTH",
"395 315 OFFCURVE",
"356 323 OFFCURVE",
"329 328 CURVE SMOOTH",
"313 332 LINE SMOOTH",
"287 337 OFFCURVE",
"260 344 OFFCURVE",
"236 354 CURVE SMOOTH",
"211 365 OFFCURVE",
"188 379 OFFCURVE",
"169 398 CURVE SMOOTH",
"141 430 OFFCURVE",
"131 474 OFFCURVE",
"131 517 CURVE SMOOTH",
"131 545 OFFCURVE",
"136 576 OFFCURVE",
"147 604 CURVE SMOOTH",
"158 631 OFFCURVE",
"176 656 OFFCURVE",
"203 675 CURVE SMOOTH",
"231 695 OFFCURVE",
"262 706 OFFCURVE",
"294 713 CURVE SMOOTH",
"325 721 OFFCURVE",
"358 723 OFFCURVE",
"390 723 CURVE SMOOTH",
"459 723 OFFCURVE",
"527 714 OFFCURVE",
"593 697 CURVE",
"590 691 LINE",
"598 690 LINE"
);
}
);
width = 678;
}
);
unicode = 0053;
},
{
glyphname = T;
lastChange = "2014-11-05 03:31:07 -0500";
layers = (
{
anchors = (
{
name = bottom;
position = "{423, 18}";
},
{
name = center;
position = "{482, 355}";
},
{
name = top;
position = "{482, 710}";
}
);
layerId = "013FA67F-D7C9-4F04-AAC6-32032829ED9A";
name = "Bold Italic";
paths = (
{
closed = 1;
nodes = (
"179 725 LINE",
"273 715 OFFCURVE",
"369 710 OFFCURVE",
"465 710 CURVE SMOOTH",
"568 710 OFFCURVE",
"671 715 OFFCURVE",
"780 726 CURVE",
"775 693 LINE SMOOTH",
"773 685 OFFCURVE",
"771 675 OFFCURVE",
"769 664 CURVE SMOOTH",
"767 652 OFFCURVE",
"765 643 OFFCURVE",
"763 634 CURVE",
"714 632 OFFCURVE",
"656 630 OFFCURVE",
"607 630 CURVE SMOOTH",
"574 630 OFFCURVE",
"550 630 OFFCURVE",
"519 631 CURVE",
"504 428 OFFCURVE",
"490 220 OFFCURVE",
"486 17 CURVE",
"468 18 OFFCURVE",
"441 18 OFFCURVE",
"423 18 CURVE SMOOTH",
"387 18 LINE SMOOTH",
"384 18 OFFCURVE",
"381 18 OFFCURVE",
"376 18 CURVE SMOOTH",
"372 18 OFFCURVE",
"368 18 OFFCURVE",
"364 18 CURVE",
"359 18 OFFCURVE",
"355 18 OFFCURVE",
"351 18 CURVE SMOOTH",
"346 18 OFFCURVE",
"343 18 OFFCURVE",
"340 18 CURVE",
"367 223 OFFCURVE",
"392 425 OFFCURVE",
"414 631 CURVE",
"406 631 OFFCURVE",
"398 631 OFFCURVE",
"390 631 CURVE SMOOTH",
"372 630 OFFCURVE",
"354 630 OFFCURVE",
"337 630 CURVE SMOOTH",
"329 630 OFFCURVE",
"321 630 OFFCURVE",
"313 630 CURVE SMOOTH",
"269 630 OFFCURVE",
"214 631 OFFCURVE",
"169 634 CURVE",
"169 658 OFFCURVE",
"168 691 OFFCURVE",
"168 715 CURVE"
);
}
);
width = 759;
}
);
unicode = 0054;
},
{
glyphname = U;
lastChange = "2014-11-05 03:31:07 -0500";
layers = (
{
anchors = (
{
name = bottom;
position = "{403, -28}";
},
{
name = horncomb;
position = "{666, 606}";
},
{
name = ogonek;
position = "{514, 27}";
},
{
name = top;
position = "{428, 710}";
}
);
layerId = "013FA67F-D7C9-4F04-AAC6-32032829ED9A";
name = "Bold Italic";
paths = (
{
closed = 1;
nodes = (
"178 724 LINE",
"208 720 OFFCURVE",
"243 716 OFFCURVE",
"272 714 CURVE",
"270 597 OFFCURVE",
"262 472 OFFCURVE",
"252 353 CURVE SMOOTH",
"251 336 OFFCURVE",
"250 318 OFFCURVE",
"250 302 CURVE SMOOTH",
"250 264 OFFCURVE",
"255 227 OFFCURVE",
"275 197 CURVE",
"274 197 LINE",
"287 180 OFFCURVE",
"305 168 OFFCURVE",
"327 162 CURVE SMOOTH",
"348 156 OFFCURVE",
"372 154 OFFCURVE",
"394 154 CURVE SMOOTH",
"416 154 OFFCURVE",
"440 156 OFFCURVE",
"463 163 CURVE SMOOTH",
"485 170 OFFCURVE",
"506 181 OFFCURVE",
"521 198 CURVE",
"538 220 OFFCURVE",
"549 246 OFFCURVE",
"557 273 CURVE SMOOTH",
"565 300 OFFCURVE",
"569 329 OFFCURVE",
"571 355 CURVE SMOOTH",
"574 384 OFFCURVE",
"577 414 OFFCURVE",
"581 444 CURVE SMOOTH",
"586 505 OFFCURVE",
"594 567 OFFCURVE",
"603 627 CURVE SMOOTH",
"606 658 OFFCURVE",
"611 687 OFFCURVE",
"616 715 CURVE",
"637 717 OFFCURVE",
"665 719 OFFCURVE",
"686 722 CURVE SMOOTH",
"723 725 LINE",
"692 569 OFFCURVE",
"677 422 OFFCURVE",
"666 275 CURVE SMOOTH",
"663 241 OFFCURVE",
"658 204 OFFCURVE",
"647 169 CURVE SMOOTH",
"637 134 OFFCURVE",
"619 101 OFFCURVE",
"593 73 CURVE",
"563 44 OFFCURVE",
"528 27 OFFCURVE",
"492 17 CURVE SMOOTH",
"456 7 OFFCURVE",
"418 4 OFFCURVE",
"383 4 CURVE SMOOTH",
"348 4 OFFCURVE",
"312 7 OFFCURVE",
"278 16 CURVE SMOOTH",
"245 24 OFFCURVE",
"213 40 OFFCURVE",
"189 65 CURVE SMOOTH",
"170 86 OFFCURVE",
"159 111 OFFCURVE",
"152 137 CURVE SMOOTH",
"145 162 OFFCURVE",
"142 188 OFFCURVE",
"142 215 CURVE SMOOTH",
"142 237 OFFCURVE",
"144 257 OFFCURVE",
"146 277 CURVE SMOOTH",
"159 414 OFFCURVE",
"167 546 OFFCURVE",
"167 681 CURVE SMOOTH",
"167 715 LINE"
);
}
);
width = 744;
}
);
unicode = 0055;
},
{
glyphname = V;
lastChange = "2014-11-05 03:31:07 -0500";
layers = (
{
layerId = "013FA67F-D7C9-4F04-AAC6-32032829ED9A";
name = "Bold Italic";
paths = (
{
closed = 1;
nodes = (
"359 25 LINE",
"352 54 OFFCURVE",
"345 83 OFFCURVE",
"338 112 CURVE SMOOTH",
"325 169 OFFCURVE",
"308 242 OFFCURVE",
"287 328 CURVE SMOOTH",
"266 415 OFFCURVE",
"243 502 OFFCURVE",
"215 591 CURVE SMOOTH",
"202 636 OFFCURVE",
"187 681 OFFCURVE",
"170 727 CURVE",
"186 725 OFFCURVE",
"205 723 OFFCURVE",
"225 721 CURVE SMOOTH",
"245 719 OFFCURVE",
"265 717 OFFCURVE",
"280 716 CURVE",
"335 583 OFFCURVE",
"382 442 OFFCURVE",
"427 304 CURVE SMOOTH",
"458 208 LINE",
"468 227 OFFCURVE",
"477 245 OFFCURVE",
"485 263 CURVE SMOOTH",
"494 281 OFFCURVE",
"503 298 OFFCURVE",
"512 316 CURVE SMOOTH",
"545 381 OFFCURVE",
"580 450 OFFCURVE",
"616 518 CURVE SMOOTH",
"652 586 OFFCURVE",
"688 654 OFFCURVE",
"726 717 CURVE",
"747 718 OFFCURVE",
"771 720 OFFCURVE",
"792 722 CURVE SMOOTH",
"839 726 LINE",
"784 624 OFFCURVE",
"736 522 OFFCURVE",
"692 422 CURVE SMOOTH",
"648 322 OFFCURVE",
"607 222 OFFCURVE",
"568 123 CURVE SMOOTH",
"525 18 LINE",
"515 18 OFFCURVE",
"503 18 OFFCURVE",
"490 18 CURVE SMOOTH",
"478 18 OFFCURVE",
"466 18 OFFCURVE",
"455 18 CURVE SMOOTH",
"448 18 OFFCURVE",
"440 18 OFFCURVE",
"433 18 CURVE",
"426 18 OFFCURVE",
"418 18 OFFCURVE",
"411 18 CURVE SMOOTH",
"369 18 LINE"
);
}
);
width = 815;
}
);
unicode = 0056;
},
{
glyphname = W;
lastChange = "2014-11-05 03:31:07 -0500";
layers = (
{
anchors = (
{
name = top;
position = "{637, 710}";
}
);
layerId = "013FA67F-D7C9-4F04-AAC6-32032829ED9A";
name = "Bold Italic";
paths = (
{
closed = 1;
nodes = (
"210 723 LINE",
"271 718 LINE",
"298 638 OFFCURVE",
"319 556 OFFCURVE",
"337 475 CURVE SMOOTH",
"354 393 OFFCURVE",
"369 311 OFFCURVE",
"382 229 CURVE",
"419 289 OFFCURVE",
"455 348 OFFCURVE",
"490 409 CURVE SMOOTH",
"502 429 OFFCURVE",
"514 451 OFFCURVE",
"527 473 CURVE SMOOTH",
"540 495 OFFCURVE",
"552 516 OFFCURVE",
"564 536 CURVE",
"651 536 LINE",
"663 502 OFFCURVE",
"678 462 OFFCURVE",
"689 428 CURVE SMOOTH",
"696 409 OFFCURVE",
"703 391 OFFCURVE",
"708 374 CURVE SMOOTH",
"720 340 OFFCURVE",
"732 307 OFFCURVE",
"744 274 CURVE SMOOTH",
"750 257 OFFCURVE",
"757 239 OFFCURVE",
"765 220 CURVE",
"827 390 OFFCURVE",
"894 557 OFFCURVE",
"981 720 CURVE",
"998 720 OFFCURVE",
"1019 721 OFFCURVE",
"1036 723 CURVE",
"1039 723 OFFCURVE",
"1043 723 OFFCURVE",
"1047 724 CURVE",
"1052 724 OFFCURVE",
"1057 724 OFFCURVE",
"1062 724 CURVE",
"1071 725 OFFCURVE",
"1080 725 OFFCURVE",
"1085 725 CURVE",
"1027 608 OFFCURVE",
"980 490 OFFCURVE",
"941 371 CURVE SMOOTH",
"901 252 OFFCURVE",
"869 132 OFFCURVE",
"841 13 CURVE",
"819 14 OFFCURVE",
"793 15 OFFCURVE",
"768 15 CURVE SMOOTH",
"742 16 OFFCURVE",
"716 17 OFFCURVE",
"695 17 CURVE",
"658 125 OFFCURVE",
"632 230 OFFCURVE",
"606 336 CURVE SMOOTH",
"604 347 OFFCURVE",
"603 352 OFFCURVE",
"602 356 CURVE SMOOTH",
"601 358 OFFCURVE",
"600 361 OFFCURVE",
"600 364 CURVE",
"599 366 OFFCURVE",
"598 371 OFFCURVE",
"596 376 CURVE",
"570 318 OFFCURVE",
"542 256 OFFCURVE",
"514 195 CURVE SMOOTH",
"485 134 OFFCURVE",
"456 73 OFFCURVE",
"427 17 CURVE",
"403 17 OFFCURVE",
"375 16 OFFCURVE",
"348 15 CURVE SMOOTH",
"334 15 OFFCURVE",
"320 14 OFFCURVE",
"307 14 CURVE SMOOTH",
"294 13 OFFCURVE",
"281 13 OFFCURVE",
"269 12 CURVE",
"265 132 OFFCURVE",
"257 252 OFFCURVE",
"242 372 CURVE SMOOTH",
"226 491 OFFCURVE",
"203 610 OFFCURVE",
"170 726 CURVE"
);
}
);
width = 1062;
}
);
unicode = 0057;
},
{
glyphname = X;
lastChange = "2014-11-05 03:31:07 -0500";
layers = (
{
layerId = "013FA67F-D7C9-4F04-AAC6-32032829ED9A";
name = "Bold Italic";
paths = (
{
closed = 1;
nodes = (
"175 721 LINE",
"196 719 OFFCURVE",
"215 718 OFFCURVE",
"236 716 CURVE SMOOTH",
"241 716 OFFCURVE",
"247 716 OFFCURVE",
"254 715 CURVE SMOOTH",
"262 715 OFFCURVE",
"268 714 OFFCURVE",
"272 714 CURVE",
"299 665 OFFCURVE",
"324 618 OFFCURVE",
"348 571 CURVE SMOOTH",
"360 547 OFFCURVE",
"372 523 OFFCURVE",
"384 499 CURVE SMOOTH",
"396 475 OFFCURVE",
"408 450 OFFCURVE",
"420 425 CURVE",
"485 522 OFFCURVE",
"552 622 OFFCURVE",
"622 716 CURVE",
"643 717 OFFCURVE",
"667 719 OFFCURVE",
"688 721 CURVE SMOOTH",
"738 724 LINE",
"648 603 OFFCURVE",
"559 467 OFFCURVE",
"477 341 CURVE",
"510 286 OFFCURVE",
"545 228 OFFCURVE",
"582 170 CURVE SMOOTH",
"619 112 OFFCURVE",
"656 55 OFFCURVE",
"691 3 CURVE",
"668 5 OFFCURVE",
"638 8 OFFCURVE",
"608 10 CURVE SMOOTH",
"578 12 OFFCURVE",
"548 14 OFFCURVE",
"524 16 CURVE",
"501 57 OFFCURVE",
"480 96 OFFCURVE",
"460 136 CURVE SMOOTH",
"440 175 OFFCURVE",
"419 215 OFFCURVE",
"399 258 CURVE",
"345 176 OFFCURVE",
"289 93 OFFCURVE",
"231 15 CURVE",
"220 14 OFFCURVE",
"207 13 OFFCURVE",
"191 13 CURVE SMOOTH",
"162 11 OFFCURVE",
"130 8 OFFCURVE",
"101 6 CURVE SMOOTH",
"85 5 OFFCURVE",
"72 4 OFFCURVE",
"60 2 CURVE",
"106 56 OFFCURVE",
"155 113 OFFCURVE",
"203 172 CURVE SMOOTH",
"251 230 OFFCURVE",
"298 288 OFFCURVE",
"343 343 CURVE",
"342 347 OFFCURVE",
"340 351 OFFCURVE",
"338 354 CURVE SMOOTH",
"337 357 OFFCURVE",
"335 361 OFFCURVE",
"334 364 CURVE SMOOTH",
"281 479 OFFCURVE",
"225 596 OFFCURVE",
"166 708 CURVE"
);
}
);
width = 821;
}
);
unicode = 0058;
},
{
glyphname = Y;
lastChange = "2014-11-05 03:31:07 -0500";
layers = (
{
anchors = (
{
name = bottom;
position = "{411, 0}";
},
{
name = top;
position = "{479, 710}";
}
);
layerId = "013FA67F-D7C9-4F04-AAC6-32032829ED9A";
name = "Bold Italic";
paths = (
{
closed = 1;
nodes = (
"176 725 LINE",
"208 721 OFFCURVE",
"242 718 OFFCURVE",
"273 715 CURVE",
"303 657 OFFCURVE",
"331 600 OFFCURVE",
"357 542 CURVE SMOOTH",
"384 485 OFFCURVE",
"410 427 OFFCURVE",
"437 367 CURVE",
"509 484 OFFCURVE",
"583 604 OFFCURVE",
"661 717 CURVE",
"686 718 OFFCURVE",
"714 720 OFFCURVE",
"739 723 CURVE SMOOTH",
"777 726 LINE",
"735 664 OFFCURVE",
"693 598 OFFCURVE",
"652 530 CURVE SMOOTH",
"611 462 OFFCURVE",
"570 394 OFFCURVE",
"533 329 CURVE SMOOTH",
"526 317 OFFCURVE",
"519 305 OFFCURVE",
"512 292 CURVE SMOOTH",
"504 280 OFFCURVE",
"498 268 OFFCURVE",
"491 256 CURVE",
"483 178 OFFCURVE",
"479 94 OFFCURVE",
"474 17 CURVE",
"457 18 OFFCURVE",
"431 18 OFFCURVE",
"414 18 CURVE SMOOTH",
"379 18 LINE SMOOTH",
"376 18 OFFCURVE",
"373 18 OFFCURVE",
"369 18 CURVE SMOOTH",
"365 18 OFFCURVE",
"361 18 OFFCURVE",
"357 18 CURVE",
"353 18 OFFCURVE",
"349 18 OFFCURVE",
"345 18 CURVE SMOOTH",
"340 18 OFFCURVE",
"337 18 OFFCURVE",
"334 18 CURVE",
"338 56 OFFCURVE",
"342 96 OFFCURVE",
"346 137 CURVE SMOOTH",
"351 177 OFFCURVE",
"354 217 OFFCURVE",
"358 256 CURVE",
"297 409 OFFCURVE",
"238 561 OFFCURVE",
"167 711 CURVE"
);
}
);
width = 754;
}
);
unicode = 0059;
},
{
glyphname = Z;
lastChange = "2014-11-05 03:31:07 -0500";
layers = (
{
anchors = (
{
name = bottom;
position = "{373, -26}";
},
{
name = top;
position = "{420, 710}";
}
);
layerId = "013FA67F-D7C9-4F04-AAC6-32032829ED9A";
name = "Bold Italic";
paths = (
{
closed = 1;
nodes = (
"178 723 LINE",
"266 714 OFFCURVE",
"354 710 OFFCURVE",
"443 710 CURVE SMOOTH",
"535 710 OFFCURVE",
"634 715 OFFCURVE",
"738 725 CURVE",
"737 722 OFFCURVE",
"736 719 OFFCURVE",
"736 715 CURVE SMOOTH",
"735 710 OFFCURVE",
"734 707 OFFCURVE",
"733 702 CURVE SMOOTH",
"731 694 OFFCURVE",
"729 685 OFFCURVE",
"729 679 CURVE",
"722 643 LINE",
"682 601 OFFCURVE",
"641 559 OFFCURVE",
"600 518 CURVE SMOOTH",
"559 476 OFFCURVE",
"518 434 OFFCURVE",
"477 393 CURVE SMOOTH",
"457 372 OFFCURVE",
"438 353 OFFCURVE",
"419 333 CURVE SMOOTH",
"382 296 OFFCURVE",
"347 259 OFFCURVE",
"310 222 CURVE SMOOTH",
"292 203 OFFCURVE",
"272 184 OFFCURVE",
"251 163 CURVE",
"304 165 OFFCURVE",
"358 166 OFFCURVE",
"411 166 CURVE SMOOTH",
"500 166 OFFCURVE",
"596 163 OFFCURVE",
"684 157 CURVE",
"684 141 OFFCURVE",
"683 116 OFFCURVE",
"683 100 CURVE SMOOTH",
"683 71 OFFCURVE",
"684 33 OFFCURVE",
"685 4 CURVE",
"584 13 OFFCURVE",
"487 18 OFFCURVE",
"392 18 CURVE SMOOTH",
"298 18 OFFCURVE",
"199 13 OFFCURVE",
"93 3 CURVE",
"97 25 OFFCURVE",
"102 50 OFFCURVE",
"106 75 CURVE SMOOTH",
"111 101 OFFCURVE",
"115 126 OFFCURVE",
"119 147 CURVE",
"198 230 OFFCURVE",
"274 309 OFFCURVE",
"351 388 CURVE SMOOTH",
"427 466 OFFCURVE",
"504 543 OFFCURVE",
"586 625 CURVE",
"535 623 OFFCURVE",
"484 622 OFFCURVE",
"434 622 CURVE SMOOTH",
"348 622 OFFCURVE",
"261 625 OFFCURVE",
"167 633 CURVE",
"167 714 LINE"
);
}
);
width = 815;
}
);
unicode = 005A;
},
{
glyphname = bracketleft;
lastChange = "2014-11-05 03:31:07 -0500";
layers = (
{
layerId = "013FA67F-D7C9-4F04-AAC6-32032829ED9A";
name = "Bold Italic";
paths = (
{
closed = 1;
nodes = (
"188 753 LINE",
"215 741 OFFCURVE",
"245 736 OFFCURVE",
"275 736 CURVE SMOOTH",
"309 736 OFFCURVE",
"346 744 OFFCURVE",
"387 758 CURVE",
"383 723 LINE",
"378 678 LINE",
"341 665 OFFCURVE",
"305 661 OFFCURVE",
"271 661 CURVE SMOOTH",
"269 661 OFFCURVE",
"268 661 OFFCURVE",
"268 661 CURVE",
"268 660 OFFCURVE",
"267 660 OFFCURVE",
"264 661 CURVE",
"247 440 OFFCURVE",
"228 225 OFFCURVE",
"208 4 CURVE",
"214 4 LINE SMOOTH",
"246 4 OFFCURVE",
"280 1 OFFCURVE",
"317 -10 CURVE",
"315 -32 OFFCURVE",
"314 -61 OFFCURVE",
"313 -82 CURVE SMOOTH",
"310 -128 LINE",
"273 -114 OFFCURVE",
"239 -107 OFFCURVE",
"208 -107 CURVE SMOOTH",
"174 -107 OFFCURVE",
"138 -114 OFFCURVE",
"98 -128 CURVE",
"131 160 OFFCURVE",
"157 458 OFFCURVE",
"174 745 CURVE"
);
}
);
width = 468;
}
);
unicode = 005B;
},
{
glyphname = backslash;
lastChange = "2014-11-05 03:31:07 -0500";
layers = (
{
layerId = "013FA67F-D7C9-4F04-AAC6-32032829ED9A";
name = "Bold Italic";
paths = (
{
closed = 1;
nodes = (
"261 701 LINE",
"287 576 OFFCURVE",
"309 451 OFFCURVE",
"332 326 CURVE SMOOTH",
"344 260 OFFCURVE",
"357 186 OFFCURVE",
"371 112 CURVE SMOOTH",
"385 39 OFFCURVE",
"399 -35 OFFCURVE",
"413 -100 CURVE",
"390 -95 LINE",
"363 -88 OFFCURVE",
"337 -82 OFFCURVE",
"304 -80 CURVE",
"281 47 OFFCURVE",
"261 179 OFFCURVE",
"241 306 CURVE SMOOTH",
"235 340 OFFCURVE",
"229 375 OFFCURVE",
"224 411 CURVE SMOOTH",
"212 482 OFFCURVE",
"201 554 OFFCURVE",
"189 625 CURVE SMOOTH",
"183 660 OFFCURVE",
"177 695 OFFCURVE",
"170 729 CURVE",
"205 716 OFFCURVE",
"230 712 OFFCURVE",
"253 708 CURVE"
);
}
);
width = 565;
}
);
unicode = 005C;
},
{
glyphname = bracketright;
lastChange = "2014-11-05 03:31:07 -0500";
layers = (
{
layerId = "013FA67F-D7C9-4F04-AAC6-32032829ED9A";
name = "Bold Italic";
paths = (
{
closed = 1;
nodes = (
"388 744 LINE",
"354 456 OFFCURVE",
"328 160 OFFCURVE",
"312 -127 CURVE",
"275 -114 OFFCURVE",
"241 -107 OFFCURVE",
"209 -107 CURVE SMOOTH",
"177 -107 OFFCURVE",
"141 -114 OFFCURVE",
"100 -128 CURVE",
"107 -67 LINE",
"112 -15 LINE",
"150 -5 OFFCURVE",
"185 0 OFFCURVE",
"218 0 CURVE SMOOTH",
"224 0 LINE",
"229 56 OFFCURVE",
"233 112 OFFCURVE",
"238 167 CURVE SMOOTH",
"248 276 OFFCURVE",
"257 385 OFFCURVE",
"267 494 CURVE SMOOTH",
"272 549 OFFCURVE",
"277 604 OFFCURVE",
"282 661 CURVE",
"273 661 LINE SMOOTH",
"240 661 OFFCURVE",
"206 664 OFFCURVE",
"172 679 CURVE",
"173 684 OFFCURVE",
"173 690 OFFCURVE",
"173 697 CURVE SMOOTH",
"174 705 OFFCURVE",
"174 710 OFFCURVE",
"175 715 CURVE",
"177 759 LINE",
"213 743 OFFCURVE",
"247 736 OFFCURVE",
"277 736 CURVE SMOOTH",
"311 736 OFFCURVE",
"344 742 OFFCURVE",
"375 753 CURVE"
);
}
);
width = 469;
}
);
unicode = 005D;
},
{
glyphname = asciicircum;
lastChange = "2014-11-05 03:31:07 -0500";
layers = (
{
layerId = "013FA67F-D7C9-4F04-AAC6-32032829ED9A";
name = "Bold Italic";
paths = (
{
closed = 1;
nodes = (
"496 719 LINE",
"506 708 OFFCURVE",
"517 696 OFFCURVE",
"528 683 CURVE SMOOTH",
"540 670 OFFCURVE",
"550 658 OFFCURVE",
"561 646 CURVE SMOOTH",
"587 614 OFFCURVE",
"614 583 OFFCURVE",
"646 550 CURVE SMOOTH",
"677 518 OFFCURVE",
"712 484 OFFCURVE",
"757 448 CURVE",
"746 449 OFFCURVE",
"733 449 OFFCURVE",
"719 450 CURVE SMOOTH",
"689 451 OFFCURVE",
"658 452 OFFCURVE",
"629 453 CURVE SMOOTH",
"614 453 OFFCURVE",
"601 453 OFFCURVE",
"590 454 CURVE",
"547 502 OFFCURVE",
"516 554 OFFCURVE",
"484 607 CURVE SMOOTH",
"481 612 OFFCURVE",
"479 617 OFFCURVE",
"476 621 CURVE",
"474 625 OFFCURVE",
"471 629 OFFCURVE",
"469 633 CURVE SMOOTH",
"466 637 OFFCURVE",
"463 641 OFFCURVE",
"461 645 CURVE SMOOTH",
"458 649 OFFCURVE",
"456 654 OFFCURVE",
"452 659 CURVE",
"436 640 OFFCURVE",
"421 621 OFFCURVE",
"406 601 CURVE SMOOTH",
"367 552 OFFCURVE",
"328 502 OFFCURVE",
"279 453 CURVE",
"257 453 OFFCURVE",
"226 453 OFFCURVE",
"195 452 CURVE SMOOTH",
"180 451 OFFCURVE",
"165 451 OFFCURVE",
"150 450 CURVE SMOOTH",
"135 450 OFFCURVE",
"123 449 OFFCURVE",
"111 449 CURVE",
"158 484 OFFCURVE",
"198 516 OFFCURVE",
"234 547 CURVE SMOOTH",
"269 579 OFFCURVE",
"300 608 OFFCURVE",
"331 638 CURVE SMOOTH",
"344 650 OFFCURVE",
"359 664 OFFCURVE",
"374 679 CURVE SMOOTH",
"389 693 OFFCURVE",
"404 707 OFFCURVE",
"418 719 CURVE"
);
}
);
width = 792;
}
);
unicode = 005E;
},
{
glyphname = underscore;
lastChange = "2014-11-05 03:31:07 -0500";
layers = (
{
layerId = "013FA67F-D7C9-4F04-AAC6-32032829ED9A";
name = "Bold Italic";
paths = (
{
closed = 1;
nodes = (
"513 -146 LINE",
"502 -156 OFFCURVE",
"496 -170 OFFCURVE",
"496 -183 CURVE SMOOTH",
"496 -193 OFFCURVE",
"505 -208 OFFCURVE",
"524 -226 CURVE",
"483 -225 OFFCURVE",
"436 -225 OFFCURVE",
"388 -224 CURVE SMOOTH",
"364 -224 OFFCURVE",
"340 -224 OFFCURVE",
"317 -224 CURVE SMOOTH",
"294 -224 OFFCURVE",
"272 -224 OFFCURVE",
"251 -224 CURVE SMOOTH",
"230 -224 OFFCURVE",
"208 -224 OFFCURVE",
"186 -224 CURVE SMOOTH",
"162 -224 OFFCURVE",
"139 -224 OFFCURVE",
"115 -224 CURVE SMOOTH",
"67 -225 OFFCURVE",
"20 -225 OFFCURVE",
"-21 -226 CURVE",
"1 -205 OFFCURVE",
"13 -187 OFFCURVE",
"13 -173 CURVE SMOOTH",
"13 -162 OFFCURVE",
"4 -147 OFFCURVE",
"-12 -129 CURVE",
"27 -130 OFFCURVE",
"72 -131 OFFCURVE",
"116 -131 CURVE SMOOTH",
"138 -131 OFFCURVE",
"160 -131 OFFCURVE",
"182 -131 CURVE SMOOTH",
"204 -132 OFFCURVE",
"225 -132 OFFCURVE",
"244 -132 CURVE SMOOTH",
"332 -132 OFFCURVE",
"418 -131 OFFCURVE",
"506 -130 CURVE"
);
}
);
width = 703;
}
);
unicode = 005F;
},
{
glyphname = grave;
lastChange = "2014-11-05 03:31:07 -0500";
layers = (
{
anchors = (
{
name = _top;
position = "{302, 331}";
}
);
layerId = "013FA67F-D7C9-4F04-AAC6-32032829ED9A";
name = "Bold Italic";
paths = (
{
closed = 1;
nodes = (
"292 786 LINE",
"300 775 OFFCURVE",
"308 764 OFFCURVE",
"315 752 CURVE SMOOTH",
"330 729 OFFCURVE",
"348 701 OFFCURVE",
"373 665 CURVE SMOOTH",
"385 646 OFFCURVE",
"400 626 OFFCURVE",
"418 604 CURVE",
"410 605 OFFCURVE",
"400 605 OFFCURVE",
"390 606 CURVE SMOOTH",
"379 606 OFFCURVE",
"368 607 OFFCURVE",
"357 607 CURVE SMOOTH",
"346 608 OFFCURVE",
"335 608 OFFCURVE",
"325 608 CURVE SMOOTH",
"314 609 OFFCURVE",
"304 609 OFFCURVE",
"296 609 CURVE SMOOTH",
"274 609 LINE",
"270 618 OFFCURVE",
"265 629 OFFCURVE",
"260 640 CURVE SMOOTH",
"255 651 OFFCURVE",
"250 662 OFFCURVE",
"246 671 CURVE SMOOTH",
"238 689 OFFCURVE",
"230 708 OFFCURVE",
"221 727 CURVE SMOOTH",
"211 747 OFFCURVE",
"200 769 OFFCURVE",
"185 794 CURVE",
"198 793 OFFCURVE",
"216 792 OFFCURVE",
"234 792 CURVE SMOOTH",
"252 791 OFFCURVE",
"271 790 OFFCURVE",
"285 790 CURVE"
);
}
);
width = 421;
}
);
unicode = 0060;
},
{
glyphname = a;
lastChange = "2014-11-05 03:31:07 -0500";
layers = (
{
anchors = (
{
name = bottom;
position = "{249, -30}";
},
{
name = ogonek;
position = "{542, 5}";
},
{
name = top;
position = "{314, 541}";
}
);
layerId = "013FA67F-D7C9-4F04-AAC6-32032829ED9A";
name = "Bold Italic";
paths = (
{
closed = 1;
nodes = (
"299 274 LINE SMOOTH",
"297 274 OFFCURVE",
"295 274 OFFCURVE",
"293 274 CURVE",
"291 273 OFFCURVE",
"289 273 OFFCURVE",
"287 273 CURVE",
"277 273 OFFCURVE",
"269 273 OFFCURVE",
"259 272 CURVE SMOOTH",
"241 272 OFFCURVE",
"222 269 OFFCURVE",
"205 264 CURVE SMOOTH",
"196 261 OFFCURVE",
"188 257 OFFCURVE",
"180 253 CURVE",
"180 253 LINE",
"158 238 OFFCURVE",
"147 211 OFFCURVE",
"145 186 CURVE",
"145 167 OFFCURVE",
"153 149 OFFCURVE",
"171 145 CURVE SMOOTH",
"193 141 OFFCURVE",
"215 138 OFFCURVE",
"238 138 CURVE SMOOTH",
"253 138 OFFCURVE",
"271 139 OFFCURVE",
"287 142 CURVE SMOOTH",
"303 145 OFFCURVE",
"319 150 OFFCURVE",
"333 159 CURVE",
"355 183 OFFCURVE",
"360 216 OFFCURVE",
"363 249 CURVE SMOOTH",
"365 261 LINE",
"365 264 OFFCURVE",
"365 266 OFFCURVE",
"366 267 CURVE",
"366 268 OFFCURVE",
"366 271 OFFCURVE",
"366 274 CURVE"
);
},
{
closed = 1;
nodes = (
"497 224 OFFCURVE",
"492 141 OFFCURVE",
"492 57 CURVE SMOOTH",
"492 42 OFFCURVE",
"493 18 OFFCURVE",
"493 3 CURVE",
"481 5 OFFCURVE",
"463 6 OFFCURVE",
"445 8 CURVE SMOOTH",
"428 9 OFFCURVE",
"410 10 OFFCURVE",
"397 11 CURVE",
"398 48 LINE SMOOTH",
"398 52 OFFCURVE",
"398 56 OFFCURVE",
"398 57 CURVE SMOOTH",
"398 59 OFFCURVE",
"398 60 OFFCURVE",
"398 61 CURVE SMOOTH",
"398 62 OFFCURVE",
"398 63 OFFCURVE",
"398 65 CURVE SMOOTH",
"398 66 OFFCURVE",
"398 70 OFFCURVE",
"399 75 CURVE",
"374 47 OFFCURVE",
"345 29 OFFCURVE",
"313 17 CURVE SMOOTH",
"280 5 OFFCURVE",
"245 1 OFFCURVE",
"211 1 CURVE SMOOTH",
"168 1 OFFCURVE",
"125 10 OFFCURVE",
"94 41 CURVE",
"71 66 OFFCURVE",
"62 100 OFFCURVE",
"62 135 CURVE SMOOTH",
"62 167 OFFCURVE",
"68 204 OFFCURVE",
"83 236 CURVE SMOOTH",
"99 268 OFFCURVE",
"122 296 OFFCURVE",
"156 313 CURVE SMOOTH",
"208 339 OFFCURVE",
"258 345 OFFCURVE",
"309 345 CURVE SMOOTH",
"329 345 OFFCURVE",
"347 345 OFFCURVE",
"364 345 CURVE SMOOTH",
"380 345 OFFCURVE",
"398 345 OFFCURVE",
"418 345 CURVE",
"418 349 LINE SMOOTH",
"418 350 OFFCURVE",
"418 352 OFFCURVE",
"419 353 CURVE",
"419 356 OFFCURVE",
"419 359 OFFCURVE",
"420 364 CURVE",
"420 366 OFFCURVE",
"420 368 OFFCURVE",
"420 371 CURVE SMOOTH",
"420 394 OFFCURVE",
"413 419 OFFCURVE",
"397 436 CURVE",
"367 459 OFFCURVE",
"329 469 OFFCURVE",
"293 472 CURVE",
"239 472 OFFCURVE",
"181 460 OFFCURVE",
"121 432 CURVE",
"121 434 OFFCURVE",
"121 437 OFFCURVE",
"122 441 CURVE",
"122 444 OFFCURVE",
"122 448 OFFCURVE",
"122 452 CURVE",
"122 456 OFFCURVE",
"122 460 OFFCURVE",
"123 464 CURVE",
"123 467 OFFCURVE",
"123 470 OFFCURVE",
"123 472 CURVE SMOOTH",
"123 485 OFFCURVE",
"123 499 OFFCURVE",
"125 513 CURVE",
"187 532 OFFCURVE",
"249 544 OFFCURVE",
"308 544 CURVE SMOOTH",
"335 544 OFFCURVE",
"366 542 OFFCURVE",
"393 535 CURVE SMOOTH",
"420 527 OFFCURVE",
"446 515 OFFCURVE",
"467 495 CURVE",
"500 456 OFFCURVE",
"509 409 OFFCURVE",
"509 362 CURVE SMOOTH",
"509 344 OFFCURVE",
"508 326 OFFCURVE",
"506 309 CURVE SMOOTH"
);
}
);
width = 623;
}
);
unicode = 0061;
},
{
glyphname = b;
lastChange = "2014-11-05 03:31:07 -0500";
layers = (
{
anchors = (
{
name = bottom;
position = "{331, -21}";
}
);
layerId = "013FA67F-D7C9-4F04-AAC6-32032829ED9A";
name = "Bold Italic";
paths = (
{
closed = 1;
nodes = (
"531 305 LINE SMOOTH",
"531 307 OFFCURVE",
"531 309 OFFCURVE",
"532 311 CURVE",
"532 313 OFFCURVE",
"532 314 OFFCURVE",
"532 316 CURVE SMOOTH",
"532 354 OFFCURVE",
"527 395 OFFCURVE",
"511 426 CURVE SMOOTH",
"495 457 OFFCURVE",
"469 478 OFFCURVE",
"426 478 CURVE SMOOTH",
"386 478 OFFCURVE",
"346 462 OFFCURVE",
"319 430 CURVE",
"288 389 OFFCURVE",
"275 336 OFFCURVE",
"270 289 CURVE",
"271 258 OFFCURVE",
"278 223 OFFCURVE",
"295 198 CURVE",
"308 186 OFFCURVE",
"324 177 OFFCURVE",
"341 171 CURVE SMOOTH",
"358 166 OFFCURVE",
"376 163 OFFCURVE",
"392 163 CURVE",
"423 165 OFFCURVE",
"455 173 OFFCURVE",
"482 192 CURVE",
"481 191 LINE",
"497 203 OFFCURVE",
"507 221 OFFCURVE",
"515 239 CURVE SMOOTH",
"523 257 OFFCURVE",
"528 276 OFFCURVE",
"532 295 CURVE",
"531 293 LINE"
);
},
{
closed = 1;
nodes = (
"264 651 OFFCURVE",
"257 560 OFFCURVE",
"248 473 CURVE",
"265 497 OFFCURVE",
"289 516 OFFCURVE",
"315 528 CURVE SMOOTH",
"342 540 OFFCURVE",
"370 547 OFFCURVE",
"399 547 CURVE SMOOTH",
"414 547 LINE SMOOTH",
"477 547 OFFCURVE",
"521 518 OFFCURVE",
"551 474 CURVE SMOOTH",
"580 431 OFFCURVE",
"593 372 OFFCURVE",
"593 315 CURVE SMOOTH",
"593 276 OFFCURVE",
"590 233 OFFCURVE",
"580 191 CURVE SMOOTH",
"569 149 OFFCURVE",
"552 108 OFFCURVE",
"523 75 CURVE SMOOTH",
"484 28 OFFCURVE",
"427 4 OFFCURVE",
"370 5 CURVE SMOOTH",
"362 5 LINE SMOOTH",
"362 5 OFFCURVE",
"361 5 OFFCURVE",
"360 5 CURVE",
"359 4 OFFCURVE",
"358 4 OFFCURVE",
"358 4 CURVE SMOOTH",
"354 4 LINE SMOOTH",
"324 4 OFFCURVE",
"296 12 OFFCURVE",
"271 25 CURVE SMOOTH",
"245 38 OFFCURVE",
"207 54 OFFCURVE",
"183 81 CURVE",
"124 150 LINE",
"169 401 OFFCURVE",
"169 501 OFFCURVE",
"175 749 CURVE",
"227 738 OFFCURVE",
"267 737 OFFCURVE",
"270 737 CURVE"
);
}
);
width = 670;
}
);
unicode = 0062;
},
{
glyphname = c;
lastChange = "2014-11-05 03:31:07 -0500";
layers = (
{
anchors = (
{
name = bottom;
position = "{319, 0}";
},
{
name = top;
position = "{319, 541}";
}
);
layerId = "013FA67F-D7C9-4F04-AAC6-32032829ED9A";
name = "Bold Italic";
paths = (
{
closed = 1;
nodes = (
"498 512 LINE",
"511 514 LINE",
"509 505 OFFCURVE",
"507 496 OFFCURVE",
"506 488 CURVE SMOOTH",
"504 479 OFFCURVE",
"502 471 OFFCURVE",
"501 461 CURVE",
"501 462 LINE",
"497 433 LINE",
"452 456 OFFCURVE",
"404 468 OFFCURVE",
"361 468 CURVE SMOOTH",
"337 468 OFFCURVE",
"313 464 OFFCURVE",
"290 456 CURVE SMOOTH",
"266 448 OFFCURVE",
"245 435 OFFCURVE",
"229 415 CURVE",
"211 396 OFFCURVE",
"200 372 OFFCURVE",
"192 347 CURVE SMOOTH",
"184 321 OFFCURVE",
"179 295 OFFCURVE",
"177 271 CURVE",
"177 254 OFFCURVE",
"179 237 OFFCURVE",
"184 222 CURVE SMOOTH",
"189 207 OFFCURVE",
"197 193 OFFCURVE",
"209 184 CURVE",
"208 184 LINE",
"240 163 OFFCURVE",
"280 158 OFFCURVE",
"321 155 CURVE",
"320 155 LINE",
"392 153 LINE",
"397 153 LINE SMOOTH",
"417 153 OFFCURVE",
"442 160 OFFCURVE",
"470 173 CURVE",
"469 160 OFFCURVE",
"468 145 OFFCURVE",
"468 128 CURVE SMOOTH",
"467 111 OFFCURVE",
"467 94 OFFCURVE",
"467 82 CURVE SMOOTH",
"467 65 OFFCURVE",
"467 43 OFFCURVE",
"468 26 CURVE",
"417 7 OFFCURVE",
"368 0 OFFCURVE",
"321 0 CURVE SMOOTH",
"285 0 OFFCURVE",
"247 4 OFFCURVE",
"212 15 CURVE SMOOTH",
"177 25 OFFCURVE",
"145 43 OFFCURVE",
"122 73 CURVE",
"122 72 LINE",
"104 94 OFFCURVE",
"93 119 OFFCURVE",
"85 146 CURVE SMOOTH",
"78 172 OFFCURVE",
"76 200 OFFCURVE",
"76 229 CURVE SMOOTH",
"76 267 OFFCURVE",
"80 313 OFFCURVE",
"92 356 CURVE SMOOTH",
"104 399 OFFCURVE",
"125 441 OFFCURVE",
"157 473 CURVE SMOOTH",
"187 500 OFFCURVE",
"223 518 OFFCURVE",
"261 529 CURVE SMOOTH",
"298 541 OFFCURVE",
"337 545 OFFCURVE",
"374 545 CURVE SMOOTH",
"420 545 OFFCURVE",
"464 537 OFFCURVE",
"506 521 CURVE"
);
}
);
width = 593;
}
);
unicode = 0063;
},
{
glyphname = d;
lastChange = "2014-11-05 03:31:07 -0500";
layers = (
{
anchors = (
{
name = bottom;
position = "{264, -28}";
},
{
name = center;
position = "{350, 271}";
},
{
name = top;
position = "{299, 572}";
}
);
layerId = "013FA67F-D7C9-4F04-AAC6-32032829ED9A";
name = "Bold Italic";
paths = (
{
closed = 1;
nodes = (
"316 547 LINE SMOOTH",
"375 547 OFFCURVE",
"429 521 OFFCURVE",
"458 471 CURVE",
"469 560 OFFCURVE",
"484 652 OFFCURVE",
"500 739 CURVE",
"525 741 OFFCURVE",
"555 744 OFFCURVE",
"580 747 CURVE",
"581 747 OFFCURVE",
"583 748 OFFCURVE",
"586 749 CURVE",
"590 749 OFFCURVE",
"594 750 OFFCURVE",
"599 751 CURVE",
"552 500 OFFCURVE",
"525 252 OFFCURVE",
"521 4 CURVE",
"503 7 OFFCURVE",
"476 10 OFFCURVE",
"457 11 CURVE SMOOTH",
"426 14 LINE",
"426 17 OFFCURVE",
"426 22 OFFCURVE",
"427 29 CURVE",
"427 36 OFFCURVE",
"427 42 OFFCURVE",
"427 45 CURVE SMOOTH",
"427 51 OFFCURVE",
"427 55 OFFCURVE",
"427 57 CURVE SMOOTH",
"427 60 OFFCURVE",
"427 62 OFFCURVE",
"427 63 CURVE SMOOTH",
"427 64 OFFCURVE",
"427 66 OFFCURVE",
"427 68 CURVE",
"427 71 OFFCURVE",
"427 75 OFFCURVE",
"428 80 CURVE",
"408 57 OFFCURVE",
"383 38 OFFCURVE",
"356 25 CURVE SMOOTH",
"329 12 OFFCURVE",
"299 5 OFFCURVE",
"269 5 CURVE SMOOTH",
"262 5 LINE SMOOTH",
"261 5 OFFCURVE",
"260 5 OFFCURVE",
"260 5 CURVE",
"259 4 OFFCURVE",
"258 4 OFFCURVE",
"257 4 CURVE SMOOTH",
"252 4 LINE SMOOTH",
"195 4 OFFCURVE",
"142 28 OFFCURVE",
"111 75 CURVE SMOOTH",
"83 118 OFFCURVE",
"74 167 OFFCURVE",
"74 218 CURVE SMOOTH",
"74 258 OFFCURVE",
"79 304 OFFCURVE",
"90 350 CURVE SMOOTH",
"102 395 OFFCURVE",
"122 438 OFFCURVE",
"152 475 CURVE",
"152 474 LINE",
"170 498 OFFCURVE",
"194 516 OFFCURVE",
"220 528 CURVE SMOOTH",
"246 540 OFFCURVE",
"275 547 OFFCURVE",
"302 547 CURVE SMOOTH"
);
},
{
closed = 1;
nodes = (
"146 266 OFFCURVE",
"148 249 OFFCURVE",
"152 233 CURVE SMOOTH",
"156 218 OFFCURVE",
"164 204 OFFCURVE",
"175 192 CURVE",
"174 192 LINE",
"186 181 OFFCURVE",
"200 174 OFFCURVE",
"216 171 CURVE SMOOTH",
"231 167 OFFCURVE",
"249 167 OFFCURVE",
"265 167 CURVE",
"298 168 OFFCURVE",
"333 170 OFFCURVE",
"363 189 CURVE",
"362 188 LINE",
"382 203 OFFCURVE",
"392 227 OFFCURVE",
"398 251 CURVE SMOOTH",
"404 276 OFFCURVE",
"404 302 OFFCURVE",
"404 319 CURVE SMOOTH",
"404 345 OFFCURVE",
"402 370 OFFCURVE",
"396 395 CURVE SMOOTH",
"391 420 OFFCURVE",
"379 440 OFFCURVE",
"363 455 CURVE SMOOTH",
"347 469 OFFCURVE",
"326 477 OFFCURVE",
"303 477 CURVE SMOOTH",
"292 477 LINE SMOOTH",
"259 477 OFFCURVE",
"233 464 OFFCURVE",
"213 445 CURVE SMOOTH",
"192 425 OFFCURVE",
"177 399 OFFCURVE",
"166 370 CURVE SMOOTH",
"155 341 OFFCURVE",
"148 310 OFFCURVE",
"145 282 CURVE"
);
}
);
width = 651;
}
);
unicode = 0064;
},
{
glyphname = e;
lastChange = "2014-11-05 03:31:07 -0500";
layers = (
{
anchors = (
{
name = bottom;
position = "{336, 0}";
},
{
name = ogonek;
position = "{401, 2}";
},
{
name = top;
position = "{336, 541}";
}
);
layerId = "013FA67F-D7C9-4F04-AAC6-32032829ED9A";
name = "Bold Italic";
paths = (
{
closed = 1;
nodes = (
"545 327 LINE",
"544 323 OFFCURVE",
"544 320 OFFCURVE",
"544 318 CURVE",
"544 315 OFFCURVE",
"544 312 OFFCURVE",
"543 310 CURVE",
"543 310 LINE",
"541 291 LINE",
"462 289 OFFCURVE",
"377 289 OFFCURVE",
"298 289 CURVE SMOOTH",
"287 289 OFFCURVE",
"276 289 OFFCURVE",
"265 290 CURVE",
"253 290 OFFCURVE",
"242 290 OFFCURVE",
"230 290 CURVE SMOOTH",
"172 290 LINE",
"172 287 LINE",
"171 278 OFFCURVE",
"171 271 OFFCURVE",
"171 262 CURVE SMOOTH",
"171 243 OFFCURVE",
"173 225 OFFCURVE",
"178 208 CURVE SMOOTH",
"183 191 OFFCURVE",
"191 176 OFFCURVE",
"205 166 CURVE",
"205 167 LINE",
"245 142 OFFCURVE",
"297 135 OFFCURVE",
"344 135 CURVE SMOOTH",
"353 135 LINE SMOOTH",
"378 135 OFFCURVE",
"404 135 OFFCURVE",
"431 139 CURVE SMOOTH",
"458 142 OFFCURVE",
"486 149 OFFCURVE",
"516 164 CURVE",
"516 159 OFFCURVE",
"516 154 OFFCURVE",
"516 148 CURVE",
"515 136 OFFCURVE",
"515 123 OFFCURVE",
"515 111 CURVE SMOOTH",
"515 104 OFFCURVE",
"515 99 OFFCURVE",
"515 95 CURVE SMOOTH",
"515 77 OFFCURVE",
"515 52 OFFCURVE",
"516 34 CURVE",
"448 11 OFFCURVE",
"381 1 OFFCURVE",
"316 1 CURVE",
"283 4 OFFCURVE",
"247 10 OFFCURVE",
"213 21 CURVE SMOOTH",
"180 33 OFFCURVE",
"147 50 OFFCURVE",
"124 73 CURVE",
"105 94 OFFCURVE",
"93 120 OFFCURVE",
"85 147 CURVE SMOOTH",
"78 174 OFFCURVE",
"74 203 OFFCURVE",
"74 230 CURVE SMOOTH",
"74 268 OFFCURVE",
"80 313 OFFCURVE",
"93 355 CURVE SMOOTH",
"106 398 OFFCURVE",
"126 440 OFFCURVE",
"156 472 CURVE SMOOTH",
"181 498 OFFCURVE",
"212 516 OFFCURVE",
"246 527 CURVE SMOOTH",
"279 539 OFFCURVE",
"315 543 OFFCURVE",
"348 544 CURVE",
"375 542 OFFCURVE",
"404 539 OFFCURVE",
"431 531 CURVE SMOOTH",
"458 523 OFFCURVE",
"483 511 OFFCURVE",
"503 491 CURVE",
"521 472 OFFCURVE",
"531 449 OFFCURVE",
"538 425 CURVE SMOOTH",
"543 400 OFFCURVE",
"545 374 OFFCURVE",
"545 349 CURVE SMOOTH",
"545 347 OFFCURVE",
"545 345 OFFCURVE",
"545 344 CURVE",
"544 342 OFFCURVE",
"544 340 OFFCURVE",
"544 338 CURVE SMOOTH",
"544 327 LINE",
"529 333 LINE"
);
},
{
closed = 1;
nodes = (
"469 363 LINE",
"469 366 OFFCURVE",
"468 369 OFFCURVE",
"468 373 CURVE",
"478 373 LINE"
);
},
{
closed = 1;
nodes = (
"343 371 OFFCURVE",
"406 372 OFFCURVE",
"468 373 CURVE",
"464 405 OFFCURVE",
"452 435 OFFCURVE",
"430 456 CURVE SMOOTH",
"409 477 OFFCURVE",
"380 490 OFFCURVE",
"345 490 CURVE SMOOTH",
"304 490 OFFCURVE",
"262 479 OFFCURVE",
"231 450 CURVE",
"208 429 OFFCURVE",
"191 401 OFFCURVE",
"187 372 CURVE",
"203 371 OFFCURVE",
"219 371 OFFCURVE",
"234 371 CURVE SMOOTH",
"249 371 OFFCURVE",
"264 371 OFFCURVE",
"281 371 CURVE SMOOTH"
);
}
);
width = 640;
}
);
unicode = 0065;
},
{
glyphname = f;
lastChange = "2014-11-05 03:31:07 -0500";
layers = (
{
layerId = "013FA67F-D7C9-4F04-AAC6-32032829ED9A";
name = "Bold Italic";
paths = (
{
closed = 1;
nodes = (
"456 717 LINE",
"453 696 OFFCURVE",
"449 667 OFFCURVE",
"446 646 CURVE",
"437 646 OFFCURVE",
"420 645 OFFCURVE",
"411 645 CURVE SMOOTH",
"396 645 OFFCURVE",
"382 646 OFFCURVE",
"367 646 CURVE",
"351 645 OFFCURVE",
"335 642 OFFCURVE",
"323 632 CURVE",
"312 616 OFFCURVE",
"308 593 OFFCURVE",
"306 573 CURVE",
"306 574 LINE",
"306 565 OFFCURVE",
"306 559 OFFCURVE",
"306 554 CURVE",
"305 549 OFFCURVE",
"305 542 OFFCURVE",
"306 535 CURVE",
"347 535 OFFCURVE",
"392 538 OFFCURVE",
"438 542 CURVE",
"438 536 OFFCURVE",
"437 528 OFFCURVE",
"436 520 CURVE SMOOTH",
"434 503 OFFCURVE",
"432 485 OFFCURVE",
"431 468 CURVE SMOOTH",
"430 460 OFFCURVE",
"429 453 OFFCURVE",
"428 446 CURVE",
"385 444 OFFCURVE",
"342 442 OFFCURVE",
"299 442 CURVE",
"290 303 OFFCURVE",
"282 157 OFFCURVE",
"277 18 CURVE",
"267 18 OFFCURVE",
"248 19 OFFCURVE",
"238 19 CURVE SMOOTH",
"212 19 OFFCURVE",
"179 17 OFFCURVE",
"140 13 CURVE",
"163 157 OFFCURVE",
"180 299 OFFCURVE",
"197 443 CURVE",
"186 443 OFFCURVE",
"174 444 OFFCURVE",
"161 445 CURVE",
"147 445 OFFCURVE",
"135 446 OFFCURVE",
"125 447 CURVE",
"127 481 LINE",
"127 486 OFFCURVE",
"128 491 OFFCURVE",
"128 496 CURVE SMOOTH",
"129 501 OFFCURVE",
"129 507 OFFCURVE",
"129 512 CURVE",
"130 523 OFFCURVE",
"131 535 OFFCURVE",
"131 543 CURVE",
"161 539 OFFCURVE",
"186 537 OFFCURVE",
"206 536 CURVE",
"208 545 OFFCURVE",
"208 555 OFFCURVE",
"210 566 CURVE",
"213 586 OFFCURVE",
"218 610 OFFCURVE",
"227 631 CURVE SMOOTH",
"235 653 OFFCURVE",
"247 673 OFFCURVE",
"265 688 CURVE",
"297 711 OFFCURVE",
"336 724 OFFCURVE",
"374 727 CURVE",
"378 726 OFFCURVE",
"383 726 OFFCURVE",
"389 726 CURVE SMOOTH",
"394 726 OFFCURVE",
"399 726 OFFCURVE",
"404 726 CURVE SMOOTH",
"417 726 OFFCURVE",
"432 727 OFFCURVE",
"446 728 CURVE"
);
}
);
width = 464;
}
);
unicode = 0066;
},
{
glyphname = g;
lastChange = "2014-11-05 03:31:07 -0500";
layers = (
{
anchors = (
{
name = bottom;
position = "{261, -231}";
},
{
name = top;
position = "{345, 541}";
}
);
layerId = "013FA67F-D7C9-4F04-AAC6-32032829ED9A";
name = "Bold Italic";
paths = (
{
closed = 1;
nodes = (
"407 281 LINE",
"409 293 OFFCURVE",
"409 305 OFFCURVE",
"409 317 CURVE SMOOTH",
"409 368 OFFCURVE",
"396 405 OFFCURVE",
"375 429 CURVE SMOOTH",
"353 453 OFFCURVE",
"321 465 OFFCURVE",
"284 465 CURVE SMOOTH",
"247 465 OFFCURVE",
"207 450 OFFCURVE",
"183 420 CURVE SMOOTH",
"167 401 OFFCURVE",
"158 377 OFFCURVE",
"151 354 CURVE SMOOTH",
"144 330 OFFCURVE",
"140 304 OFFCURVE",
"138 281 CURVE",
"138 278 OFFCURVE",
"138 276 OFFCURVE",
"139 273 CURVE SMOOTH",
"139 271 OFFCURVE",
"139 269 OFFCURVE",
"139 266 CURVE SMOOTH",
"140 249 OFFCURVE",
"141 231 OFFCURVE",
"145 216 CURVE SMOOTH",
"148 200 OFFCURVE",
"154 185 OFFCURVE",
"164 173 CURVE",
"176 165 OFFCURVE",
"191 160 OFFCURVE",
"207 158 CURVE SMOOTH",
"223 156 OFFCURVE",
"239 155 OFFCURVE",
"255 155 CURVE SMOOTH",
"290 155 OFFCURVE",
"327 161 OFFCURVE",
"359 174 CURVE",
"376 185 OFFCURVE",
"387 203 OFFCURVE",
"395 222 CURVE SMOOTH",
"402 242 OFFCURVE",
"405 263 OFFCURVE",
"407 282 CURVE"
);
},
{
closed = 1;
nodes = (
"509 57 LINE SMOOTH",
"505 21 OFFCURVE",
"500 -17 OFFCURVE",
"490 -53 CURVE SMOOTH",
"479 -89 OFFCURVE",
"463 -125 OFFCURVE",
"436 -154 CURVE",
"408 -182 OFFCURVE",
"375 -197 OFFCURVE",
"340 -205 CURVE SMOOTH",
"305 -213 OFFCURVE",
"268 -214 OFFCURVE",
"234 -214 CURVE SMOOTH",
"185 -214 OFFCURVE",
"134 -210 OFFCURVE",
"80 -195 CURVE",
"83 -171 OFFCURVE",
"87 -142 OFFCURVE",
"91 -113 CURVE SMOOTH",
"93 -98 OFFCURVE",
"95 -84 OFFCURVE",
"97 -70 CURVE SMOOTH",
"98 -56 OFFCURVE",
"100 -43 OFFCURVE",
"102 -31 CURVE",
"150 -59 OFFCURVE",
"199 -68 OFFCURVE",
"246 -68 CURVE SMOOTH",
"267 -68 OFFCURVE",
"290 -65 OFFCURVE",
"311 -59 CURVE SMOOTH",
"332 -52 OFFCURVE",
"352 -42 OFFCURVE",
"367 -24 CURVE",
"392 1 OFFCURVE",
"410 29 OFFCURVE",
"419 61 CURVE",
"419 65 OFFCURVE",
"419 71 OFFCURVE",
"420 77 CURVE",
"377 32 OFFCURVE",
"322 10 OFFCURVE",
"259 10 CURVE SMOOTH",
"232 10 OFFCURVE",
"205 17 OFFCURVE",
"180 29 CURVE SMOOTH",
"156 42 OFFCURVE",
"134 60 OFFCURVE",
"120 82 CURVE SMOOTH",
"89 128 OFFCURVE",
"79 188 OFFCURVE",
"79 244 CURVE SMOOTH",
"79 279 OFFCURVE",
"83 321 OFFCURVE",
"93 362 CURVE SMOOTH",
"103 402 OFFCURVE",
"120 441 OFFCURVE",
"147 473 CURVE SMOOTH",
"167 495 OFFCURVE",
"191 512 OFFCURVE",
"218 523 CURVE SMOOTH",
"245 534 OFFCURVE",
"274 540 OFFCURVE",
"302 540 CURVE SMOOTH",
"316 540 LINE SMOOTH",
"346 540 OFFCURVE",
"376 532 OFFCURVE",
"402 518 CURVE SMOOTH",
"427 504 OFFCURVE",
"450 485 OFFCURVE",
"466 461 CURVE",
"466 465 OFFCURVE",
"467 468 OFFCURVE",
"469 472 CURVE",
"470 475 OFFCURVE",
"471 479 OFFCURVE",
"471 481 CURVE",
"484 534 LINE",
"516 536 LINE",
"516 536 LINE",
"582 544 LINE",
"549 381 OFFCURVE",
"527 225 OFFCURVE",
"512 75 CURVE SMOOTH"
);
}
);
width = 633;
}
);
unicode = 0067;
},
{
glyphname = h;
lastChange = "2014-11-05 03:31:07 -0500";
layers = (
{
anchors = (
{
name = bottom;
position = "{329, -4}";
},
{
name = center;
position = "{294, 271}";
},
{
name = top;
position = "{294, 541}";
}
);
layerId = "013FA67F-D7C9-4F04-AAC6-32032829ED9A";
name = "Bold Italic";
paths = (
{
closed = 1;
nodes = (
"563 260 OFFCURVE",
"561 192 OFFCURVE",
"561 126 CURVE SMOOTH",
"561 117 OFFCURVE",
"561 106 OFFCURVE",
"561 96 CURVE",
"561 86 OFFCURVE",
"561 75 OFFCURVE",
"562 64 CURVE",
"562 43 OFFCURVE",
"563 21 OFFCURVE",
"563 3 CURVE",
"547 5 OFFCURVE",
"526 8 OFFCURVE",
"505 10 CURVE SMOOTH",
"495 11 OFFCURVE",
"485 12 OFFCURVE",
"475 13 CURVE SMOOTH",
"465 14 OFFCURVE",
"456 15 OFFCURVE",
"448 15 CURVE",
"454 116 OFFCURVE",
"464 226 OFFCURVE",
"475 327 CURVE",
"476 336 OFFCURVE",
"476 347 OFFCURVE",
"476 357 CURVE SMOOTH",
"476 383 OFFCURVE",
"473 409 OFFCURVE",
"463 430 CURVE",
"445 459 OFFCURVE",
"414 474 OFFCURVE",
"382 474 CURVE SMOOTH",
"345 474 OFFCURVE",
"305 458 OFFCURVE",
"279 428 CURVE SMOOTH",
"250 395 OFFCURVE",
"235 351 OFFCURVE",
"231 308 CURVE SMOOTH",
"230 293 OFFCURVE",
"229 280 OFFCURVE",
"229 266 CURVE SMOOTH",
"228 252 OFFCURVE",
"227 239 OFFCURVE",
"226 225 CURVE SMOOTH",
"220 157 OFFCURVE",
"215 83 OFFCURVE",
"207 15 CURVE",
"199 14 OFFCURVE",
"190 13 OFFCURVE",
"180 12 CURVE SMOOTH",
"170 11 OFFCURVE",
"159 10 OFFCURVE",
"149 9 CURVE SMOOTH",
"127 7 OFFCURVE",
"106 5 OFFCURVE",
"90 3 CURVE",
"138 252 OFFCURVE",
"165 498 OFFCURVE",
"174 746 CURVE",
"181 745 OFFCURVE",
"188 744 OFFCURVE",
"197 744 CURVE",
"205 743 OFFCURVE",
"214 742 OFFCURVE",
"223 741 CURVE SMOOTH",
"240 739 OFFCURVE",
"258 737 OFFCURVE",
"271 736 CURVE",
"267 688 OFFCURVE",
"264 646 OFFCURVE",
"260 603 CURVE SMOOTH",
"256 561 OFFCURVE",
"252 518 OFFCURVE",
"246 469 CURVE",
"287 516 OFFCURVE",
"341 547 OFFCURVE",
"402 547 CURVE SMOOTH",
"415 547 LINE SMOOTH",
"440 547 OFFCURVE",
"466 542 OFFCURVE",
"490 532 CURVE SMOOTH",
"513 521 OFFCURVE",
"532 504 OFFCURVE",
"543 481 CURVE SMOOTH",
"563 442 OFFCURVE",
"568 403 OFFCURVE",
"568 366 CURVE SMOOTH",
"568 353 OFFCURVE",
"567 340 OFFCURVE",
"566 328 CURVE SMOOTH"
);
}
);
width = 693;
}
);
unicode = 0068;
},
{
glyphname = i;
lastChange = "2014-11-05 03:31:07 -0500";
layers = (
{
anchors = (
{
name = bottom;
position = "{159, -13}";
}
);
layerId = "013FA67F-D7C9-4F04-AAC6-32032829ED9A";
name = "Bold Italic";
paths = (
{
closed = 1;
nodes = (
"168 539 LINE",
"178 536 OFFCURVE",
"187 534 OFFCURVE",
"195 534 CURVE SMOOTH",
"207 534 OFFCURVE",
"222 538 OFFCURVE",
"240 543 CURVE",
"232 457 OFFCURVE",
"225 363 OFFCURVE",
"218 269 CURVE SMOOTH",
"211 175 OFFCURVE",
"205 80 OFFCURVE",
"199 -6 CURVE",
"181 10 OFFCURVE",
"166 19 OFFCURVE",
"154 19 CURVE SMOOTH",
"142 19 OFFCURVE",
"124 10 OFFCURVE",
"102 -7 CURVE",
"111 79 OFFCURVE",
"121 171 OFFCURVE",
"130 262 CURVE SMOOTH",
"139 354 OFFCURVE",
"148 445 OFFCURVE",
"156 531 CURVE"
);
},
{
closed = 1;
nodes = (
"188 741 LINE",
"195 736 OFFCURVE",
"203 733 OFFCURVE",
"213 733 CURVE SMOOTH",
"225 733 OFFCURVE",
"240 740 OFFCURVE",
"260 753 CURVE",
"260 747 OFFCURVE",
"259 736 OFFCURVE",
"258 725 CURVE",
"258 719 OFFCURVE",
"258 713 OFFCURVE",
"257 708 CURVE SMOOTH",
"257 703 OFFCURVE",
"257 699 OFFCURVE",
"257 695 CURVE",
"256 685 OFFCURVE",
"255 674 OFFCURVE",
"255 663 CURVE SMOOTH",
"254 651 OFFCURVE",
"253 640 OFFCURVE",
"253 630 CURVE",
"237 622 OFFCURVE",
"220 616 OFFCURVE",
"205 616 CURVE SMOOTH",
"189 616 OFFCURVE",
"175 621 OFFCURVE",
"160 632 CURVE",
"166 686 LINE",
"172 735 LINE"
);
}
);
width = 331;
}
);
unicode = 0069;
},
{
glyphname = j;
lastChange = "2014-11-05 03:31:07 -0500";
layers = (
{
layerId = "013FA67F-D7C9-4F04-AAC6-32032829ED9A";
name = "Bold Italic";
paths = (
{
closed = 1;
nodes = (
"204 528 LINE",
"227 528 OFFCURVE",
"256 531 OFFCURVE",
"285 535 CURVE",
"262 360 OFFCURVE",
"239 177 OFFCURVE",
"220 2 CURVE SMOOTH",
"217 -21 OFFCURVE",
"214 -46 OFFCURVE",
"207 -70 CURVE SMOOTH",
"199 -94 OFFCURVE",
"188 -117 OFFCURVE",
"168 -136 CURVE",
"151 -151 OFFCURVE",
"132 -161 OFFCURVE",
"113 -168 CURVE SMOOTH",
"93 -175 OFFCURVE",
"72 -179 OFFCURVE",
"52 -183 CURVE SMOOTH",
"48 -184 OFFCURVE",
"43 -185 OFFCURVE",
"39 -186 CURVE",
"29 -188 OFFCURVE",
"19 -189 OFFCURVE",
"6 -193 CURVE SMOOTH",
"0 -195 OFFCURVE",
"-8 -198 OFFCURVE",
"-17 -201 CURVE",
"-9 -145 LINE SMOOTH",
"-5 -118 OFFCURVE",
"0 -84 OFFCURVE",
"3 -57 CURVE",
"32 -51 LINE",
"59 -47 OFFCURVE",
"88 -41 OFFCURVE",
"107 -23 CURVE",
"115 -13 OFFCURVE",
"121 1 OFFCURVE",
"125 15 CURVE SMOOTH",
"128 29 OFFCURVE",
"130 44 OFFCURVE",
"132 58 CURVE",
"132 59 OFFCURVE",
"132 60 OFFCURVE",
"133 62 CURVE",
"133 63 OFFCURVE",
"133 63 OFFCURVE",
"133 64 CURVE",
"138 95 OFFCURVE",
"142 125 OFFCURVE",
"146 156 CURVE SMOOTH",
"150 187 OFFCURVE",
"154 218 OFFCURVE",
"158 249 CURVE SMOOTH",
"165 294 OFFCURVE",
"170 340 OFFCURVE",
"176 385 CURVE SMOOTH",
"182 429 OFFCURVE",
"188 475 OFFCURVE",
"195 520 CURVE"
);
},
{
closed = 1;
nodes = (
"243 731 LINE",
"266 735 OFFCURVE",
"292 740 OFFCURVE",
"324 750 CURVE",
"323 745 OFFCURVE",
"323 738 OFFCURVE",
"322 731 CURVE SMOOTH",
"322 724 OFFCURVE",
"321 717 OFFCURVE",
"320 710 CURVE SMOOTH",
"319 695 OFFCURVE",
"318 681 OFFCURVE",
"317 669 CURVE",
"317 664 OFFCURVE",
"316 657 OFFCURVE",
"316 649 CURVE SMOOTH",
"315 642 OFFCURVE",
"315 635 OFFCURVE",
"314 629 CURVE",
"283 621 OFFCURVE",
"251 617 OFFCURVE",
"218 613 CURVE",
"221 636 LINE SMOOTH",
"224 651 OFFCURVE",
"226 666 OFFCURVE",
"228 680 CURVE SMOOTH",
"230 694 OFFCURVE",
"232 709 OFFCURVE",
"234 724 CURVE"
);
}
);
width = 354;
}
);
unicode = 006A;
},
{
glyphname = k;
lastChange = "2014-11-05 03:31:07 -0500";
layers = (
{
anchors = (
{
name = bottom;
position = "{287, 0}";
}
);
layerId = "013FA67F-D7C9-4F04-AAC6-32032829ED9A";
name = "Bold Italic";
paths = (
{
closed = 1;
nodes = (
"183 745 LINE",
"209 741 OFFCURVE",
"243 738 OFFCURVE",
"269 737 CURVE",
"266 668 OFFCURVE",
"262 604 OFFCURVE",
"257 541 CURVE SMOOTH",
"252 476 OFFCURVE",
"247 413 OFFCURVE",
"239 344 CURVE",
"269 376 OFFCURVE",
"298 408 OFFCURVE",
"328 440 CURVE SMOOTH",
"357 472 OFFCURVE",
"387 503 OFFCURVE",
"417 535 CURVE",
"432 535 OFFCURVE",
"454 535 OFFCURVE",
"476 536 CURVE SMOOTH",
"487 536 OFFCURVE",
"498 536 OFFCURVE",
"508 537 CURVE",
"519 537 OFFCURVE",
"528 537 OFFCURVE",
"536 537 CURVE",
"513 511 OFFCURVE",
"486 481 OFFCURVE",
"459 451 CURVE SMOOTH",
"446 436 OFFCURVE",
"433 421 OFFCURVE",
"420 407 CURVE SMOOTH",
"407 392 OFFCURVE",
"395 378 OFFCURVE",
"384 365 CURVE SMOOTH",
"320 293 LINE",
"338 275 LINE SMOOTH",
"377 232 OFFCURVE",
"422 186 OFFCURVE",
"466 139 CURVE SMOOTH",
"510 91 OFFCURVE",
"552 44 OFFCURVE",
"591 1 CURVE",
"521 11 OFFCURVE",
"457 16 OFFCURVE",
"398 18 CURVE",
"383 38 OFFCURVE",
"369 58 OFFCURVE",
"354 76 CURVE SMOOTH",
"327 113 OFFCURVE",
"300 149 OFFCURVE",
"273 187 CURVE SMOOTH",
"259 206 OFFCURVE",
"245 226 OFFCURVE",
"230 247 CURVE",
"229 219 OFFCURVE",
"228 191 OFFCURVE",
"226 163 CURVE SMOOTH",
"224 135 OFFCURVE",
"222 106 OFFCURVE",
"220 78 CURVE SMOOTH",
"219 69 OFFCURVE",
"218 59 OFFCURVE",
"218 47 CURVE",
"217 35 OFFCURVE",
"216 24 OFFCURVE",
"215 15 CURVE",
"207 15 OFFCURVE",
"197 14 OFFCURVE",
"186 13 CURVE SMOOTH",
"175 12 OFFCURVE",
"164 11 OFFCURVE",
"152 10 CURVE SMOOTH",
"129 8 OFFCURVE",
"106 5 OFFCURVE",
"88 3 CURVE",
"137 251 OFFCURVE",
"165 496 OFFCURVE",
"172 736 CURVE"
);
}
);
width = 721;
}
);
unicode = 006B;
},
{
glyphname = l;
lastChange = "2014-11-05 03:31:07 -0500";
layers = (
{
anchors = (
{
name = bottom;
position = "{146, 0}";
},
{
name = dot;
position = "{243, 419}";
},
{
name = top;
position = "{218, 710}";
},
{
name = topright;
position = "{306, 710}";
}
);
layerId = "013FA67F-D7C9-4F04-AAC6-32032829ED9A";
name = "Bold Italic";
paths = (
{
closed = 1;
nodes = (
"185 742 LINE",
"201 735 OFFCURVE",
"219 733 OFFCURVE",
"238 733 CURVE SMOOTH",
"240 733 OFFCURVE",
"244 733 OFFCURVE",
"247 733 CURVE",
"250 733 OFFCURVE",
"256 734 OFFCURVE",
"264 734 CURVE",
"245 533 OFFCURVE",
"228 333 OFFCURVE",
"210 131 CURVE",
"228 129 OFFCURVE",
"247 125 OFFCURVE",
"266 119 CURVE",
"265 103 OFFCURVE",
"263 81 OFFCURVE",
"262 60 CURVE SMOOTH",
"261 49 OFFCURVE",
"260 38 OFFCURVE",
"260 28 CURVE SMOOTH",
"259 18 OFFCURVE",
"259 8 OFFCURVE",
"258 0 CURVE",
"230 12 OFFCURVE",
"205 19 OFFCURVE",
"182 19 CURVE SMOOTH",
"159 19 OFFCURVE",
"131 12 OFFCURVE",
"98 0 CURVE",
"128 241 OFFCURVE",
"153 493 OFFCURVE",
"172 735 CURVE"
);
}
);
width = 389;
}
);
unicode = 006C;
},
{
glyphname = m;
lastChange = "2014-11-05 03:31:07 -0500";
layers = (
{
layerId = "013FA67F-D7C9-4F04-AAC6-32032829ED9A";
name = "Bold Italic";
paths = (
{
closed = 1;
nodes = (
"213 459 LINE",
"213 458 LINE",
"213 459 LINE"
);
},
{
closed = 1;
nodes = (
"406 546 OFFCURVE",
"443 539 OFFCURVE",
"474 521 CURVE SMOOTH",
"505 504 OFFCURVE",
"529 479 OFFCURVE",
"540 442 CURVE",
"560 471 OFFCURVE",
"585 498 OFFCURVE",
"616 518 CURVE SMOOTH",
"651 541 OFFCURVE",
"696 548 OFFCURVE",
"735 548 CURVE SMOOTH",
"761 548 OFFCURVE",
"786 542 OFFCURVE",
"807 529 CURVE SMOOTH",
"828 516 OFFCURVE",
"845 496 OFFCURVE",
"852 471 CURVE",
"852 471 LINE",
"860 444 OFFCURVE",
"862 417 OFFCURVE",
"862 391 CURVE SMOOTH",
"862 369 OFFCURVE",
"860 348 OFFCURVE",
"858 327 CURVE SMOOTH",
"854 279 OFFCURVE",
"851 231 OFFCURVE",
"851 184 CURVE SMOOTH",
"851 127 OFFCURVE",
"855 68 OFFCURVE",
"866 4 CURVE",
"857 5 OFFCURVE",
"847 5 OFFCURVE",
"836 6 CURVE SMOOTH",
"825 6 OFFCURVE",
"813 7 OFFCURVE",
"801 8 CURVE SMOOTH",
"790 8 OFFCURVE",
"778 9 OFFCURVE",
"767 9 CURVE SMOOTH",
"756 10 OFFCURVE",
"746 10 OFFCURVE",
"736 10 CURVE",
"736 34 LINE SMOOTH",
"736 135 OFFCURVE",
"750 238 OFFCURVE",
"768 339 CURVE",
"769 354 LINE",
"770 363 OFFCURVE",
"771 371 OFFCURVE",
"771 379 CURVE SMOOTH",
"771 387 OFFCURVE",
"772 395 OFFCURVE",
"772 402 CURVE SMOOTH",
"772 455 OFFCURVE",
"753 478 OFFCURVE",
"712 478 CURVE SMOOTH",
"670 478 OFFCURVE",
"627 462 OFFCURVE",
"600 427 CURVE",
"570 392 OFFCURVE",
"558 349 OFFCURVE",
"554 305 CURVE",
"543 210 OFFCURVE",
"534 110 OFFCURVE",
"528 15 CURVE",
"396 15 LINE",
"418 121 OFFCURVE",
"441 237 OFFCURVE",
"460 343 CURVE",
"460 342 LINE",
"461 352 OFFCURVE",
"461 361 OFFCURVE",
"461 372 CURVE SMOOTH",
"461 397 OFFCURVE",
"458 422 OFFCURVE",
"446 443 CURVE",
"447 442 LINE",
"437 458 OFFCURVE",
"424 468 OFFCURVE",
"409 474 CURVE SMOOTH",
"395 479 OFFCURVE",
"378 481 OFFCURVE",
"363 481 CURVE SMOOTH",
"319 481 OFFCURVE",
"286 457 OFFCURVE",
"262 424 CURVE SMOOTH",
"239 390 OFFCURVE",
"226 346 OFFCURVE",
"224 307 CURVE SMOOTH",
"218 209 OFFCURVE",
"209 111 OFFCURVE",
"188 9 CURVE",
"179 9 OFFCURVE",
"169 9 OFFCURVE",
"159 8 CURVE SMOOTH",
"137 8 OFFCURVE",
"113 7 OFFCURVE",
"91 5 CURVE SMOOTH",
"80 5 OFFCURVE",
"70 4 OFFCURVE",
"62 4 CURVE",
"110 158 OFFCURVE",
"133 311 OFFCURVE",
"133 460 CURVE SMOOTH",
"133 484 OFFCURVE",
"132 518 OFFCURVE",
"131 542 CURVE",
"179 539 LINE",
"227 537 LINE",
"226 518 OFFCURVE",
"224 494 OFFCURVE",
"222 471 CURVE",
"256 519 OFFCURVE",
"312 546 OFFCURVE",
"368 546 CURVE SMOOTH"
);
}
);
width = 996;
}
);
unicode = 006D;
},
{
glyphname = n;
lastChange = "2014-11-05 03:31:07 -0500";
layers = (
{
anchors = (
{
name = bottom;
position = "{315, 0}";
},
{
name = top;
position = "{315, 541}";
}
);
layerId = "013FA67F-D7C9-4F04-AAC6-32032829ED9A";
name = "Bold Italic";
paths = (
{
closed = 1;
nodes = (
"552 270 OFFCURVE",
"549 214 OFFCURVE",
"549 157 CURVE SMOOTH",
"549 109 OFFCURVE",
"552 59 OFFCURVE",
"557 4 CURVE",
"538 6 OFFCURVE",
"514 7 OFFCURVE",
"490 9 CURVE SMOOTH",
"466 11 OFFCURVE",
"442 12 OFFCURVE",
"423 13 CURVE",
"430 116 OFFCURVE",
"444 227 OFFCURVE",
"460 330 CURVE",
"460 331 OFFCURVE",
"460 333 OFFCURVE",
"460 334 CURVE SMOOTH",
"460 336 OFFCURVE",
"460 338 OFFCURVE",
"460 339 CURVE",
"460 339 LINE",
"462 350 OFFCURVE",
"462 361 OFFCURVE",
"462 372 CURVE SMOOTH",
"462 393 OFFCURVE",
"460 413 OFFCURVE",
"452 432 CURVE",
"452 431 LINE",
"444 445 OFFCURVE",
"434 453 OFFCURVE",
"421 459 CURVE SMOOTH",
"409 464 OFFCURVE",
"396 466 OFFCURVE",
"382 466 CURVE SMOOTH",
"362 466 OFFCURVE",
"340 464 OFFCURVE",
"319 458 CURVE SMOOTH",
"299 452 OFFCURVE",
"279 442 OFFCURVE",
"264 426 CURVE SMOOTH",
"235 394 OFFCURVE",
"224 351 OFFCURVE",
"221 310 CURVE",
"221 311 LINE",
"217 213 OFFCURVE",
"210 110 OFFCURVE",
"200 13 CURVE",
"190 12 OFFCURVE",
"180 11 OFFCURVE",
"169 11 CURVE SMOOTH",
"146 9 OFFCURVE",
"123 8 OFFCURVE",
"100 6 CURVE SMOOTH",
"88 5 OFFCURVE",
"78 4 OFFCURVE",
"69 3 CURVE",
"110 185 OFFCURVE",
"129 365 OFFCURVE",
"132 547 CURVE",
"144 545 OFFCURVE",
"162 544 OFFCURVE",
"180 542 CURVE SMOOTH",
"188 542 OFFCURVE",
"197 541 OFFCURVE",
"205 541 CURVE SMOOTH",
"213 540 OFFCURVE",
"221 540 OFFCURVE",
"227 539 CURVE",
"226 496 LINE SMOOTH",
"226 493 OFFCURVE",
"226 491 OFFCURVE",
"226 491 CURVE",
"226 490 OFFCURVE",
"226 490 OFFCURVE",
"226 489 CURVE",
"225 489 OFFCURVE",
"225 488 OFFCURVE",
"225 487 CURVE SMOOTH",
"225 487 OFFCURVE",
"225 485 OFFCURVE",
"225 482 CURVE",
"281 521 OFFCURVE",
"338 545 OFFCURVE",
"405 545 CURVE SMOOTH",
"431 545 OFFCURVE",
"457 540 OFFCURVE",
"480 530 CURVE SMOOTH",
"503 520 OFFCURVE",
"522 503 OFFCURVE",
"535 479 CURVE",
"552 440 OFFCURVE",
"557 401 OFFCURVE",
"557 363 CURVE SMOOTH",
"557 351 OFFCURVE",
"556 339 OFFCURVE",
"556 327 CURVE SMOOTH"
);
}
);
width = 687;
}
);
unicode = 006E;
},
{
glyphname = o;
lastChange = "2014-11-05 03:31:07 -0500";
layers = (
{
anchors = (
{
name = bottom;
position = "{283, -28}";
},
{
name = horncomb;
position = "{500, 408}";
},
{
name = top;
position = "{333, 541}";
}
);
layerId = "013FA67F-D7C9-4F04-AAC6-32032829ED9A";
name = "Bold Italic";
paths = (
{
closed = 1;
nodes = (
"289 472 OFFCURVE",
"248 457 OFFCURVE",
"222 424 CURVE SMOOTH",
"203 399 OFFCURVE",
"191 370 OFFCURVE",
"184 340 CURVE SMOOTH",
"176 310 OFFCURVE",
"174 278 OFFCURVE",
"174 250 CURVE SMOOTH",
"174 222 OFFCURVE",
"178 194 OFFCURVE",
"200 177 CURVE",
"199 177 LINE",
"229 158 OFFCURVE",
"264 155 OFFCURVE",
"299 155 CURVE SMOOTH",
"334 155 OFFCURVE",
"372 160 OFFCURVE",
"403 178 CURVE",
"402 178 LINE",
"424 193 OFFCURVE",
"436 219 OFFCURVE",
"442 246 CURVE SMOOTH",
"448 273 OFFCURVE",
"449 301 OFFCURVE",
"449 319 CURVE SMOOTH",
"449 356 OFFCURVE",
"443 394 OFFCURVE",
"425 424 CURVE SMOOTH",
"406 456 OFFCURVE",
"368 472 OFFCURVE",
"329 472 CURVE SMOOTH"
);
},
{
closed = 1;
nodes = (
"366 544 OFFCURVE",
"399 540 OFFCURVE",
"429 529 CURVE SMOOTH",
"458 519 OFFCURVE",
"484 501 OFFCURVE",
"504 474 CURVE SMOOTH",
"535 431 OFFCURVE",
"544 378 OFFCURVE",
"544 325 CURVE SMOOTH",
"544 286 OFFCURVE",
"541 240 OFFCURVE",
"529 195 CURVE SMOOTH",
"518 150 OFFCURVE",
"499 106 OFFCURVE",
"469 71 CURVE",
"445 45 OFFCURVE",
"416 28 OFFCURVE",
"383 17 CURVE SMOOTH",
"351 6 OFFCURVE",
"317 1 OFFCURVE",
"285 1 CURVE SMOOTH",
"254 1 OFFCURVE",
"221 6 OFFCURVE",
"191 17 CURVE SMOOTH",
"162 27 OFFCURVE",
"135 44 OFFCURVE",
"117 71 CURVE",
"117 71 LINE",
"85 114 OFFCURVE",
"76 168 OFFCURVE",
"76 222 CURVE SMOOTH",
"76 261 OFFCURVE",
"80 307 OFFCURVE",
"91 352 CURVE SMOOTH",
"102 396 OFFCURVE",
"121 440 OFFCURVE",
"151 475 CURVE",
"175 499 OFFCURVE",
"206 516 OFFCURVE",
"237 527 CURVE SMOOTH",
"269 539 OFFCURVE",
"303 544 OFFCURVE",
"334 544 CURVE SMOOTH"
);
}
);
width = 619;
}
);
unicode = 006F;
},
{
glyphname = p;
lastChange = "2014-11-05 03:31:07 -0500";
layers = (
{
layerId = "013FA67F-D7C9-4F04-AAC6-32032829ED9A";
name = "Bold Italic";
paths = (
{
closed = 1;
nodes = (
"326 -2 LINE SMOOTH",
"297 -2 OFFCURVE",
"269 4 OFFCURVE",
"244 17 CURVE SMOOTH",
"219 29 OFFCURVE",
"198 48 OFFCURVE",
"185 73 CURVE",
"173 -13 OFFCURVE",
"158 -102 OFFCURVE",
"144 -188 CURVE",
"137 -188 OFFCURVE",
"129 -189 OFFCURVE",
"121 -189 CURVE",
"113 -190 OFFCURVE",
"104 -191 OFFCURVE",
"95 -192 CURVE",
"86 -193 OFFCURVE",
"77 -194 OFFCURVE",
"69 -195 CURVE SMOOTH",
"60 -196 OFFCURVE",
"52 -197 OFFCURVE",
"46 -197 CURVE",
"94 51 OFFCURVE",
"121 294 OFFCURVE",
"131 541 CURVE",
"144 539 OFFCURVE",
"161 538 OFFCURVE",
"179 536 CURVE SMOOTH",
"196 534 OFFCURVE",
"213 533 OFFCURVE",
"227 532 CURVE",
"219 484 LINE",
"217 470 LINE",
"236 494 OFFCURVE",
"261 511 OFFCURVE",
"289 523 CURVE SMOOTH",
"316 535 OFFCURVE",
"346 541 OFFCURVE",
"375 541 CURVE SMOOTH",
"389 541 LINE SMOOTH",
"416 541 OFFCURVE",
"443 533 OFFCURVE",
"468 521 CURVE SMOOTH",
"493 509 OFFCURVE",
"515 491 OFFCURVE",
"531 470 CURVE",
"558 429 OFFCURVE",
"568 377 OFFCURVE",
"568 328 CURVE SMOOTH",
"568 287 OFFCURVE",
"563 240 OFFCURVE",
"552 195 CURVE SMOOTH",
"540 150 OFFCURVE",
"521 107 OFFCURVE",
"490 71 CURVE",
"490 71 LINE",
"471 48 OFFCURVE",
"448 30 OFFCURVE",
"422 18 CURVE SMOOTH",
"396 5 OFFCURVE",
"367 -2 OFFCURVE",
"339 -2 CURVE SMOOTH"
);
},
{
closed = 1;
nodes = (
"504 287 LINE",
"506 302 OFFCURVE",
"507 316 OFFCURVE",
"507 331 CURVE SMOOTH",
"507 369 OFFCURVE",
"499 405 OFFCURVE",
"480 432 CURVE SMOOTH",
"462 458 OFFCURVE",
"434 476 OFFCURVE",
"395 476 CURVE SMOOTH",
"352 476 OFFCURVE",
"310 460 OFFCURVE",
"283 424 CURVE SMOOTH",
"263 400 OFFCURVE",
"251 371 OFFCURVE",
"244 341 CURVE SMOOTH",
"237 311 OFFCURVE",
"235 279 OFFCURVE",
"235 251 CURVE SMOOTH",
"235 220 OFFCURVE",
"240 188 OFFCURVE",
"264 169 CURVE",
"263 170 LINE",
"292 151 OFFCURVE",
"326 145 OFFCURVE",
"361 145 CURVE SMOOTH",
"396 145 OFFCURVE",
"431 150 OFFCURVE",
"460 170 CURVE",
"459 169 LINE",
"475 183 OFFCURVE",
"485 200 OFFCURVE",
"491 220 CURVE SMOOTH",
"498 239 OFFCURVE",
"501 260 OFFCURVE",
"503 279 CURVE",
"503 280 OFFCURVE",
"503 281 OFFCURVE",
"504 283 CURVE",
"504 284 OFFCURVE",
"504 285 OFFCURVE",
"504 286 CURVE SMOOTH"
);
}
);
width = 642;
}
);
unicode = 0070;
},
{
glyphname = q;
lastChange = "2014-11-05 03:31:07 -0500";
layers = (
{
layerId = "013FA67F-D7C9-4F04-AAC6-32032829ED9A";
name = "Bold Italic";
paths = (
{
closed = 1;
nodes = (
"143 281 OFFCURVE",
"143 279 OFFCURVE",
"143 277 CURVE",
"143 275 OFFCURVE",
"143 273 OFFCURVE",
"143 272 CURVE",
"142 264 OFFCURVE",
"142 256 OFFCURVE",
"142 249 CURVE SMOOTH",
"142 218 OFFCURVE",
"146 188 OFFCURVE",
"168 168 CURVE",
"167 169 LINE",
"193 150 OFFCURVE",
"229 146 OFFCURVE",
"262 146 CURVE SMOOTH",
"297 146 OFFCURVE",
"334 152 OFFCURVE",
"365 169 CURVE",
"364 169 LINE",
"388 186 OFFCURVE",
"400 214 OFFCURVE",
"407 244 CURVE SMOOTH",
"413 272 OFFCURVE",
"414 302 OFFCURVE",
"414 322 CURVE SMOOTH",
"414 359 OFFCURVE",
"408 394 OFFCURVE",
"390 423 CURVE SMOOTH",
"369 458 OFFCURVE",
"329 473 OFFCURVE",
"286 472 CURVE SMOOTH",
"268 472 OFFCURVE",
"250 468 OFFCURVE",
"232 460 CURVE SMOOTH",
"215 452 OFFCURVE",
"200 440 OFFCURVE",
"188 425 CURVE SMOOTH",
"172 404 OFFCURVE",
"162 380 OFFCURVE",
"155 356 CURVE SMOOTH",
"148 333 OFFCURVE",
"145 307 OFFCURVE",
"143 282 CURVE"
);
},
{
closed = 1;
nodes = (
"407 -103 OFFCURVE",
"413 -13 OFFCURVE",
"422 72 CURVE",
"404 48 OFFCURVE",
"380 30 OFFCURVE",
"354 18 CURVE SMOOTH",
"328 5 OFFCURVE",
"299 -2 OFFCURVE",
"271 -2 CURVE SMOOTH",
"257 -2 LINE SMOOTH",
"201 -2 OFFCURVE",
"147 24 OFFCURVE",
"118 71 CURVE SMOOTH",
"86 120 OFFCURVE",
"78 178 OFFCURVE",
"78 236 CURVE SMOOTH",
"78 273 OFFCURVE",
"82 316 OFFCURVE",
"92 357 CURVE SMOOTH",
"103 398 OFFCURVE",
"120 438 OFFCURVE",
"147 471 CURVE SMOOTH",
"186 516 OFFCURVE",
"244 541 OFFCURVE",
"300 541 CURVE SMOOTH",
"316 541 LINE SMOOTH",
"346 541 OFFCURVE",
"375 532 OFFCURVE",
"400 519 CURVE SMOOTH",
"426 504 OFFCURVE",
"449 484 OFFCURVE",
"464 461 CURVE",
"476 505 LINE",
"483 534 LINE",
"497 535 OFFCURVE",
"514 537 OFFCURVE",
"532 539 CURVE SMOOTH",
"541 540 OFFCURVE",
"550 541 OFFCURVE",
"558 542 CURVE",
"566 542 OFFCURVE",
"574 543 OFFCURVE",
"581 544 CURVE",
"532 295 OFFCURVE",
"503 51 OFFCURVE",
"497 -194 CURVE",
"497 -194 OFFCURVE",
"496 -194 OFFCURVE",
"495 -194 CURVE SMOOTH",
"493 -194 OFFCURVE",
"491 -194 OFFCURVE",
"490 -193 CURVE",
"488 -193 OFFCURVE",
"487 -193 OFFCURVE",
"485 -193 CURVE SMOOTH",
"484 -193 OFFCURVE",
"483 -193 OFFCURVE",
"482 -193 CURVE",
"458 -190 OFFCURVE",
"426 -188 OFFCURVE",
"401 -186 CURVE"
);
}
);
width = 669;
}
);
unicode = 0071;
},
{
glyphname = r;
lastChange = "2014-11-05 03:31:07 -0500";
layers = (
{
anchors = (
{
name = bottom;
position = "{175, 0}";
},
{
name = top;
position = "{175, 541}";
}
);
layerId = "013FA67F-D7C9-4F04-AAC6-32032829ED9A";
name = "Bold Italic";
paths = (
{
closed = 1;
nodes = (
"394 445 LINE",
"386 449 OFFCURVE",
"376 450 OFFCURVE",
"367 450 CURVE SMOOTH",
"344 450 OFFCURVE",
"319 448 OFFCURVE",
"296 440 CURVE SMOOTH",
"272 433 OFFCURVE",
"251 420 OFFCURVE",
"236 399 CURVE SMOOTH",
"209 362 OFFCURVE",
"200 315 OFFCURVE",
"196 272 CURVE",
"196 272 LINE",
"191 188 OFFCURVE",
"187 98 OFFCURVE",
"180 14 CURVE",
"142 13 OFFCURVE",
"102 9 OFFCURVE",
"57 3 CURVE",
"94 184 OFFCURVE",
"116 360 OFFCURVE",
"129 535 CURVE",
"148 533 OFFCURVE",
"175 531 OFFCURVE",
"193 530 CURVE",
"195 530 OFFCURVE",
"199 530 OFFCURVE",
"204 529 CURVE SMOOTH",
"209 529 OFFCURVE",
"213 529 OFFCURVE",
"215 529 CURVE",
"212 480 LINE",
"222 486 OFFCURVE",
"231 491 OFFCURVE",
"241 496 CURVE SMOOTH",
"263 509 LINE SMOOTH",
"283 521 OFFCURVE",
"305 529 OFFCURVE",
"329 534 CURVE SMOOTH",
"352 540 OFFCURVE",
"374 542 OFFCURVE",
"395 542 CURVE SMOOTH",
"420 542 LINE",
"418 529 OFFCURVE",
"416 514 OFFCURVE",
"413 498 CURVE SMOOTH",
"411 481 OFFCURVE",
"408 466 OFFCURVE",
"407 453 CURVE"
);
}
);
width = 441;
}
);
unicode = 0072;
},
{
glyphname = s;
lastChange = "2014-11-05 03:31:07 -0500";
layers = (
{
anchors = (
{
name = bottom;
position = "{268, 0}";
},
{
name = top;
position = "{340, 541}";
}
);
layerId = "013FA67F-D7C9-4F04-AAC6-32032829ED9A";
name = "Bold Italic";
paths = (
{
closed = 1;
nodes = (
"483 521 LINE",
"478 491 LINE",
"476 484 OFFCURVE",
"475 475 OFFCURVE",
"473 465 CURVE",
"473 461 OFFCURVE",
"472 456 OFFCURVE",
"471 452 CURVE",
"470 447 OFFCURVE",
"470 443 OFFCURVE",
"469 440 CURVE",
"414 465 OFFCURVE",
"361 473 OFFCURVE",
"309 473 CURVE SMOOTH",
"282 473 OFFCURVE",
"251 468 OFFCURVE",
"228 456 CURVE SMOOTH",
"204 444 OFFCURVE",
"186 423 OFFCURVE",
"186 391 CURVE SMOOTH",
"186 363 OFFCURVE",
"205 346 OFFCURVE",
"230 334 CURVE SMOOTH",
"255 322 OFFCURVE",
"286 316 OFFCURVE",
"307 312 CURVE",
"316 310 LINE SMOOTH",
"338 304 OFFCURVE",
"360 298 OFFCURVE",
"381 291 CURVE SMOOTH",
"401 282 OFFCURVE",
"421 271 OFFCURVE",
"437 256 CURVE SMOOTH",
"461 233 OFFCURVE",
"469 198 OFFCURVE",
"469 167 CURVE SMOOTH",
"469 143 OFFCURVE",
"465 117 OFFCURVE",
"455 95 CURVE SMOOTH",
"445 73 OFFCURVE",
"429 53 OFFCURVE",
"406 39 CURVE SMOOTH",
"380 22 OFFCURVE",
"352 13 OFFCURVE",
"323 8 CURVE SMOOTH",
"293 2 OFFCURVE",
"264 1 OFFCURVE",
"236 1 CURVE SMOOTH",
"179 1 OFFCURVE",
"118 10 OFFCURVE",
"58 25 CURVE",
"62 45 OFFCURVE",
"65 70 OFFCURVE",
"69 94 CURVE SMOOTH",
"72 119 OFFCURVE",
"76 143 OFFCURVE",
"78 163 CURVE",
"133 133 OFFCURVE",
"189 118 OFFCURVE",
"245 118 CURVE SMOOTH",
"256 118 LINE",
"258 117 OFFCURVE",
"260 117 OFFCURVE",
"262 117 CURVE SMOOTH",
"264 117 OFFCURVE",
"266 117 OFFCURVE",
"268 117 CURVE SMOOTH",
"288 117 OFFCURVE",
"312 121 OFFCURVE",
"332 130 CURVE SMOOTH",
"351 140 OFFCURVE",
"373 154 OFFCURVE",
"368 179 CURVE SMOOTH",
"364 195 OFFCURVE",
"356 207 OFFCURVE",
"349 215 CURVE",
"337 224 OFFCURVE",
"320 230 OFFCURVE",
"304 235 CURVE SMOOTH",
"288 240 OFFCURVE",
"271 244 OFFCURVE",
"256 247 CURVE SMOOTH",
"238 251 LINE SMOOTH",
"219 256 OFFCURVE",
"200 261 OFFCURVE",
"181 269 CURVE SMOOTH",
"163 276 OFFCURVE",
"144 285 OFFCURVE",
"130 299 CURVE SMOOTH",
"108 320 OFFCURVE",
"102 354 OFFCURVE",
"102 385 CURVE SMOOTH",
"102 412 OFFCURVE",
"107 440 OFFCURVE",
"120 465 CURVE SMOOTH",
"133 489 OFFCURVE",
"152 509 OFFCURVE",
"181 521 CURVE SMOOTH",
"229 540 OFFCURVE",
"269 544 OFFCURVE",
"312 544 CURVE SMOOTH",
"368 544 OFFCURVE",
"424 541 OFFCURVE",
"477 523 CURVE"
);
}
);
width = 569;
}
);
unicode = 0073;
},
{
glyphname = t;
lastChange = "2014-11-05 03:31:07 -0500";
layers = (
{
anchors = (
{
name = bottom;
position = "{298, 0}";
},
{
name = center;
position = "{298, 271}";
},
{
name = top;
position = "{271, 638}";
}
);
layerId = "013FA67F-D7C9-4F04-AAC6-32032829ED9A";
name = "Bold Italic";
paths = (
{
closed = 1;
nodes = (
"304 649 LINE",
"302 639 OFFCURVE",
"301 628 OFFCURVE",
"300 617 CURVE",
"299 605 OFFCURVE",
"297 594 OFFCURVE",
"296 583 CURVE",
"296 584 LINE",
"290 533 LINE",
"298 533 LINE SMOOTH",
"314 533 OFFCURVE",
"333 534 OFFCURVE",
"353 535 CURVE SMOOTH",
"362 535 OFFCURVE",
"372 535 OFFCURVE",
"381 536 CURVE SMOOTH",
"390 536 OFFCURVE",
"399 537 OFFCURVE",
"407 537 CURVE",
"404 503 LINE",
"403 492 OFFCURVE",
"400 473 OFFCURVE",
"398 461 CURVE",
"367 460 OFFCURVE",
"327 458 OFFCURVE",
"294 458 CURVE SMOOTH",
"283 458 LINE",
"281 437 OFFCURVE",
"278 414 OFFCURVE",
"276 392 CURVE SMOOTH",
"273 367 OFFCURVE",
"271 342 OFFCURVE",
"268 317 CURVE SMOOTH",
"266 292 OFFCURVE",
"263 267 OFFCURVE",
"260 242 CURVE",
"260 240 OFFCURVE",
"260 238 OFFCURVE",
"260 237 CURVE",
"260 235 OFFCURVE",
"260 233 OFFCURVE",
"260 232 CURVE",
"259 224 OFFCURVE",
"259 218 OFFCURVE",
"259 210 CURVE SMOOTH",
"259 194 OFFCURVE",
"260 178 OFFCURVE",
"269 166 CURVE",
"268 167 LINE",
"283 152 OFFCURVE",
"309 151 OFFCURVE",
"333 150 CURVE SMOOTH",
"360 148 OFFCURVE",
"395 146 OFFCURVE",
"422 143 CURVE",
"422 132 OFFCURVE",
"421 122 OFFCURVE",
"421 109 CURVE SMOOTH",
"420 97 OFFCURVE",
"420 85 OFFCURVE",
"420 73 CURVE SMOOTH",
"419 48 OFFCURVE",
"418 23 OFFCURVE",
"418 3 CURVE",
"406 5 OFFCURVE",
"392 7 OFFCURVE",
"378 9 CURVE",
"371 9 OFFCURVE",
"364 10 OFFCURVE",
"356 11 CURVE",
"349 12 OFFCURVE",
"343 13 OFFCURVE",
"337 13 CURVE SMOOTH",
"324 15 LINE",
"308 16 LINE SMOOTH",
"287 18 OFFCURVE",
"264 20 OFFCURVE",
"243 25 CURVE SMOOTH",
"222 30 OFFCURVE",
"201 39 OFFCURVE",
"185 52 CURVE",
"160 77 OFFCURVE",
"155 110 OFFCURVE",
"155 144 CURVE SMOOTH",
"155 159 OFFCURVE",
"156 174 OFFCURVE",
"157 188 CURVE SMOOTH",
"160 211 OFFCURVE",
"163 234 OFFCURVE",
"165 257 CURVE SMOOTH",
"170 302 OFFCURVE",
"175 347 OFFCURVE",
"180 392 CURVE SMOOTH",
"182 415 OFFCURVE",
"184 438 OFFCURVE",
"186 461 CURVE",
"167 462 OFFCURVE",
"143 464 OFFCURVE",
"127 466 CURVE",
"127 472 OFFCURVE",
"127 479 OFFCURVE",
"128 488 CURVE SMOOTH",
"128 497 OFFCURVE",
"129 504 OFFCURVE",
"129 510 CURVE",
"129 509 LINE",
"131 543 LINE",
"153 540 LINE SMOOTH",
"161 539 OFFCURVE",
"167 538 OFFCURVE",
"172 538 CURVE SMOOTH",
"177 537 OFFCURVE",
"183 536 OFFCURVE",
"191 536 CURVE",
"193 556 OFFCURVE",
"195 578 OFFCURVE",
"198 601 CURVE SMOOTH",
"200 623 OFFCURVE",
"202 644 OFFCURVE",
"204 664 CURVE",
"239 661 OFFCURVE",
"268 660 OFFCURVE",
"294 660 CURVE"
);
}
);
width = 548;
}
);
unicode = 0074;
},
{
glyphname = u;
lastChange = "2014-11-05 03:31:07 -0500";
layers = (
{
anchors = (
{
name = bottom;
position = "{276, -17}";
},
{
name = horncomb;
position = "{545, 436}";
},
{
name = ogonek;
position = "{575, 0}";
},
{
name = top;
position = "{355, 541}";
}
);
layerId = "013FA67F-D7C9-4F04-AAC6-32032829ED9A";
name = "Bold Italic";
paths = (
{
closed = 1;
nodes = (
"126 310 OFFCURVE",
"132 399 OFFCURVE",
"132 491 CURVE SMOOTH",
"132 494 OFFCURVE",
"132 498 OFFCURVE",
"132 501 CURVE",
"131 505 OFFCURVE",
"131 508 OFFCURVE",
"131 512 CURVE SMOOTH",
"131 544 LINE",
"134 543 OFFCURVE",
"138 543 OFFCURVE",
"142 543 CURVE SMOOTH",
"146 542 OFFCURVE",
"149 542 OFFCURVE",
"154 542 CURVE SMOOTH",
"158 541 OFFCURVE",
"162 541 OFFCURVE",
"167 540 CURVE SMOOTH",
"170 540 OFFCURVE",
"174 539 OFFCURVE",
"177 539 CURVE",
"212 536 LINE",
"211 458 OFFCURVE",
"207 373 OFFCURVE",
"201 294 CURVE",
"201 288 LINE SMOOTH",
"201 286 OFFCURVE",
"201 285 OFFCURVE",
"201 283 CURVE",
"201 282 OFFCURVE",
"201 280 OFFCURVE",
"201 279 CURVE SMOOTH",
"201 250 OFFCURVE",
"204 220 OFFCURVE",
"216 194 CURVE",
"216 195 LINE",
"232 166 OFFCURVE",
"260 156 OFFCURVE",
"288 156 CURVE SMOOTH",
"327 156 OFFCURVE",
"366 166 OFFCURVE",
"395 197 CURVE",
"395 197 LINE",
"424 229 OFFCURVE",
"438 271 OFFCURVE",
"445 313 CURVE",
"445 313 LINE",
"453 385 OFFCURVE",
"465 463 OFFCURVE",
"478 535 CURVE",
"493 536 OFFCURVE",
"514 537 OFFCURVE",
"534 539 CURVE SMOOTH",
"555 541 OFFCURVE",
"575 542 OFFCURVE",
"590 544 CURVE",
"551 363 OFFCURVE",
"531 184 OFFCURVE",
"531 5 CURVE",
"524 5 OFFCURVE",
"517 6 OFFCURVE",
"509 6 CURVE SMOOTH",
"492 8 OFFCURVE",
"474 9 OFFCURVE",
"457 10 CURVE SMOOTH",
"449 11 OFFCURVE",
"441 11 OFFCURVE",
"435 11 CURVE",
"437 31 OFFCURVE",
"438 57 OFFCURVE",
"440 78 CURVE",
"399 31 OFFCURVE",
"341 0 OFFCURVE",
"280 0 CURVE SMOOTH",
"267 0 LINE SMOOTH",
"240 0 OFFCURVE",
"214 5 OFFCURVE",
"190 15 CURVE SMOOTH",
"167 25 OFFCURVE",
"146 42 OFFCURVE",
"134 65 CURVE",
"119 100 OFFCURVE",
"114 134 OFFCURVE",
"114 169 CURVE SMOOTH",
"114 186 OFFCURVE",
"115 203 OFFCURVE",
"117 219 CURVE SMOOTH"
);
}
);
width = 661;
}
);
unicode = 0075;
},
{
glyphname = v;
lastChange = "2014-11-05 03:31:07 -0500";
layers = (
{
layerId = "013FA67F-D7C9-4F04-AAC6-32032829ED9A";
name = "Bold Italic";
paths = (
{
closed = 1;
nodes = (
"166 540 LINE SMOOTH",
"187 538 OFFCURVE",
"212 536 OFFCURVE",
"232 535 CURVE",
"275 432 OFFCURVE",
"313 321 OFFCURVE",
"348 215 CURVE SMOOTH",
"349 210 OFFCURVE",
"350 207 OFFCURVE",
"352 203 CURVE",
"353 200 OFFCURVE",
"354 197 OFFCURVE",
"354 193 CURVE SMOOTH",
"356 187 OFFCURVE",
"359 179 OFFCURVE",
"363 169 CURVE",
"391 225 LINE SMOOTH",
"443 329 OFFCURVE",
"498 436 OFFCURVE",
"558 535 CURVE",
"564 536 OFFCURVE",
"573 536 OFFCURVE",
"582 537 CURVE",
"591 538 OFFCURVE",
"601 539 OFFCURVE",
"610 539 CURVE SMOOTH",
"630 541 OFFCURVE",
"649 542 OFFCURVE",
"663 543 CURVE",
"620 467 OFFCURVE",
"583 393 OFFCURVE",
"549 320 CURVE SMOOTH",
"516 248 OFFCURVE",
"485 176 OFFCURVE",
"455 104 CURVE SMOOTH",
"417 14 LINE",
"409 15 OFFCURVE",
"399 15 OFFCURVE",
"389 15 CURVE SMOOTH",
"378 15 OFFCURVE",
"368 15 OFFCURVE",
"360 15 CURVE SMOOTH",
"326 15 LINE SMOOTH",
"319 15 OFFCURVE",
"313 15 OFFCURVE",
"304 15 CURVE",
"296 14 OFFCURVE",
"289 14 OFFCURVE",
"283 14 CURVE",
"277 35 OFFCURVE",
"271 58 OFFCURVE",
"266 81 CURVE SMOOTH",
"254 127 OFFCURVE",
"241 179 OFFCURVE",
"224 244 CURVE SMOOTH",
"208 309 OFFCURVE",
"189 374 OFFCURVE",
"167 441 CURVE SMOOTH",
"156 475 OFFCURVE",
"145 509 OFFCURVE",
"131 543 CURVE"
);
}
);
width = 678;
}
);
unicode = 0076;
},
{
glyphname = w;
lastChange = "2014-11-05 03:31:07 -0500";
layers = (
{
anchors = (
{
name = top;
position = "{500, 541}";
}
);
layerId = "013FA67F-D7C9-4F04-AAC6-32032829ED9A";
name = "Bold Italic";
paths = (
{
closed = 1;
nodes = (
"138 542 LINE",
"163 540 OFFCURVE",
"194 538 OFFCURVE",
"220 537 CURVE",
"260 418 OFFCURVE",
"285 302 OFFCURVE",
"304 185 CURVE",
"315 204 OFFCURVE",
"327 223 OFFCURVE",
"338 241 CURVE SMOOTH",
"349 259 OFFCURVE",
"359 278 OFFCURVE",
"371 297 CURVE SMOOTH",
"376 307 OFFCURVE",
"383 318 OFFCURVE",
"390 331 CURVE SMOOTH",
"397 342 OFFCURVE",
"404 354 OFFCURVE",
"410 364 CURVE",
"483 364 LINE SMOOTH",
"497 364 OFFCURVE",
"516 364 OFFCURVE",
"530 365 CURVE",
"543 332 OFFCURVE",
"554 303 OFFCURVE",
"566 274 CURVE SMOOTH",
"578 245 OFFCURVE",
"589 217 OFFCURVE",
"604 184 CURVE",
"645 302 OFFCURVE",
"688 419 OFFCURVE",
"751 537 CURVE",
"783 539 LINE SMOOTH",
"791 540 OFFCURVE",
"804 541 OFFCURVE",
"817 541 CURVE",
"823 542 OFFCURVE",
"829 542 OFFCURVE",
"835 542 CURVE SMOOTH",
"841 543 OFFCURVE",
"846 543 OFFCURVE",
"851 543 CURVE",
"804 456 OFFCURVE",
"767 368 OFFCURVE",
"736 278 CURVE SMOOTH",
"705 189 OFFCURVE",
"681 99 OFFCURVE",
"661 11 CURVE",
"647 11 OFFCURVE",
"634 12 OFFCURVE",
"619 12 CURVE SMOOTH",
"604 13 OFFCURVE",
"590 13 OFFCURVE",
"577 13 CURVE",
"571 13 OFFCURVE",
"563 13 OFFCURVE",
"555 14 CURVE SMOOTH",
"546 14 OFFCURVE",
"539 14 OFFCURVE",
"533 14 CURVE",
"518 53 OFFCURVE",
"505 88 OFFCURVE",
"494 124 CURVE SMOOTH",
"481 159 OFFCURVE",
"470 195 OFFCURVE",
"458 235 CURVE",
"422 162 OFFCURVE",
"382 84 OFFCURVE",
"343 14 CURVE",
"322 14 OFFCURVE",
"296 13 OFFCURVE",
"275 12 CURVE SMOOTH",
"271 12 OFFCURVE",
"267 12 OFFCURVE",
"262 12 CURVE",
"252 12 OFFCURVE",
"241 11 OFFCURVE",
"231 11 CURVE SMOOTH",
"227 11 OFFCURVE",
"222 11 OFFCURVE",
"219 11 CURVE",
"211 101 OFFCURVE",
"203 190 OFFCURVE",
"188 277 CURVE SMOOTH",
"174 364 OFFCURVE",
"155 448 OFFCURVE",
"128 530 CURVE"
);
}
);
width = 866;
}
);
unicode = 0077;
},
{
glyphname = x;
lastChange = "2014-11-05 03:31:07 -0500";
layers = (
{
layerId = "013FA67F-D7C9-4F04-AAC6-32032829ED9A";
name = "Bold Italic";
paths = (
{
closed = 1;
nodes = (
"624 525 LINE",
"553 440 OFFCURVE",
"490 354 OFFCURVE",
"424 265 CURVE",
"424 266 LINE",
"422 263 OFFCURVE",
"421 262 OFFCURVE",
"421 262 CURVE SMOOTH",
"420 261 OFFCURVE",
"419 260 OFFCURVE",
"417 257 CURVE",
"447 216 OFFCURVE",
"480 172 OFFCURVE",
"514 128 CURVE SMOOTH",
"547 84 OFFCURVE",
"581 42 OFFCURVE",
"612 3 CURVE",
"591 5 OFFCURVE",
"563 7 OFFCURVE",
"535 9 CURVE SMOOTH",
"507 10 OFFCURVE",
"479 12 OFFCURVE",
"458 12 CURVE",
"439 42 OFFCURVE",
"422 70 OFFCURVE",
"405 99 CURVE SMOOTH",
"387 127 OFFCURVE",
"371 155 OFFCURVE",
"354 186 CURVE",
"309 127 OFFCURVE",
"260 68 OFFCURVE",
"211 12 CURVE",
"190 12 OFFCURVE",
"162 10 OFFCURVE",
"134 8 CURVE SMOOTH",
"120 7 OFFCURVE",
"105 6 OFFCURVE",
"92 6 CURVE",
"78 5 OFFCURVE",
"66 4 OFFCURVE",
"55 3 CURVE",
"94 43 OFFCURVE",
"137 87 OFFCURVE",
"178 132 CURVE SMOOTH",
"219 176 OFFCURVE",
"260 221 OFFCURVE",
"297 263 CURVE",
"272 308 OFFCURVE",
"245 356 OFFCURVE",
"216 404 CURVE SMOOTH",
"188 451 OFFCURVE",
"159 499 OFFCURVE",
"131 542 CURVE",
"138 541 OFFCURVE",
"146 540 OFFCURVE",
"155 540 CURVE SMOOTH",
"165 539 OFFCURVE",
"174 538 OFFCURVE",
"184 538 CURVE",
"203 536 OFFCURVE",
"222 535 OFFCURVE",
"236 534 CURVE",
"281 464 OFFCURVE",
"319 400 OFFCURVE",
"360 328 CURVE",
"417 398 OFFCURVE",
"477 469 OFFCURVE",
"536 535 CURVE",
"562 537 OFFCURVE",
"591 538 OFFCURVE",
"616 541 CURVE"
);
}
);
width = 742;
}
);
unicode = 0078;
},
{
glyphname = y;
lastChange = "2014-11-05 03:31:07 -0500";
layers = (
{
anchors = (
{
name = bottom;
position = "{407, -111}";
},
{
name = top;
position = "{329, 541}";
}
);
layerId = "013FA67F-D7C9-4F04-AAC6-32032829ED9A";
name = "Bold Italic";
paths = (
{
closed = 1;
nodes = (
"384 -34 LINE",
"372 -57 OFFCURVE",
"358 -81 OFFCURVE",
"343 -103 CURVE SMOOTH",
"328 -125 OFFCURVE",
"310 -146 OFFCURVE",
"287 -164 CURVE",
"266 -179 OFFCURVE",
"243 -187 OFFCURVE",
"220 -191 CURVE SMOOTH",
"197 -196 OFFCURVE",
"173 -198 OFFCURVE",
"149 -199 CURVE",
"146 -200 OFFCURVE",
"141 -200 OFFCURVE",
"137 -200 CURVE",
"127 -201 OFFCURVE",
"118 -202 OFFCURVE",
"108 -203 CURVE SMOOTH",
"104 -203 OFFCURVE",
"100 -204 OFFCURVE",
"97 -204 CURVE",
"99 -194 OFFCURVE",
"101 -180 OFFCURVE",
"104 -167 CURVE SMOOTH",
"105 -153 OFFCURVE",
"107 -139 OFFCURVE",
"109 -129 CURVE SMOOTH",
"110 -122 OFFCURVE",
"111 -114 OFFCURVE",
"113 -104 CURVE SMOOTH",
"114 -95 OFFCURVE",
"116 -87 OFFCURVE",
"117 -80 CURVE",
"121 -79 OFFCURVE",
"127 -79 OFFCURVE",
"135 -78 CURVE SMOOTH",
"142 -78 OFFCURVE",
"148 -78 OFFCURVE",
"152 -77 CURVE",
"182 -76 OFFCURVE",
"209 -75 OFFCURVE",
"232 -58 CURVE",
"232 -58 LINE",
"249 -44 OFFCURVE",
"263 -29 OFFCURVE",
"278 -13 CURVE",
"288 5 OFFCURVE",
"299 24 OFFCURVE",
"310 42 CURVE",
"319 58 LINE",
"306 93 LINE SMOOTH",
"279 165 OFFCURVE",
"250 243 OFFCURVE",
"221 320 CURVE SMOOTH",
"191 398 OFFCURVE",
"161 475 OFFCURVE",
"131 544 CURVE",
"145 542 OFFCURVE",
"164 540 OFFCURVE",
"182 538 CURVE SMOOTH",
"201 536 OFFCURVE",
"219 533 OFFCURVE",
"233 533 CURVE",
"261 482 OFFCURVE",
"287 435 OFFCURVE",
"313 386 CURVE SMOOTH",
"338 338 OFFCURVE",
"364 290 OFFCURVE",
"390 238 CURVE",
"442 334 OFFCURVE",
"501 439 OFFCURVE",
"558 533 CURVE",
"572 534 OFFCURVE",
"591 536 OFFCURVE",
"611 539 CURVE SMOOTH",
"621 540 OFFCURVE",
"630 541 OFFCURVE",
"640 542 CURVE SMOOTH",
"649 542 OFFCURVE",
"657 543 OFFCURVE",
"664 544 CURVE",
"586 401 OFFCURVE",
"511 242 OFFCURVE",
"443 95 CURVE SMOOTH"
);
}
);
width = 679;
}
);
unicode = 0079;
},
{
glyphname = z;
lastChange = "2014-11-05 03:31:07 -0500";
layers = (
{
anchors = (
{
name = bottom;
position = "{238, -27}";
},
{
name = top;
position = "{313, 541}";
}
);
layerId = "013FA67F-D7C9-4F04-AAC6-32032829ED9A";
name = "Bold Italic";
paths = (
{
closed = 1;
nodes = (
"139 540 LINE",
"200 534 OFFCURVE",
"261 531 OFFCURVE",
"323 531 CURVE SMOOTH",
"393 531 OFFCURVE",
"467 535 OFFCURVE",
"549 543 CURVE",
"546 531 OFFCURVE",
"543 515 OFFCURVE",
"541 500 CURVE SMOOTH",
"539 491 OFFCURVE",
"538 483 OFFCURVE",
"536 476 CURVE SMOOTH",
"535 468 OFFCURVE",
"533 461 OFFCURVE",
"532 455 CURVE",
"512 435 OFFCURVE",
"492 414 OFFCURVE",
"471 393 CURVE SMOOTH",
"451 371 OFFCURVE",
"431 350 OFFCURVE",
"411 330 CURVE SMOOTH",
"394 312 OFFCURVE",
"378 295 OFFCURVE",
"363 280 CURVE SMOOTH",
"333 248 OFFCURVE",
"304 217 OFFCURVE",
"273 186 CURVE SMOOTH",
"258 170 OFFCURVE",
"241 154 OFFCURVE",
"224 137 CURVE",
"237 137 OFFCURVE",
"250 137 OFFCURVE",
"263 137 CURVE SMOOTH",
"276 137 OFFCURVE",
"289 137 OFFCURVE",
"302 137 CURVE SMOOTH",
"364 137 OFFCURVE",
"435 135 OFFCURVE",
"496 131 CURVE",
"495 117 OFFCURVE",
"495 95 OFFCURVE",
"495 81 CURVE SMOOTH",
"495 59 OFFCURVE",
"495 26 OFFCURVE",
"496 4 CURVE",
"422 11 OFFCURVE",
"352 15 OFFCURVE",
"284 15 CURVE SMOOTH",
"215 15 OFFCURVE",
"141 11 OFFCURVE",
"59 3 CURVE",
"63 23 OFFCURVE",
"68 47 OFFCURVE",
"72 71 CURVE SMOOTH",
"76 94 OFFCURVE",
"80 118 OFFCURVE",
"83 138 CURVE",
"142 195 OFFCURVE",
"197 248 OFFCURVE",
"253 301 CURVE SMOOTH",
"281 327 OFFCURVE",
"309 353 OFFCURVE",
"337 379 CURVE SMOOTH",
"365 406 OFFCURVE",
"395 433 OFFCURVE",
"424 461 CURVE",
"387 459 OFFCURVE",
"350 459 OFFCURVE",
"313 459 CURVE SMOOTH",
"251 459 OFFCURVE",
"191 461 OFFCURVE",
"128 466 CURVE",
"128 530 LINE"
);
}
);
width = 625;
}
);
unicode = 007A;
},
{
glyphname = braceleft;
lastChange = "2014-11-05 03:31:07 -0500";
layers = (
{
layerId = "013FA67F-D7C9-4F04-AAC6-32032829ED9A";
name = "Bold Italic";
paths = (
{
closed = 1;
nodes = (
"416 -62 LINE",
"416 -68 OFFCURVE",
"416 -74 OFFCURVE",
"416 -81 CURVE",
"415 -87 OFFCURVE",
"415 -94 OFFCURVE",
"414 -100 CURVE SMOOTH",
"414 -108 OFFCURVE",
"413 -119 OFFCURVE",
"413 -130 CURVE",
"412 -136 OFFCURVE",
"412 -141 OFFCURVE",
"412 -146 CURVE SMOOTH",
"411 -151 OFFCURVE",
"411 -156 OFFCURVE",
"411 -160 CURVE",
"367 -153 LINE SMOOTH",
"343 -149 OFFCURVE",
"316 -145 OFFCURVE",
"291 -138 CURVE SMOOTH",
"266 -130 OFFCURVE",
"242 -120 OFFCURVE",
"223 -104 CURVE",
"198 -75 OFFCURVE",
"193 -38 OFFCURVE",
"193 0 CURVE SMOOTH",
"193 27 OFFCURVE",
"196 52 OFFCURVE",
"199 80 CURVE SMOOTH",
"203 106 OFFCURVE",
"206 133 OFFCURVE",
"206 158 CURVE SMOOTH",
"206 186 OFFCURVE",
"204 213 OFFCURVE",
"190 235 CURVE",
"191 235 LINE",
"183 245 OFFCURVE",
"170 251 OFFCURVE",
"157 255 CURVE SMOOTH",
"143 259 OFFCURVE",
"127 261 OFFCURVE",
"113 261 CURVE SMOOTH",
"110 261 LINE SMOOTH",
"108 261 OFFCURVE",
"107 261 OFFCURVE",
"106 262 CURVE",
"105 262 OFFCURVE",
"104 262 OFFCURVE",
"103 262 CURVE SMOOTH",
"81 262 LINE",
"81 264 OFFCURVE",
"81 267 OFFCURVE",
"81 271 CURVE SMOOTH",
"82 274 OFFCURVE",
"82 277 OFFCURVE",
"82 281 CURVE",
"83 289 OFFCURVE",
"83 295 OFFCURVE",
"84 301 CURVE SMOOTH",
"88 339 LINE",
"94 339 OFFCURVE",
"99 339 OFFCURVE",
"102 339 CURVE",
"104 338 OFFCURVE",
"106 338 OFFCURVE",
"108 338 CURVE SMOOTH",
"109 337 OFFCURVE",
"111 337 OFFCURVE",
"112 337 CURVE SMOOTH",
"113 337 OFFCURVE",
"115 337 OFFCURVE",
"116 337 CURVE SMOOTH",
"146 337 OFFCURVE",
"182 344 OFFCURVE",
"206 362 CURVE",
"216 374 OFFCURVE",
"224 388 OFFCURVE",
"229 404 CURVE SMOOTH",
"233 419 OFFCURVE",
"236 436 OFFCURVE",
"238 451 CURVE",
"239 469 OFFCURVE",
"241 488 OFFCURVE",
"243 505 CURVE SMOOTH",
"249 560 LINE",
"252 583 OFFCURVE",
"255 609 OFFCURVE",
"263 633 CURVE SMOOTH",
"271 656 OFFCURVE",
"283 678 OFFCURVE",
"304 696 CURVE",
"347 722 OFFCURVE",
"396 731 OFFCURVE",
"442 738 CURVE",
"447 739 OFFCURVE",
"452 740 OFFCURVE",
"458 741 CURVE",
"463 742 OFFCURVE",
"469 743 OFFCURVE",
"476 745 CURVE",
"488 747 OFFCURVE",
"500 749 OFFCURVE",
"508 751 CURVE",
"506 741 OFFCURVE",
"503 726 OFFCURVE",
"501 711 CURVE SMOOTH",
"500 704 OFFCURVE",
"499 697 OFFCURVE",
"497 689 CURVE SMOOTH",
"496 682 OFFCURVE",
"495 676 OFFCURVE",
"494 671 CURVE",
"475 666 OFFCURVE",
"464 665 OFFCURVE",
"453 663 CURVE SMOOTH",
"423 658 OFFCURVE",
"392 653 OFFCURVE",
"369 635 CURVE",
"370 637 LINE",
"353 618 OFFCURVE",
"349 589 OFFCURVE",
"345 563 CURVE SMOOTH",
"343 555 LINE",
"343 555 LINE",
"341 536 OFFCURVE",
"338 518 OFFCURVE",
"336 499 CURVE SMOOTH",
"334 479 OFFCURVE",
"332 461 OFFCURVE",
"330 442 CURVE SMOOTH",
"326 407 OFFCURVE",
"320 369 OFFCURVE",
"298 336 CURVE",
"283 316 OFFCURVE",
"260 303 OFFCURVE",
"237 296 CURVE",
"258 288 OFFCURVE",
"278 274 OFFCURVE",
"288 252 CURVE SMOOTH",
"299 227 OFFCURVE",
"300 200 OFFCURVE",
"300 172 CURVE SMOOTH",
"300 155 LINE",
"294 98 LINE",
"293 89 OFFCURVE",
"292 79 OFFCURVE",
"292 70 CURVE SMOOTH",
"291 61 OFFCURVE",
"290 51 OFFCURVE",
"289 42 CURVE",
"289 19 OFFCURVE",
"290 -4 OFFCURVE",
"303 -21 CURVE",
"318 -36 OFFCURVE",
"346 -42 OFFCURVE",
"370 -45 CURVE",
"380 -47 LINE SMOOTH",
"383 -48 OFFCURVE",
"385 -48 OFFCURVE",
"388 -48 CURVE",
"391 -49 OFFCURVE",
"393 -49 OFFCURVE",
"395 -49 CURVE SMOOTH",
"399 -51 OFFCURVE",
"403 -51 OFFCURVE",
"406 -51 CURVE"
);
}
);
width = 576;
}
);
unicode = 007B;
},
{
glyphname = bar;
lastChange = "2014-11-05 03:31:07 -0500";
layers = (
{
layerId = "013FA67F-D7C9-4F04-AAC6-32032829ED9A";
name = "Bold Italic";
paths = (
{
closed = 1;
nodes = (
"136 -209 LINE",
"129 -208 OFFCURVE",
"122 -207 OFFCURVE",
"116 -207 CURVE SMOOTH",
"97 -207 OFFCURVE",
"72 -216 OFFCURVE",
"43 -235 CURVE",
"55 -157 OFFCURVE",
"67 -72 OFFCURVE",
"80 14 CURVE SMOOTH",
"92 100 OFFCURVE",
"104 185 OFFCURVE",
"114 263 CURVE",
"119 263 OFFCURVE",
"126 263 OFFCURVE",
"134 263 CURVE SMOOTH",
"141 263 OFFCURVE",
"149 263 OFFCURVE",
"157 263 CURVE SMOOTH",
"165 263 OFFCURVE",
"173 263 OFFCURVE",
"181 264 CURVE",
"188 264 OFFCURVE",
"195 264 OFFCURVE",
"201 264 CURVE",
"183 112 OFFCURVE",
"165 -48 OFFCURVE",
"147 -201 CURVE"
);
},
{
closed = 1;
nodes = (
"146 522 LINE SMOOTH",
"154 592 OFFCURVE",
"164 672 OFFCURVE",
"173 742 CURVE",
"181 741 OFFCURVE",
"186 740 OFFCURVE",
"188 739 CURVE SMOOTH",
"191 739 OFFCURVE",
"193 739 OFFCURVE",
"195 739 CURVE SMOOTH",
"214 739 OFFCURVE",
"240 750 OFFCURVE",
"268 769 CURVE",
"262 733 OFFCURVE",
"257 695 OFFCURVE",
"251 656 CURVE SMOOTH",
"246 616 OFFCURVE",
"240 577 OFFCURVE",
"235 537 CURVE SMOOTH",
"229 497 OFFCURVE",
"224 457 OFFCURVE",
"218 417 CURVE SMOOTH",
"213 378 OFFCURVE",
"208 340 OFFCURVE",
"203 304 CURVE",
"186 302 OFFCURVE",
"174 302 OFFCURVE",
"162 302 CURVE SMOOTH",
"159 302 OFFCURVE",
"155 302 OFFCURVE",
"151 302 CURVE SMOOTH",
"144 302 OFFCURVE",
"135 303 OFFCURVE",
"127 303 CURVE",
"123 303 OFFCURVE",
"120 303 OFFCURVE",
"117 303 CURVE"
);
}
);
width = 321;
}
);
unicode = 007C;
},
{
glyphname = braceright;
lastChange = "2014-11-05 03:31:07 -0500";
layers = (
{
layerId = "013FA67F-D7C9-4F04-AAC6-32032829ED9A";
name = "Bold Italic";
paths = (
{
closed = 1;
nodes = (
"135 -68 LINE SMOOTH",
"150 -66 OFFCURVE",
"168 -64 OFFCURVE",
"185 -60 CURVE SMOOTH",
"202 -56 OFFCURVE",
"218 -49 OFFCURVE",
"229 -40 CURVE",
"229 -40 LINE",
"248 -19 OFFCURVE",
"252 11 OFFCURVE",
"256 38 CURVE",
"256 39 OFFCURVE",
"256 40 OFFCURVE",
"256 40 CURVE",
"256 41 OFFCURVE",
"256 42 OFFCURVE",
"256 42 CURVE",
"257 52 LINE SMOOTH",
"259 69 OFFCURVE",
"260 87 OFFCURVE",
"262 104 CURVE SMOOTH",
"265 139 OFFCURVE",
"267 173 OFFCURVE",
"275 208 CURVE SMOOTH",
"279 225 OFFCURVE",
"286 242 OFFCURVE",
"296 257 CURVE",
"312 277 OFFCURVE",
"336 290 OFFCURVE",
"363 297 CURVE",
"339 305 OFFCURVE",
"315 318 OFFCURVE",
"304 341 CURVE",
"304 340 LINE",
"292 361 OFFCURVE",
"291 386 OFFCURVE",
"291 409 CURVE SMOOTH",
"291 440 OFFCURVE",
"293 471 OFFCURVE",
"296 501 CURVE SMOOTH",
"300 532 OFFCURVE",
"303 563 OFFCURVE",
"303 591 CURVE SMOOTH",
"303 608 OFFCURVE",
"299 628 OFFCURVE",
"290 643 CURVE",
"280 651 OFFCURVE",
"266 657 OFFCURVE",
"251 662 CURVE SMOOTH",
"235 666 OFFCURVE",
"219 669 OFFCURVE",
"205 671 CURVE SMOOTH",
"173 677 LINE",
"174 715 LINE",
"176 756 LINE",
"184 754 OFFCURVE",
"195 752 OFFCURVE",
"206 750 CURVE SMOOTH",
"211 749 OFFCURVE",
"217 748 OFFCURVE",
"223 747 CURVE SMOOTH",
"228 746 OFFCURVE",
"233 745 OFFCURVE",
"237 745 CURVE",
"259 741 OFFCURVE",
"283 737 OFFCURVE",
"306 730 CURVE SMOOTH",
"329 723 OFFCURVE",
"350 713 OFFCURVE",
"368 699 CURVE",
"391 674 OFFCURVE",
"397 639 OFFCURVE",
"397 604 CURVE SMOOTH",
"397 589 OFFCURVE",
"396 575 OFFCURVE",
"395 561 CURVE SMOOTH",
"386 451 LINE SMOOTH",
"385 442 OFFCURVE",
"384 433 OFFCURVE",
"384 423 CURVE SMOOTH",
"384 400 OFFCURVE",
"388 378 OFFCURVE",
"400 361 CURVE",
"410 351 OFFCURVE",
"423 346 OFFCURVE",
"437 342 CURVE SMOOTH",
"451 339 OFFCURVE",
"466 338 OFFCURVE",
"480 338 CURVE SMOOTH",
"482 338 OFFCURVE",
"484 338 OFFCURVE",
"485 339 CURVE",
"487 339 OFFCURVE",
"488 339 OFFCURVE",
"490 339 CURVE SMOOTH",
"491 339 OFFCURVE",
"493 339 OFFCURVE",
"496 339 CURVE",
"501 338 OFFCURVE",
"506 338 OFFCURVE",
"514 338 CURVE",
"508 262 LINE",
"483 262 LINE SMOOTH",
"468 262 OFFCURVE",
"450 262 OFFCURVE",
"434 258 CURVE SMOOTH",
"418 255 OFFCURVE",
"402 249 OFFCURVE",
"390 237 CURVE",
"390 237 LINE",
"379 225 OFFCURVE",
"372 209 OFFCURVE",
"367 193 CURVE SMOOTH",
"363 177 OFFCURVE",
"360 159 OFFCURVE",
"358 144 CURVE",
"357 131 OFFCURVE",
"356 119 OFFCURVE",
"355 107 CURVE",
"354 95 OFFCURVE",
"353 83 OFFCURVE",
"352 70 CURVE SMOOTH",
"350 35 LINE SMOOTH",
"347 12 OFFCURVE",
"345 -13 OFFCURVE",
"337 -37 CURVE SMOOTH",
"330 -61 OFFCURVE",
"319 -83 OFFCURVE",
"299 -101 CURVE",
"279 -115 OFFCURVE",
"259 -124 OFFCURVE",
"238 -129 CURVE SMOOTH",
"217 -136 OFFCURVE",
"196 -139 OFFCURVE",
"175 -143 CURVE",
"168 -144 OFFCURVE",
"162 -145 OFFCURVE",
"155 -146 CURVE SMOOTH",
"148 -147 OFFCURVE",
"141 -148 OFFCURVE",
"135 -150 CURVE",
"116 -153 LINE",
"116 -153 LINE",
"96 -157 LINE",
"97 -151 OFFCURVE",
"98 -145 OFFCURVE",
"99 -138 CURVE",
"100 -130 OFFCURVE",
"101 -123 OFFCURVE",
"102 -114 CURVE SMOOTH",
"103 -106 OFFCURVE",
"104 -99 OFFCURVE",
"105 -91 CURVE",
"106 -84 OFFCURVE",
"107 -77 OFFCURVE",
"108 -72 CURVE"
);
}
);
width = 583;
}
);
unicode = 007D;
},
{
glyphname = asciitilde;
lastChange = "2014-11-05 03:31:07 -0500";
layers = (
{
layerId = "013FA67F-D7C9-4F04-AAC6-32032829ED9A";
name = "Bold Italic";
paths = (
{
closed = 1;
nodes = (
"687 390 LINE",
"698 393 LINE",
"685 372 OFFCURVE",
"677 348 OFFCURVE",
"673 320 CURVE",
"643 297 LINE SMOOTH",
"621 280 OFFCURVE",
"598 263 OFFCURVE",
"574 250 CURVE SMOOTH",
"550 236 OFFCURVE",
"524 227 OFFCURVE",
"497 227 CURVE",
"457 229 OFFCURVE",
"426 244 OFFCURVE",
"393 260 CURVE SMOOTH",
"364 274 LINE",
"331 293 OFFCURVE",
"295 311 OFFCURVE",
"256 313 CURVE",
"228 311 OFFCURVE",
"202 299 OFFCURVE",
"178 282 CURVE",
"178 283 LINE",
"145 261 OFFCURVE",
"109 236 OFFCURVE",
"76 217 CURVE",
"64 228 LINE",
"81 256 OFFCURVE",
"90 287 OFFCURVE",
"92 318 CURVE",
"116 338 OFFCURVE",
"143 357 OFFCURVE",
"171 370 CURVE SMOOTH",
"199 382 OFFCURVE",
"229 390 OFFCURVE",
"259 390 CURVE SMOOTH",
"302 390 OFFCURVE",
"346 378 OFFCURVE",
"387 361 CURVE",
"391 359 LINE",
"395 357 OFFCURVE",
"398 356 OFFCURVE",
"402 354 CURVE",
"435 341 OFFCURVE",
"473 327 OFFCURVE",
"510 327 CURVE SMOOTH",
"535 327 OFFCURVE",
"560 334 OFFCURVE",
"584 344 CURVE SMOOTH",
"608 354 OFFCURVE",
"631 369 OFFCURVE",
"654 382 CURVE SMOOTH",
"660 386 OFFCURVE",
"666 390 OFFCURVE",
"672 393 CURVE SMOOTH",
"679 396 OFFCURVE",
"685 399 OFFCURVE",
"690 403 CURVE"
);
}
);
width = 745;
}
);
unicode = 007E;
},
{
glyphname = exclamdown;
lastChange = "2014-11-05 03:31:07 -0500";
layers = (
{
layerId = "013FA67F-D7C9-4F04-AAC6-32032829ED9A";
name = "Bold Italic";
paths = (
{
closed = 1;
nodes = (
"275 583 LINE",
"256 577 OFFCURVE",
"237 574 OFFCURVE",
"218 574 CURVE SMOOTH",
"201 574 OFFCURVE",
"181 578 OFFCURVE",
"160 585 CURVE",
"165 652 LINE SMOOTH",
"165 657 OFFCURVE",
"166 663 OFFCURVE",
"166 669 CURVE SMOOTH",
"167 676 OFFCURVE",
"167 683 OFFCURVE",
"167 689 CURVE SMOOTH",
"168 703 OFFCURVE",
"169 717 OFFCURVE",
"170 727 CURVE",
"192 716 OFFCURVE",
"212 710 OFFCURVE",
"229 710 CURVE SMOOTH",
"247 710 OFFCURVE",
"269 716 OFFCURVE",
"296 729 CURVE",
"282 591 LINE"
);
},
{
closed = 1;
nodes = (
"224 6 LINE",
"208 14 OFFCURVE",
"191 18 OFFCURVE",
"171 18 CURVE SMOOTH",
"152 18 OFFCURVE",
"128 12 OFFCURVE",
"101 -2 CURVE",
"107 49 OFFCURVE",
"114 104 OFFCURVE",
"120 160 CURVE SMOOTH",
"126 215 OFFCURVE",
"133 271 OFFCURVE",
"138 321 CURVE SMOOTH",
"146 376 LINE SMOOTH",
"148 394 OFFCURVE",
"151 414 OFFCURVE",
"154 435 CURVE SMOOTH",
"157 456 OFFCURVE",
"160 476 OFFCURVE",
"162 494 CURVE",
"181 491 OFFCURVE",
"197 490 OFFCURVE",
"209 490 CURVE SMOOTH",
"222 490 OFFCURVE",
"242 491 OFFCURVE",
"263 495 CURVE",
"263 479 OFFCURVE",
"262 462 OFFCURVE",
"261 444 CURVE SMOOTH",
"261 425 OFFCURVE",
"260 408 OFFCURVE",
"259 393 CURVE SMOOTH",
"259 369 OFFCURVE",
"258 344 OFFCURVE",
"257 321 CURVE SMOOTH",
"250 218 OFFCURVE",
"243 117 OFFCURVE",
"238 13 CURVE"
);
}
);
width = 366;
}
);
unicode = 00A1;
},
{
glyphname = cent;
lastChange = "2014-11-05 03:31:07 -0500";
layers = (
{
layerId = "013FA67F-D7C9-4F04-AAC6-32032829ED9A";
name = "Bold Italic";
paths = (
{
closed = 1;
nodes = (
"290 118 LINE",
"291 118 OFFCURVE",
"291 118 OFFCURVE",
"291 118 CURVE",
"292 117 OFFCURVE",
"292 117 OFFCURVE",
"292 117 CURVE",
"289 117 LINE",
"287 113 LINE",
"287 116 LINE",
"287 117 LINE",
"287 117 OFFCURVE",
"287 118 OFFCURVE",
"287 118 CURVE",
"288 118 LINE",
"292 120 LINE"
);
},
{
closed = 1;
nodes = (
"173 212 OFFCURVE",
"185 182 OFFCURVE",
"205 160 CURVE SMOOTH",
"225 137 OFFCURVE",
"253 123 OFFCURVE",
"287 118 CURVE",
"299 239 OFFCURVE",
"310 352 OFFCURVE",
"324 474 CURVE",
"271 468 OFFCURVE",
"234 435 OFFCURVE",
"209 392 CURVE SMOOTH",
"184 349 OFFCURVE",
"173 296 OFFCURVE",
"173 250 CURVE SMOOTH"
);
},
{
closed = 1;
nodes = (
"508 482 LINE",
"502 439 LINE",
"461 461 OFFCURVE",
"419 475 OFFCURVE",
"382 477 CURVE",
"375 415 OFFCURVE",
"368 355 OFFCURVE",
"361 296 CURVE SMOOTH",
"355 236 OFFCURVE",
"349 176 OFFCURVE",
"343 114 CURVE",
"383 117 OFFCURVE",
"426 129 OFFCURVE",
"471 149 CURVE",
"470 145 OFFCURVE",
"470 140 OFFCURVE",
"470 134 CURVE",
"469 123 OFFCURVE",
"468 110 OFFCURVE",
"467 99 CURVE SMOOTH",
"467 93 OFFCURVE",
"466 88 OFFCURVE",
"466 83 CURVE SMOOTH",
"464 64 OFFCURVE",
"462 39 OFFCURVE",
"461 20 CURVE",
"414 4 OFFCURVE",
"373 -2 OFFCURVE",
"332 -5 CURVE",
"327 -62 LINE",
"326 -73 OFFCURVE",
"325 -85 OFFCURVE",
"324 -99 CURVE SMOOTH",
"324 -105 OFFCURVE",
"323 -112 OFFCURVE",
"323 -119 CURVE SMOOTH",
"322 -125 OFFCURVE",
"322 -131 OFFCURVE",
"321 -136 CURVE",
"319 -136 OFFCURVE",
"317 -136 OFFCURVE",
"314 -136 CURVE SMOOTH",
"312 -135 OFFCURVE",
"309 -135 OFFCURVE",
"305 -135 CURVE",
"302 -135 OFFCURVE",
"299 -135 OFFCURVE",
"296 -134 CURVE SMOOTH",
"293 -134 OFFCURVE",
"291 -134 OFFCURVE",
"289 -134 CURVE SMOOTH",
"283 -134 OFFCURVE",
"272 -133 OFFCURVE",
"263 -132 CURVE",
"270 -57 LINE SMOOTH",
"271 -46 OFFCURVE",
"272 -37 OFFCURVE",
"272 -28 CURVE SMOOTH",
"273 -20 OFFCURVE",
"274 -11 OFFCURVE",
"275 0 CURVE",
"246 4 OFFCURVE",
"215 12 OFFCURVE",
"187 25 CURVE SMOOTH",
"159 38 OFFCURVE",
"133 55 OFFCURVE",
"116 80 CURVE SMOOTH",
"84 122 OFFCURVE",
"75 175 OFFCURVE",
"75 228 CURVE SMOOTH",
"75 265 OFFCURVE",
"79 309 OFFCURVE",
"91 352 CURVE SMOOTH",
"103 395 OFFCURVE",
"124 436 OFFCURVE",
"155 467 CURVE",
"155 467 LINE",
"178 492 OFFCURVE",
"207 509 OFFCURVE",
"238 521 CURVE SMOOTH",
"269 533 OFFCURVE",
"302 539 OFFCURVE",
"333 542 CURVE",
"334 562 OFFCURVE",
"337 582 OFFCURVE",
"339 601 CURVE SMOOTH",
"348 675 LINE",
"376 675 LINE SMOOTH",
"383 675 OFFCURVE",
"400 676 OFFCURVE",
"407 677 CURVE",
"404 654 OFFCURVE",
"401 632 OFFCURVE",
"398 610 CURVE SMOOTH",
"396 588 OFFCURVE",
"393 566 OFFCURVE",
"390 543 CURVE",
"431 542 OFFCURVE",
"472 535 OFFCURVE",
"509 518 CURVE",
"501 510 LINE",
"512 512 LINE"
);
}
);
width = 588;
}
);
unicode = 00A2;
},
{
glyphname = sterling;
lastChange = "2014-11-05 03:31:07 -0500";
layers = (
{
layerId = "013FA67F-D7C9-4F04-AAC6-32032829ED9A";
name = "Bold Italic";
paths = (
{
closed = 1;
nodes = (
"570 675 LINE SMOOTH",
"569 670 OFFCURVE",
"568 665 OFFCURVE",
"566 658 CURVE",
"564 646 OFFCURVE",
"561 632 OFFCURVE",
"559 620 CURVE SMOOTH",
"558 613 OFFCURVE",
"557 607 OFFCURVE",
"556 602 CURVE",
"517 622 OFFCURVE",
"477 636 OFFCURVE",
"438 636 CURVE SMOOTH",
"421 636 OFFCURVE",
"402 633 OFFCURVE",
"384 627 CURVE SMOOTH",
"366 621 OFFCURVE",
"348 611 OFFCURVE",
"335 599 CURVE",
"322 581 OFFCURVE",
"313 560 OFFCURVE",
"308 538 CURVE SMOOTH",
"302 516 OFFCURVE",
"298 493 OFFCURVE",
"296 471 CURVE SMOOTH",
"294 458 OFFCURVE",
"292 445 OFFCURVE",
"291 433 CURVE SMOOTH",
"290 420 OFFCURVE",
"288 407 OFFCURVE",
"287 394 CURVE SMOOTH",
"285 380 LINE",
"293 380 OFFCURVE",
"301 380 OFFCURVE",
"309 379 CURVE SMOOTH",
"317 379 OFFCURVE",
"325 379 OFFCURVE",
"333 379 CURVE SMOOTH",
"352 378 OFFCURVE",
"373 378 OFFCURVE",
"396 378 CURVE SMOOTH",
"419 377 OFFCURVE",
"440 377 OFFCURVE",
"459 377 CURVE",
"455 343 LINE",
"452 311 LINE",
"356 312 LINE",
"278 314 LINE",
"255 125 LINE",
"339 124 OFFCURVE",
"423 120 OFFCURVE",
"510 111 CURVE",
"508 85 OFFCURVE",
"507 52 OFFCURVE",
"506 27 CURVE SMOOTH",
"506 23 OFFCURVE",
"506 19 OFFCURVE",
"506 12 CURVE",
"506 5 OFFCURVE",
"506 0 OFFCURVE",
"506 -3 CURVE",
"412 9 OFFCURVE",
"323 14 OFFCURVE",
"236 14 CURVE SMOOTH",
"171 14 OFFCURVE",
"100 11 OFFCURVE",
"22 3 CURVE",
"24 11 OFFCURVE",
"26 19 OFFCURVE",
"27 27 CURVE SMOOTH",
"29 36 OFFCURVE",
"31 45 OFFCURVE",
"33 54 CURVE SMOOTH",
"36 72 OFFCURVE",
"40 89 OFFCURVE",
"42 104 CURVE",
"45 119 LINE",
"82 122 OFFCURVE",
"117 123 OFFCURVE",
"153 125 CURVE",
"156 141 OFFCURVE",
"158 157 OFFCURVE",
"160 173 CURVE SMOOTH",
"162 188 OFFCURVE",
"164 204 OFFCURVE",
"167 219 CURVE SMOOTH",
"168 234 OFFCURVE",
"170 250 OFFCURVE",
"172 266 CURVE SMOOTH",
"174 282 OFFCURVE",
"176 298 OFFCURVE",
"178 315 CURVE",
"150 315 OFFCURVE",
"116 315 OFFCURVE",
"89 316 CURVE",
"97 384 LINE",
"112 383 OFFCURVE",
"126 383 OFFCURVE",
"142 382 CURVE SMOOTH",
"156 382 OFFCURVE",
"171 382 OFFCURVE",
"186 381 CURVE",
"190 430 LINE SMOOTH",
"191 439 OFFCURVE",
"192 449 OFFCURVE",
"193 458 CURVE SMOOTH",
"195 478 OFFCURVE",
"197 501 OFFCURVE",
"204 532 CURVE SMOOTH",
"209 563 OFFCURVE",
"219 594 OFFCURVE",
"235 623 CURVE SMOOTH",
"251 651 OFFCURVE",
"274 673 OFFCURVE",
"304 688 CURVE SMOOTH",
"333 704 OFFCURVE",
"365 712 OFFCURVE",
"396 717 CURVE SMOOTH",
"413 719 OFFCURVE",
"428 720 OFFCURVE",
"442 720 CURVE SMOOTH",
"485 720 OFFCURVE",
"527 712 OFFCURVE",
"568 700 CURVE",
"561 691 LINE",
"573 693 LINE"
);
}
);
width = 637;
}
);
unicode = 00A3;
},
{
glyphname = currency;
lastChange = "2014-11-05 03:31:07 -0500";
layers = (
{
layerId = "013FA67F-D7C9-4F04-AAC6-32032829ED9A";
name = "Bold Italic";
paths = (
{
closed = 1;
nodes = (
"430 513 OFFCURVE",
"466 501 OFFCURVE",
"497 481 CURVE",
"522 504 LINE",
"610 584 LINE",
"660 525 LINE",
"614 483 LINE SMOOTH",
"603 473 OFFCURVE",
"592 463 OFFCURVE",
"582 454 CURVE SMOOTH",
"572 444 OFFCURVE",
"561 434 OFFCURVE",
"550 423 CURVE",
"554 410 OFFCURVE",
"560 394 OFFCURVE",
"563 378 CURVE SMOOTH",
"567 362 OFFCURVE",
"570 346 OFFCURVE",
"570 332 CURVE SMOOTH",
"570 287 OFFCURVE",
"555 243 OFFCURVE",
"528 206 CURVE",
"557 173 OFFCURVE",
"593 135 OFFCURVE",
"622 104 CURVE",
"608 92 OFFCURVE",
"599 83 OFFCURVE",
"592 76 CURVE",
"563 47 LINE",
"547 64 OFFCURVE",
"531 81 OFFCURVE",
"515 97 CURVE SMOOTH",
"499 114 OFFCURVE",
"482 130 OFFCURVE",
"467 147 CURVE",
"434 128 OFFCURVE",
"396 115 OFFCURVE",
"358 115 CURVE SMOOTH",
"319 115 OFFCURVE",
"283 128 OFFCURVE",
"252 146 CURVE",
"214 112 LINE",
"140 45 LINE",
"138 48 OFFCURVE",
"135 50 OFFCURVE",
"133 54 CURVE",
"127 60 OFFCURVE",
"122 66 OFFCURVE",
"117 73 CURVE",
"114 76 OFFCURVE",
"112 78 OFFCURVE",
"110 81 CURVE SMOOTH",
"90 104 LINE",
"115 126 OFFCURVE",
"145 154 OFFCURVE",
"169 177 CURVE SMOOTH",
"200 207 LINE",
"187 237 OFFCURVE",
"179 267 OFFCURVE",
"179 300 CURVE SMOOTH",
"179 344 OFFCURVE",
"195 387 OFFCURVE",
"220 422 CURVE",
"179 467 LINE",
"127 524 LINE",
"132 528 OFFCURVE",
"138 533 OFFCURVE",
"144 540 CURVE",
"150 545 OFFCURVE",
"155 550 OFFCURVE",
"160 554 CURVE",
"188 582 LINE",
"232 535 LINE",
"282 481 LINE",
"315 502 OFFCURVE",
"354 513 OFFCURVE",
"391 513 CURVE SMOOTH"
);
},
{
closed = 1;
nodes = (
"489 316 LINE",
"490 318 OFFCURVE",
"490 320 OFFCURVE",
"490 322 CURVE SMOOTH",
"490 324 OFFCURVE",
"490 326 OFFCURVE",
"490 329 CURVE SMOOTH",
"490 359 OFFCURVE",
"478 385 OFFCURVE",
"459 403 CURVE SMOOTH",
"440 420 OFFCURVE",
"414 431 OFFCURVE",
"384 431 CURVE SMOOTH",
"349 431 OFFCURVE",
"318 416 OFFCURVE",
"295 392 CURVE SMOOTH",
"272 369 OFFCURVE",
"258 336 OFFCURVE",
"258 301 CURVE SMOOTH",
"258 270 OFFCURVE",
"270 244 OFFCURVE",
"290 226 CURVE SMOOTH",
"309 208 OFFCURVE",
"335 197 OFFCURVE",
"365 197 CURVE SMOOTH",
"396 197 OFFCURVE",
"427 210 OFFCURVE",
"450 232 CURVE SMOOTH",
"473 253 OFFCURVE",
"487 283 OFFCURVE",
"489 315 CURVE"
);
}
);
width = 730;
}
);
unicode = 00A4;
},
{
glyphname = yen;
lastChange = "2014-11-05 03:31:07 -0500";
layers = (
{
layerId = "013FA67F-D7C9-4F04-AAC6-32032829ED9A";
name = "Bold Italic";
paths = (
{
closed = 1;
nodes = (
"641 204 LINE",
"579 206 OFFCURVE",
"526 208 OFFCURVE",
"465 208 CURVE",
"462 145 OFFCURVE",
"461 80 OFFCURVE",
"461 17 CURVE",
"445 18 OFFCURVE",
"419 18 OFFCURVE",
"403 18 CURVE SMOOTH",
"398 18 OFFCURVE",
"392 18 OFFCURVE",
"387 18 CURVE",
"381 18 OFFCURVE",
"375 18 OFFCURVE",
"370 18 CURVE SMOOTH",
"326 18 LINE",
"331 49 OFFCURVE",
"337 81 OFFCURVE",
"342 113 CURVE SMOOTH",
"348 145 OFFCURVE",
"353 176 OFFCURVE",
"358 208 CURVE",
"297 208 OFFCURVE",
"229 206 OFFCURVE",
"170 203 CURVE",
"171 208 OFFCURVE",
"172 215 OFFCURVE",
"173 223 CURVE SMOOTH",
"175 238 OFFCURVE",
"177 254 OFFCURVE",
"179 270 CURVE",
"179 277 OFFCURVE",
"180 284 OFFCURVE",
"180 290 CURVE",
"236 291 LINE SMOOTH",
"279 292 OFFCURVE",
"323 292 OFFCURVE",
"367 292 CURVE",
"368 311 LINE",
"350 342 LINE SMOOTH",
"347 349 OFFCURVE",
"343 354 OFFCURVE",
"340 359 CURVE",
"337 364 OFFCURVE",
"333 370 OFFCURVE",
"330 376 CURVE",
"306 376 OFFCURVE",
"281 376 OFFCURVE",
"255 376 CURVE SMOOTH",
"229 376 OFFCURVE",
"204 377 OFFCURVE",
"180 377 CURVE",
"180 382 OFFCURVE",
"181 388 OFFCURVE",
"181 395 CURVE SMOOTH",
"183 410 OFFCURVE",
"183 415 OFFCURVE",
"184 429 CURVE SMOOTH",
"185 436 OFFCURVE",
"185 441 OFFCURVE",
"186 445 CURVE",
"227 444 OFFCURVE",
"259 443 OFFCURVE",
"300 443 CURVE",
"281 488 OFFCURVE",
"259 537 OFFCURVE",
"237 586 CURVE SMOOTH",
"215 634 OFFCURVE",
"192 683 OFFCURVE",
"170 727 CURVE",
"185 725 OFFCURVE",
"206 723 OFFCURVE",
"226 721 CURVE SMOOTH",
"246 718 OFFCURVE",
"266 716 OFFCURVE",
"281 715 CURVE",
"307 661 OFFCURVE",
"332 609 OFFCURVE",
"355 557 CURVE SMOOTH",
"378 504 OFFCURVE",
"401 452 OFFCURVE",
"425 396 CURVE",
"489 503 OFFCURVE",
"557 612 OFFCURVE",
"626 716 CURVE",
"649 717 OFFCURVE",
"675 720 OFFCURVE",
"698 722 CURVE SMOOTH",
"740 726 LINE",
"675 633 OFFCURVE",
"615 538 OFFCURVE",
"555 443 CURVE",
"570 443 OFFCURVE",
"583 444 OFFCURVE",
"598 444 CURVE SMOOTH",
"669 445 LINE",
"669 443 OFFCURVE",
"669 440 OFFCURVE",
"668 437 CURVE SMOOTH",
"668 433 OFFCURVE",
"668 429 OFFCURVE",
"667 426 CURVE",
"667 418 OFFCURVE",
"666 410 OFFCURVE",
"666 406 CURVE SMOOTH",
"665 402 OFFCURVE",
"665 397 OFFCURVE",
"664 392 CURVE SMOOTH",
"664 386 OFFCURVE",
"664 381 OFFCURVE",
"663 378 CURVE",
"514 376 LINE",
"490 337 LINE SMOOTH",
"486 332 OFFCURVE",
"483 328 OFFCURVE",
"481 324 CURVE",
"478 320 OFFCURVE",
"475 315 OFFCURVE",
"472 310 CURVE",
"471 306 OFFCURVE",
"471 303 OFFCURVE",
"471 301 CURVE SMOOTH",
"470 300 OFFCURVE",
"470 296 OFFCURVE",
"470 292 CURVE",
"530 292 OFFCURVE",
"597 291 OFFCURVE",
"655 290 CURVE",
"655 284 OFFCURVE",
"654 277 OFFCURVE",
"654 268 CURVE SMOOTH",
"653 259 OFFCURVE",
"653 252 OFFCURVE",
"652 246 CURVE",
"651 212 LINE"
);
}
);
width = 736;
}
);
unicode = 00A5;
},
